<svg xmlns="http://www.w3.org/2000/svg" xmlns:xlink="http://www.w3.org/1999/xlink" viewBox="0 0 152.0692 48.9458">
  <defs>
    <style>
      .cls-1 {
        fill: #fff;
      }

      .cls-1, .cls-2, .cls-4 {
        fill-rule: evenodd;
      }

      .cls-3 {
        mask: url(#mask);
      }

      .cls-4 {
        fill: #e07631;
      }
    </style>
    <mask id="mask" x="74.5323" y="0.3368" width="35.947" height="48.609" maskUnits="userSpaceOnUse">
      <g id="mask-2">
        <polygon id="path-1" class="cls-1" points="74.532 0.337 110.479 0.337 110.479 48.946 74.532 48.946 74.532 0.337"/>
      </g>
    </mask>
  </defs>
  <title>1xbit</title>
  <g id="Layer_2" data-name="Layer 2">
    <g id="Layer_1-2" data-name="Layer 1">
      <g>
        <polygon id="Fill-1" class="cls-2" points="13.25 4.782 0 13.652 4.379 21.373 11.004 17.341 11.004 44.358 22.18 44.358 22.18 4.782 13.25 4.782"/>
        <polygon id="Fill-2" class="cls-2" points="115.202 44.358 126.32 44.358 126.32 14.575 115.202 14.575 115.202 44.358"/>
        <path id="Fill-3" class="cls-2" d="M120.8479,0a5.7544,5.7544,0,0,0-5.761,5.646,5.7038,5.7038,0,1,0,11.407,0A5.73,5.73,0,0,0,120.8479,0"/>
        <path id="Fill-5" class="cls-2" d="M147.4612,35.832c-1.498,0-2.535-1.268-2.535-3.054V23.331h5.876V14.574h-5.876V6.395h-10.6v8.179h-3.744v8.757h3.744V34.968a9.6482,9.6482,0,0,0,10.082,10.081,11.9531,11.9531,0,0,0,7.661-3.053l-1.901-7.028a4.3442,4.3442,0,0,1-2.707.864"/>
        <g id="Group-17">
          <g class="cls-3">
            <path id="Fill-15" class="cls-2" d="M94.81,34.9678H85.65v-6.337h9.16c2.419,0,4.148,1.325,4.148,3.169S97.2293,34.9678,94.81,34.9678Zm-9.16-20.797h7.49c2.304,0,3.975,1.268,3.975,2.996s-1.671,2.996-3.975,2.996H85.65Zm17.514,9.448a9.62,9.62,0,0,0,5.472-8.872c0-5.575-4.911-9.693-12.068-9.952V.3368h-11.86v4.444H74.5323v39.577h10.176v4.588h11.86v-4.588h.086c8.065,0,13.825-4.321,13.825-10.658C110.4793,29.3218,107.7723,25.5778,103.1643,23.6188Z"/>
          </g>
        </g>
        <polygon id="Fill-18" class="cls-4" points="58.995 4.781 48.313 15.463 37.631 4.781 28.525 13.887 39.207 24.569 28.525 35.251 37.631 44.357 48.313 33.676 58.995 44.357 68.101 35.251 57.419 24.569 68.101 13.887 58.995 4.781"/>
      </g>
    </g>
  </g>
</svg>
