<svg xmlns="http://www.w3.org/2000/svg" viewBox="0 0 226.3575 64.5288">
  <defs>
    <style>
      .cls-1 {
        fill: #383838;
      }

      .cls-2 {
        fill: #007dff;
      }
    </style>
  </defs>
  <title>aax</title>
  <g id="Layer_2" data-name="Layer 2">
    <g id="Layer_1-2" data-name="Layer 1">
      <g>
        <path class="cls-1" d="M226.0257,63.5793c-.13-.2008-.2834-.387-.4311-.5761Q214.075,48.2516,202.53,33.52c-.5833-.7406-.6915-1.2612-.3685-1.8913-2.8071,3.5925-5.6253,7.2-8.3188,10.6477.4657-.4385.7658-.2751,1.3148.4347,5.3826,6.96,10.8253,13.8728,16.2187,20.824a2.2438,2.2438,0,0,0,2.0287.969c1.9587-.05,3.9195-.0156,5.8794-.016,2.08-.0005,4.16.0025,6.24-.0041.27-.0009.6093.0911.7761-.1779C226.4867,64.0052,226.17,63.8021,226.0257,63.5793Z"/>
        <path class="cls-1" d="M193.5074,21.9458C188.7292,15.7828,183.77,9.753,179.18,3.4546,177.2964.8711,175.3282-.2626,172.1422.051c-2.9712.2924-5.9937.061-8.9937.0694-.3061.0008-.699-.0856-.8468.2814-.12.2977.1787.5.3435.7156q.7284.9534,1.4661,1.9,11.1525,14.277,22.3213,28.5414a1.0647,1.0647,0,0,1,.17,1.3671c2.8417-3.6313,5.6659-7.2439,8.3191-10.6445C194.3962,22.8194,194.0532,22.65,193.5074,21.9458Z"/>
        <path class="cls-2" d="M202.5279,31.0685q11.6064-14.7561,23.1347-29.5733c.0617-.0791.1386-.1576.2157-.2379.0357-.0469.0722-.0931.1079-.14.0414-.0542.0911-.1075.1405-.1615a.5205.5205,0,0,0,.0319-.5744.54.54,0,0,0-.4833-.2669c-.0655.0025-.1312.0059-.1924.0058L225.3852.12c-.1164.0078-.2318.0174-.3381.0171-3.46-.0075-6.921.0048-10.3815-.0145a5.592,5.592,0,0,0-3.4039,1.2193c-5.3461,6.8916-10.7392,13.7467-16.0823,20.6406a3.4527,3.4527,0,0,1-.2579.299c-2.6532,3.4006-5.4774,7.0132-8.3191,10.6445a2.3485,2.3485,0,0,1-.189.2908c-2.6326,3.3218-5.2328,6.6693-7.8428,10.009q-7.83,10.0192-15.65,20.0463c-.2275.2923-.7219.5925-.4854.9992a.4971.4971,0,0,0,.4635.2226c.0713-.0043.1422-.01.2087-.01h.0185c.1479-.0139.2967-.0324.43-.032,3.8.0105,7.6-.0287,11.3995.0279a2.83,2.83,0,0,0,2.5182-1.2482c5.3139-6.8595,10.69-13.67,15.9963-20.5362a3.52,3.52,0,0,1,.373-.4191c2.6935-3.4482,5.5117-7.0552,8.3188-10.6477A3.4517,3.4517,0,0,1,202.5279,31.0685Z"/>
        <path class="cls-1" d="M129.6318,15.8432q-3.0252,3.8592-6.05,7.719Q108.11,43.371,92.6594,63.1959a3.0136,3.0136,0,0,1-2.7121,1.3211c-3.7982-.0767-7.599-.0233-11.3988-.0361-.3784-.0012-.9021.1974-1.103-.2049-.2038-.4079.2766-.7047.5077-1.0013q11.5422-14.8091,23.1046-29.6025Q113.7651,17.4137,126.47,1.1534a2.4057,2.4057,0,0,1,2.116-1.0557c3.8795.0386,7.76.0494,11.6391-.0039,1.17-.016,1.4961.42,1.4947,1.5454q-.0385,30.6587.0035,61.3175c.0018,1.2334-.4167,1.5835-1.6031,1.5546-2.8782-.07-5.7592-.0191-8.6391-.0241-1.5665-.0028-1.6036-.0368-1.6039-1.6254q-.0041-22.7391-.0018-45.4782V15.9517Z"/>
        <path class="cls-1" d="M52.254,15.7679c-1.5778,2.0055-3.1617,4.0063-4.7322,6.0175Q31.24,42.6348,14.9751,63.4971a2.2977,2.2977,0,0,1-2.0173,1.0072c-3.9193-.0372-7.8393-.0124-11.7589-.0213-.3865-.0008-.91.1687-1.1224-.1954-.2731-.4688.254-.7887.5051-1.11Q14.2009,45.7285,27.84,28.2955C34.7343,19.4722,41.6429,10.66,48.4849,1.7963A3.7993,3.7993,0,0,1,51.9776.0739c3.5954.1254,7.1984.064,10.7977.0253,1.0566-.0113,1.4677.3034,1.4661,1.4381q-.0446,30.7776-.0053,61.5554c.001,1.0124-.2713,1.4348-1.3518,1.4143-2.9587-.0562-5.92-.066-8.8784.0042-1.1955.0284-1.47-.4377-1.4682-1.5451q.0422-22.8583.0187-45.7166V15.8451Z"/>
      </g>
    </g>
  </g>
</svg>
