<?xml version="1.0" encoding="utf-8"?>
<!-- Generator: Adobe Illustrator 23.0.2, SVG Export Plug-In . SVG Version: 6.00 Build 0)  -->
<svg version="1.1" id="Layer_1" xmlns="http://www.w3.org/2000/svg" xmlns:xlink="http://www.w3.org/1999/xlink" x="0px" y="0px"
	 viewBox="0 0 150 92.5" style="enable-background:new 0 0 150 92.5;" xml:space="preserve">
<style type="text/css">
	.st0{fill:#231916;}
</style>
<g>
	<g id="Layer_1-2">
		<g>
			<path class="st0" d="M39.7,72.1c0.5,0,0.9-0.2,1.2-0.5c0.3-0.3,0.4-0.8,0.4-1.2v-1.2c0-0.5-0.1-1.1-0.5-1.5
				c-0.4-0.4-1-0.5-1.6-0.5h-8v10.1l7.4,0c0.7,0.1,1.4-0.1,2.1-0.5c0.5-0.4,0.7-0.9,0.7-1.5v-1.3c0-0.5-0.1-1-0.4-1.3
				C40.6,72.4,40.1,72.2,39.7,72.1z M33.1,68.8h5.5c0.3,0,0.6,0,0.8,0.2c0.2,0.2,0.2,0.4,0.2,0.6v0.9c0,0.2,0,0.5-0.2,0.6
				c-0.2,0.1-0.5,0.2-0.8,0.2h-5.5L33.1,68.8z M39.4,75.6c-0.2,0.2-0.5,0.3-0.8,0.2h-5.5v-3.1l5.5,0c0.3-0.1,0.6,0,0.8,0.3
				c0.2,0.2,0.3,0.6,0.2,0.9v0.8C39.7,75.1,39.6,75.4,39.4,75.6L39.4,75.6z"/>
			<rect x="46.4" y="67.3" class="st0" width="1.7" height="10.1"/>
			<polygon class="st0" points="51.5,68.8 55.2,68.8 56.4,68.8 56.4,77.4 58.3,77.4 58.3,68.8 63.2,68.8 63.2,67.3 51.5,67.3 			"/>
			<polygon class="st0" points="74.6,67.3 70.9,71.6 67.1,67.3 64.9,67.3 69.9,73 69.9,77.4 71.7,77.4 71.7,73 76.7,67.3 			"/>
			<path class="st0" d="M82.5,67.3l-5.8,10.1h1.9l1.3-2.4h6.9l1.3,2.4h2.1l-5.9-10.1H82.5z M80.7,73.5l2.6-4.8l2.7,4.8H80.7z"/>
			<path class="st0" d="M102.5,73.4c0.5,0.1,1.1-0.1,1.5-0.5c0.3-0.4,0.5-0.9,0.4-1.5v-2.3c0-0.5-0.1-1.1-0.4-1.5
				c-0.4-0.3-0.9-0.5-1.5-0.5h-7.3v10.1h1.7v-4h2.5l3.6,4h2.3l-4-4H102.5z M96.9,72v-3.2h4.8c0.3,0,0.6,0,0.8,0.2
				c0.2,0.2,0.2,0.5,0.2,0.8V71c0,0.3,0,0.6-0.2,0.8c-0.2,0.2-0.5,0.2-0.8,0.2H96.9z"/>
			<path class="st0" d="M118.3,68.1c-0.5-0.3-1-0.5-1.6-0.6c-0.8-0.1-1.6-0.2-2.4-0.2h-5.7v10.1h5.7c2,0,3.6-0.4,4.6-1.3
				c1.1-1,1.6-2.4,1.5-3.8c0-0.9-0.2-1.7-0.6-2.5C119.5,69.1,118.9,68.5,118.3,68.1z M117.5,75c-0.7,0.6-1.8,0.8-3.4,0.8h-3.6v-7.1
				h3.6c1.6,0,2.7,0.3,3.4,0.8c0.7,0.7,1.1,1.7,1,2.7C118.6,73.3,118.3,74.3,117.5,75L117.5,75z"/>
			<path class="st0" d="M121.3,64.1l-4.8-1.6c-2.1-0.7-4.2-1.3-6.4-1.9c-2.4-0.6-4.9-1.4-7.6-1.9l-8.6-1.6c-3-0.4-6.1-0.8-9.3-1.1
				c-3.2-0.2-6.4-0.3-9.6-0.5c-3.2,0.1-6.5,0-9.6,0.2c-3.2,0.2-6.3,0.4-9.3,0.8c-1.5,0.2-3,0.4-4.4,0.6l-4.2,0.8
				c-2.7,0.5-5.3,1.2-7.6,1.8c-2.3,0.7-4.5,1.3-6.3,2c-1.9,0.6-3.5,1.3-4.8,1.8c-2.6,1.2-4.1,2-4.1,2l1.1-0.4c0.7-0.3,1.8-0.5,3.1-1
				c1.4-0.4,3-0.9,4.9-1.3c1.9-0.5,4.1-0.9,6.4-1.4c1.2-0.2,2.4-0.4,3.7-0.6s2.6-0.5,3.9-0.6l4.2-0.5l4.4-0.4c3-0.4,6-0.4,9.2-0.6
				c3.1-0.1,6.3,0,9.5-0.1c3.2,0.1,6.4,0.2,9.5,0.4l9.2,0.8l8.6,1.1c1.4,0.1,2.7,0.4,3.9,0.7l3.7,0.7c2.4,0.4,4.5,0.7,6.4,1.2
				l4.9,1.1c2.8,0.6,4.3,0.9,4.3,0.9S123.9,65,121.3,64.1z"/>
			<polygon class="st0" points="87.5,24.5 118.5,57.1 118.7,57.2 86.9,15.1 78.4,32 96.3,50 			"/>
			<path class="st0" d="M44.4,52.8l0.4-0.1l10-18.2l0.4,0.1l-0.1,9.2l12.6-15.6l27.6,21.7l-19.2-20l-7.7-8l-9.5,10.9l-3.3-2.7
				L34.6,55.5c1.2-0.4,2.5-0.8,3.8-1.2C40.3,53.8,42.3,53.3,44.4,52.8z"/>
		</g>
	</g>
</g>
</svg>
