<svg xmlns="http://www.w3.org/2000/svg" viewBox="0 0 374.53 45.05"><defs><style>.cls-1{fill:#2b5a9a;}.cls-2{fill:#66bf77;}.cls-3{fill:#59595b;}.cls-4{fill:#a7a9ac;}.cls-5{fill:#d1d3d4;}</style></defs><title>CryptoCompare</title><g id="Layer_2" data-name="Layer 2"><g id="Layer_1-2" data-name="Layer 1"><path class="cls-1" d="M24.35,44.51A34.71,34.71,0,0,1,14.14,43.1a23.4,23.4,0,0,1-8.42-4.31A15.35,15.35,0,0,1,.52,31a14.34,14.34,0,0,1-.21-6.83A20.74,20.74,0,0,1,4.62,15.3,35.58,35.58,0,0,1,16.14,6.11a46.08,46.08,0,0,1,9.14-3.6c.31-.08.43,0,.51.29.29,1.11.6,2.21.91,3.31.13.47.1.52-.37.65a39.73,39.73,0,0,0-7.86,3.05,33.16,33.16,0,0,0-8.34,5.89,18.5,18.5,0,0,0-5.32,8.4A10.17,10.17,0,0,0,7.34,34.34a17.15,17.15,0,0,0,7,4.24,29.22,29.22,0,0,0,7.16,1.47,36,36,0,0,0,6.23,0,43.92,43.92,0,0,0,7.47-1.31c.22-.06.36,0,.43.22.31,1.21.63,2.41,1,3.61.08.28-.07.33-.28.39a47.72,47.72,0,0,1-4.75,1A43.57,43.57,0,0,1,24.35,44.51Z"/><path class="cls-2" d="M40,4.36a41.19,41.19,0,0,0-10.6,1.36c-.54.14-.54.14-.69-.41-.28-1-.57-2.06-.85-3.09-.15-.53-.14-.55.38-.68A48.71,48.71,0,0,1,35.6.21a41.91,41.91,0,0,1,7.92,0,35.3,35.3,0,0,1,7.62,1.55,23.09,23.09,0,0,1,7.1,3.72,15.37,15.37,0,0,1,5.57,8.13A14.63,14.63,0,0,1,64,20.62a21.33,21.33,0,0,1-5,9.45,37.4,37.4,0,0,1-12.81,9.32,49.46,49.46,0,0,1-7,2.57c-.53.15-.52.15-.67-.39-.29-1.06-.57-2.13-.88-3.19-.09-.34,0-.49.33-.58a42.67,42.67,0,0,0,7.92-3.1,34.41,34.41,0,0,0,7.44-5.06,23,23,0,0,0,5-6.24,12.35,12.35,0,0,0,1.58-7,9.77,9.77,0,0,0-2.3-5.5,17.26,17.26,0,0,0-8.79-5.34,28.91,28.91,0,0,0-6.52-1.12C41.51,4.38,40.7,4.39,40,4.36Z"/><path class="cls-2" d="M44.31,9.59c.25,0,.22.15.19.31-.18.88-.35,1.76-.52,2.65s-.36,1.79-.55,2.68c-.1.46-.15.47-.54.19s-.72-.5-1.06-.77a.36.36,0,0,0-.56,0l-2.69,2.6q-3.75,3.59-7.49,7.18a.41.41,0,0,1-.67,0l-5-4.33c-.19-.16-.3-.12-.45,0-.43.45-.86.89-1.3,1.32-1,1-2,2-3,2.83-.38.32-.54.29-.87-.09s-.61-.72-.93-1.08c-.19-.2-.17-.35,0-.54l3.68-3.52c.95-.9,1.91-1.8,2.84-2.72.25-.24.41-.25.66,0,1.47,1.41,3,2.81,4.44,4.22.24.23.38.25.63,0q3.69-3.39,7.4-6.76c.31-.29.62-.58,1-.84s.19-.29,0-.47c-.35-.41-.68-.84-1-1.24s-.15-.34.13-.4l3.65-.83,1.92-.45Z"/><path class="cls-3" d="M42.54,24.71V32c0,.53,0,.54-.53.54H36.69c-.37,0-.5-.12-.5-.49,0-3.06,0-6.11,0-9.17a.77.77,0,0,1,.28-.64l4.66-4.16,1.09-1c.08-.07.15-.18.26-.13s.06.18.06.28v7.44Z"/><path class="cls-4" d="M25.7,27.13c0,1.63,0,3.26,0,4.9,0,.38-.11.51-.51.51-1.51,0-3,0-4.55,0-.48,0-.51,0-.51-.49,0-1.47,0-2.93,0-4.4a.89.89,0,0,1,.28-.68l4.91-4.9c.09-.09.17-.26.29-.21s.08.25.08.38Z"/><path class="cls-5" d="M34,28.49c0,1.2,0,2.39,0,3.59,0,.32-.11.45-.45.45h-5c-.36,0-.47-.13-.47-.47,0-2,0-4,0-5.94,0-.14,0-.28,0-.42s-.12-.28,0-.35.2.07.29.14c.65.46,1.3.92,1.94,1.4a.43.43,0,0,0,.63,0l2.59-2.18c.09-.07.17-.2.29-.16s.09.22.09.34Z"/><path class="cls-1" d="M93.18,13.62a17.58,17.58,0,0,0-8.07-2A9.2,9.2,0,0,0,75.46,21a9.12,9.12,0,0,0,9.45,9.45,18.52,18.52,0,0,0,8.47-2v5.79a20,20,0,0,1-8.92,2A14.86,14.86,0,0,1,69.22,21c0-8.51,6.45-15.16,15.44-15.16a17.93,17.93,0,0,1,8.52,2Z"/><path class="cls-1" d="M97.31,15.37h5.51l.12,2a11.25,11.25,0,0,0,0,1.34,7.08,7.08,0,0,1,6-3.89,5.54,5.54,0,0,1,1.3.12v5.92a3.35,3.35,0,0,0-1.34-.24c-3.08,0-5.59,2.71-5.59,6.4v8.63h-6Z"/><path class="cls-1" d="M113.48,39.32a6.52,6.52,0,0,0,2.39.41c2.68,0,4-1.79,5.15-4.1l-8.35-20.26h6.65l2.35,7.05c.85,2.47,1.7,5,2.39,7.54.52-1.14,1.86-6,2.43-7.54l2.35-7.05h6.57l-7.87,20.1c-2.31,6-5.35,9-9.6,9.49a11.08,11.08,0,0,1-2.56,0,7.47,7.47,0,0,1-1.9-.37Z"/><path class="cls-1" d="M138.12,15.37h5.51l.12,1.7a9.06,9.06,0,0,1-.08,1.38h.08c.94-2,3.61-3.65,6.57-3.65,5.23,0,9.44,4.05,9.44,10.7s-4.21,10.7-9.28,10.7a7.54,7.54,0,0,1-6.36-3.12H144a9.2,9.2,0,0,1,.12,1.7v9.77h-6ZM154.05,25.5c0-3.32-2-5.59-4.82-5.59-2.44,0-4.87,1.86-4.87,5.59s2.43,5.59,4.87,5.59C152,31.09,154.05,28.86,154.05,25.5Z"/><path class="cls-1" d="M164.18,15.37V9.29h5.88v6.08h5.39v4.74h-5.39v8.15c0,2.14,1.26,2.87,2.59,2.87a8.09,8.09,0,0,0,3.45-.85v5a12.67,12.67,0,0,1-5.15.93c-3.2,0-6.32-1.5-6.77-5.76,0-.64-.12-1.33-.12-2.06V20.11h-2.8V15.37Z"/><path class="cls-1" d="M200.21,25.5a10.8,10.8,0,0,1-21.6,0,10.8,10.8,0,0,1,21.6,0Zm-5.71,0c0-3.36-2.23-5.59-5.11-5.59s-5.07,2.23-5.07,5.59,2.19,5.59,5.07,5.59S194.5,28.86,194.5,25.5Z"/><path class="cls-2" d="M226.76,13.62a17.55,17.55,0,0,0-8.07-2A9.2,9.2,0,0,0,209.05,21a9.11,9.11,0,0,0,9.44,9.45,18.49,18.49,0,0,0,8.47-2v5.79a20,20,0,0,1-8.91,2A14.86,14.86,0,0,1,202.81,21c0-8.51,6.44-15.16,15.44-15.16a17.92,17.92,0,0,1,8.51,2Z"/><path class="cls-2" d="M251.08,25.5a10.81,10.81,0,0,1-21.61,0,10.81,10.81,0,0,1,21.61,0Zm-5.72,0c0-3.36-2.23-5.59-5.11-5.59s-5.06,2.23-5.06,5.59,2.19,5.59,5.06,5.59S245.36,28.86,245.36,25.5Z"/><path class="cls-2" d="M260.72,15.37l.16,2.31a4.32,4.32,0,0,1-.16,1.42h.08a7.1,7.1,0,0,1,5.76-4.1,6.64,6.64,0,0,1,2,0,5.82,5.82,0,0,1,5,3.89,8.29,8.29,0,0,1,6.77-4.05c4.5,0,7,2.76,7,8.15V35.63h-6.08V23.84c0-2-.69-3.53-2.63-3.53-3.45,0-4.34,3.16-4.34,6.45v8.87h-6V23.8c0-1.91-.57-3.49-2.59-3.49-3.41,0-4.38,3.12-4.38,6.45v8.87h-6.08V15.37Z"/><path class="cls-2" d="M292.58,15.37h5.51l.12,1.7a11,11,0,0,1-.08,1.38h.08c.94-2,3.61-3.65,6.57-3.65,5.23,0,9.44,4.05,9.44,10.7S310,36.2,304.94,36.2a7.54,7.54,0,0,1-6.36-3.12h-.08a9.2,9.2,0,0,1,.12,1.7v9.77h-6ZM308.51,25.5c0-3.32-2-5.59-4.83-5.59-2.43,0-4.86,1.86-4.86,5.59s2.43,5.59,4.86,5.59C306.48,31.09,308.51,28.86,308.51,25.5Z"/><path class="cls-2" d="M318.23,16.18a18.85,18.85,0,0,1,7.42-1.38c6.24,0,9.36,3,9.36,8.07V35.63h-5.47l-.12-1.86a6.18,6.18,0,0,1,.08-1.42h-.08a6.92,6.92,0,0,1-6.28,3.85c-3.49,0-6.45-2-6.45-6.16,0-4.95,5-7.38,12.33-6.36v-.49c0-2.43-1.67-3.32-4.34-3.32a13.14,13.14,0,0,0-6.45,1.74Zm10.62,10.66c-4.54-.73-6.44.69-6.44,2.59a2.09,2.09,0,0,0,2.31,2.15C327.07,31.58,328.85,29.43,328.85,26.84Z"/><path class="cls-2" d="M339.92,15.37h5.51l.12,2a11.25,11.25,0,0,0,0,1.34,7.07,7.07,0,0,1,6-3.89,5.54,5.54,0,0,1,1.3.12v5.92a3.35,3.35,0,0,0-1.34-.24c-3.08,0-5.59,2.71-5.59,6.4v8.63h-6Z"/><path class="cls-2" d="M374.53,24.28a23.38,23.38,0,0,1-.16,2.48h-13.3c.25,2.75,2.35,4.33,5.64,4.33a16.83,16.83,0,0,0,7-1.5v5.15a17.74,17.74,0,0,1-7.58,1.46c-7,0-11.35-4.5-11.35-10.7s4.5-10.7,10.3-10.7C371.33,14.8,374.53,19.26,374.53,24.28Zm-9.48-4.7c-2.44,0-3.81,1.87-4,4.06h7.66A3.6,3.6,0,0,0,365.05,19.58Z"/></g></g></svg>