<svg xmlns="http://www.w3.org/2000/svg" viewBox="0 0 252.4164 74.9259">
  <defs>
    <style>
      .cls-1 {
        fill: #282828;
      }

      .cls-1, .cls-2 {
        fill-rule: evenodd;
      }

      .cls-2 {
        fill: #3c7ad2;
      }
    </style>
  </defs>
  <title>Huobi-Futures-logo</title>
  <g id="Layer_2" data-name="Layer 2">
    <g id="Layer_1-2" data-name="Layer 1">
      <g id="Huobi-Futures-logo">
        <path id="Fill-3" class="cls-1" d="M93.1811,19.31V40.8181H71.9669V22.0762A2.7673,2.7673,0,0,0,69.2,19.31h-7.16v51.256a2.768,2.768,0,0,0,2.7674,2.7674h7.16V49.4937H93.1811V70.5656a2.7674,2.7674,0,0,0,2.7667,2.7674h7.1608V22.0762a2.7675,2.7675,0,0,0-2.7681-2.7666H93.1811"/>
        <path id="Fill-4" class="cls-1" d="M134.8236,32.0466v25.6a6.5545,6.5545,0,0,1-3.2,5.6946,7.4087,7.4087,0,0,1-11.4387-6.1588V34.8132a2.7671,2.7671,0,0,0-2.7674-2.7674H110.228V58.0945A15.2828,15.2828,0,0,0,125.4657,73.333h4.0759a15.283,15.283,0,0,0,15.2378-15.2392V34.8132a2.767,2.767,0,0,0-2.7667-2.7674h-7.1891v.0008"/>
        <path id="Fill-5" class="cls-2" d="M244.68,73.333H251.84V37.08a2.7677,2.7677,0,0,0-2.7681-2.7674h-7.1593v36.253A2.7674,2.7674,0,0,0,244.68,73.333"/>
        <path id="Fill-6" class="cls-2" d="M246.8765,30.3842a5.5406,5.5406,0,1,0-5.5406-5.5406,5.54,5.54,0,0,0,5.5406,5.5406"/>
        <path id="Fill-7" class="cls-1" d="M179.7158,56.191c0,4.9259-4.0294,8.2041-8.9546,8.2041s-8.9546-3.2782-8.9546-8.2041V49.1631c0-4.9259,4.03-8.2041,8.9546-8.2041s8.9546,3.2782,8.9546,8.2041Zm-8.9546-24.17h0c-10.4128,0-18.9329,7.4493-18.9329,17.862v5.6322c0,10.4135,8.52,17.8177,18.9329,17.8177s18.9336-7.4042,18.9336-17.8177V49.8831c0-10.4127-8.52-17.862-18.9336-17.862Z"/>
        <path id="Fill-8" class="cls-2" d="M224.778,56.191c0,4.9259-4.03,8.2041-8.9546,8.2041s-8.9553-3.2782-8.9553-8.2041V49.1631c0-4.9259,4.0294-8.2041,8.9553-8.2041s8.9546,3.2782,8.9546,8.2041Zm-8.9546-24.17h0a20.39,20.39,0,0,0-9.0062,2.0452V22.0305a2.7676,2.7676,0,0,0-2.7681-2.7674H196.89V55.5153c0,10.4135,8.5194,17.8177,18.9336,17.8177s18.933-7.4042,18.933-17.8177V49.8831c0-10.4127-8.52-17.862-18.933-17.862Z"/>
        <path id="Fill-9" class="cls-1" d="M32.0871,23.06c0-10.7586-5.2406-20.01-9.2264-23.0227C22.844.0286,22.5556-.1341,22.58.296c.0008.0058-.005.008-.005.0131C22.2432,21.08,11.632,26.71,5.7979,34.2937c-13.4628,17.501-.9423,36.6882,11.807,40.2344,7.1346,1.9835-1.647-3.5113-2.7783-15.1178C13.4593,45.3808,32.0871,34.673,32.0871,23.06"/>
        <path id="Fill-10" class="cls-2" d="M38.2045,30.1307c-.0813-.0545-.1983-.093-.2782.04-.2187,2.6148-2.89,8.2078-6.2752,13.3437-11.4815,17.42-4.939,25.8176-1.2591,30.328,2.1353,2.6191,0,0,5.3394-2.6752A24.0742,24.0742,0,0,0,47.2333,52.5706a26.9412,26.9412,0,0,0-9.0288-22.44"/>
      </g>
    </g>
  </g>
</svg>
