<svg id="Layer_1" data-name="Layer 1" xmlns="http://www.w3.org/2000/svg" xmlns:xlink="http://www.w3.org/1999/xlink" viewBox="0 0 200 55"><defs><style>.cls-1{fill:none;}.cls-2{fill:url(#linear-gradient);}.cls-3{fill:url(#linear-gradient-2);}.cls-4{fill:url(#linear-gradient-3);}.cls-5{fill:#d5753e;}.cls-6{fill:url(#linear-gradient-4);}.cls-7{fill:url(#linear-gradient-5);}.cls-8{fill:#ebebb9;}.cls-9{fill:#d49445;}.cls-10{fill:#d57328;}.cls-11{fill:#9d512a;}.cls-12{fill:#542815;}.cls-13{fill:#fff;}.cls-14{clip-path:url(#clip-path);}.cls-15{fill:url(#linear-gradient-6);}.cls-16{fill:#2a4470;}</style><linearGradient id="linear-gradient" x1="2756.21" y1="24.66" x2="2756.78" y2="28.6" gradientTransform="matrix(-1, 0, 0, 1, 2769.18, 0)" gradientUnits="userSpaceOnUse"><stop offset="0" stop-color="#e9852f"/><stop offset="1" stop-color="#d57328"/></linearGradient><linearGradient id="linear-gradient-2" x1="2755.92" y1="35.46" x2="2756.77" y2="39.12" xlink:href="#linear-gradient"/><linearGradient id="linear-gradient-3" x1="2755.21" y1="11.28" x2="2757.19" y2="17.06" xlink:href="#linear-gradient"/><linearGradient id="linear-gradient-4" x1="1708.02" y1="-969.22" x2="1718.1" y2="-969.22" gradientTransform="translate(749.69 1871.77) rotate(-81.78)" gradientUnits="userSpaceOnUse"><stop offset="0" stop-color="#d49445"/><stop offset="1" stop-color="#ca6928"/></linearGradient><linearGradient id="linear-gradient-5" x1="2738.03" y1="15.43" x2="2744.61" y2="37.97" gradientTransform="matrix(-1, 0, 0, 1, 2769.18, 0)" gradientUnits="userSpaceOnUse"><stop offset="0" stop-color="#efcd5a"/><stop offset="1" stop-color="#f6921e"/></linearGradient><clipPath id="clip-path"><polygon class="cls-1" points="37.69 16.05 51.45 16.05 51.99 4.82 37.69 7.77 37.69 16.05"/></clipPath><linearGradient id="linear-gradient-6" x1="2013.62" y1="1145.82" x2="2023.7" y2="1145.82" gradientTransform="matrix(-0.14, -0.99, -0.99, 0.14, 1436.64, 1871.77)" xlink:href="#linear-gradient-4"/></defs><title>Coinzilla</title><path class="cls-2" d="M10.82,29.33a1.13,1.13,0,0,1,.46-1c-1-.12-1.83-.54-1.79-1.56s.81-1.43,1.79-1.59a1.21,1.21,0,0,1-.55-1.06c.09-2.14,4.65-.29,4.65-.29l0,1.66v.21l0,1.93v.24l0,1.63S11,31.47,10.82,29.33Z"/><path class="cls-3" d="M11.34,39.75a.78.78,0,0,1,.31-.7C11,39,10.41,38.68,10.43,38s.56-1,1.22-1.1a.8.8,0,0,1-.37-.72c.06-1.46,3.17-.19,3.17-.19l0,1.13v.14l0,1.32v1.27S11.44,41.21,11.34,39.75Z"/><path class="cls-4" d="M10,15.48a1.44,1.44,0,0,1,1-.92c-1.08-.65-1.76-1.51-1.2-2.62s1.64-1.19,2.81-.88a1.44,1.44,0,0,1-.07-1.45c1.18-2.35,5.32,2,5.32,2L17,13.48l-.1.23-1,2.17-.12.27L15.06,18S9,17.93,10,15.48Z"/><path class="cls-5" d="M18.09,51.72s-7.78,3.26-12,0l1.28-2.17,9.13,0c.1,0,2.26.43,2.26.43Z"/><path class="cls-6" d="M32.78,35.49c1.18.65,4.06,1.73,2.87,4.53a5.21,5.21,0,0,1-1.59,1.79c-1,.62-.11.92.46.86s7.39-1.5,4.2-7.22c-.58-1-3.2-3.35-5.56-2.94C30.61,33,32.18,35.15,32.78,35.49Z"/><path class="cls-7" d="M14.39,37l0,2.22S13.8,46.9,9.17,46.9c0,0-8,.83-9.17-10.68,0,0-.37,23.2,17.69,14.91L18.43,55l4.63-6,7.78.82,2.87,4.33.46-22.52s14.11,2,16.67,2.27c0,0,5-29.37-13.52-30.66C12.78.5,14.63,20.48,14.63,20.48l-.18,12Z"/><path class="cls-8" d="M21.23,26.26c.12-4.2.93-5.59,1.91-5.59s2,3.62,1.91,8.06Z"/><path class="cls-9" d="M31.3,19.88c0,.93,1.52,1.69,3.4,1.69s3.4-.76,3.4-1.69-1.53-1.69-3.4-1.69S31.3,18.94,31.3,19.88Z"/><path class="cls-9" d="M42,19.53c-.11.46.45,1,1.26,1.18s1.54,0,1.65-.49-.45-1-1.26-1.18S42.06,19.07,42,19.53Z"/><path class="cls-9" d="M28,21.18c-.08.33.33.71.91.85s1.12,0,1.2-.36-.33-.71-.91-.85S28.06,20.84,28,21.18Z"/><path class="cls-9" d="M34.73,22.88c-.07.33.33.71.9.84s1.1,0,1.18-.35-.32-.7-.89-.84S34.81,22.55,34.73,22.88Z"/><path class="cls-10" d="M25.51,35.48s-.78,2.51-2,3.2c.86,1.1,2.37,2.23,4-.22a7.27,7.27,0,0,1-1.76-2.86s2.6,5.55,5.37-.12c0,0-1.41,4.54-3.47,3.09-.76,1.62-2.35,3.87-4.3.19-.88.37-2-.21-3.18-3.16C20.14,35.6,22.74,41.15,25.51,35.48Z"/><path class="cls-5" d="M36,8.87a5.32,5.32,0,0,0-7.42-4.71,5.58,5.58,0,0,0-3.29,4.75,5,5,0,0,0,2.39,4.46,5.69,5.69,0,0,0,7.9-2.48A5,5,0,0,0,36,8.87Z"/><path class="cls-8" d="M35.69,8.31a5,5,0,0,0-7-4.47,5.33,5.33,0,0,0-3.12,4.51,4.65,4.65,0,0,0,2.27,4.22,5.39,5.39,0,0,0,7.48-2.35A4.7,4.7,0,0,0,35.69,8.31Z"/><path class="cls-11" d="M28.47,9.32a2,2,0,1,0,2-2A2,2,0,0,0,28.47,9.32Z"/><path class="cls-12" d="M29.18,9a1.27,1.27,0,1,0,1.27-1.27A1.27,1.27,0,0,0,29.18,9Z"/><path class="cls-13" d="M28.6,7.58a.93.93,0,1,0,.93-.92A.93.93,0,0,0,28.6,7.58Z"/><path class="cls-9" d="M29.51,15.3A9.1,9.1,0,0,0,35.57,13a7.55,7.55,0,0,1-12.12,0A9.09,9.09,0,0,0,29.51,15.3Z"/><path class="cls-9" d="M30.28,14.37a7.44,7.44,0,0,0,4.9-2,6.2,6.2,0,0,1-9.92.31A7.42,7.42,0,0,0,30.28,14.37Z"/><path class="cls-5" d="M30.69,31a71.31,71.31,0,0,0,7.73,1.7c2.4.4,4.57.65,6.4.83,3.65.36,5.92.4,5.92.4s-2.25-.26-5.87-.83c-1.8-.29-3.95-.65-6.31-1.13s-5-1.05-7.62-1.81a40.63,40.63,0,0,1-7.28-2.74,15.31,15.31,0,0,1-2.81-1.83A7.16,7.16,0,0,1,19,23.37a4.71,4.71,0,0,1-.51-2.29v-.26c0-.08,0-.16,0-.24a3.11,3.11,0,0,1,.07-.47c0-.15.07-.29.1-.43s.09-.26.13-.38a8.19,8.19,0,0,1,.46-1.07c.12-.24.19-.36.19-.36l-.22.34a7.46,7.46,0,0,0-.56,1c0,.12-.1.25-.16.38s-.09.28-.13.43a2.41,2.41,0,0,0-.12.48,2,2,0,0,0,0,.26l0,.27a5,5,0,0,0,.4,2.49A7.41,7.41,0,0,0,20.45,26a15.07,15.07,0,0,0,2.86,2A35.27,35.27,0,0,0,30.69,31Z"/><g class="cls-14"><path class="cls-5" d="M38,8.94a5,5,0,0,0,7,4.46,5.28,5.28,0,0,0,3.12-4.5,5.35,5.35,0,0,0-2.27-4.23A5.4,5.4,0,0,0,38.4,7,5.11,5.11,0,0,0,38,8.94Z"/><path class="cls-8" d="M38.15,8.37A4.9,4.9,0,0,0,45,12.71a5.14,5.14,0,0,0,3-4.38,5.17,5.17,0,0,0-2.21-4.1,5.24,5.24,0,0,0-7.27,2.28A4.62,4.62,0,0,0,38.15,8.37Z"/><ellipse class="cls-11" cx="43.33" cy="9.32" rx="1.98" ry="1.97"/><path class="cls-12" d="M42.06,9a1.28,1.28,0,1,0,1.27-1.27A1.27,1.27,0,0,0,42.06,9Z"/><path class="cls-9" d="M44.08,15.05a8,8,0,0,0,5.5-1.45A6.63,6.63,0,0,1,39,12.48,8,8,0,0,0,44.08,15.05Z"/><path class="cls-13" d="M41.41,7.58a.94.94,0,1,0,.93-.92A.93.93,0,0,0,41.41,7.58Z"/><path class="cls-9" d="M44.54,14.12a6.58,6.58,0,0,0,4.13-2.27,5.51,5.51,0,0,1-8.74,1.24A6.66,6.66,0,0,0,44.54,14.12Z"/></g><path class="cls-9" d="M48,2.18c-1.23,2.24-3.87,6-9.93,5.17C38.19,7.38,45.2,5.67,48,2.18Z"/><path class="cls-9" d="M35.57,3c-1.7-.82-8.55-4.13-11.33.45,0,.08.38-2.38,3.68-3.22A7.24,7.24,0,0,1,35.57,3Z"/><path class="cls-15" d="M16.59,35.49c-1.18.65-4.06,1.73-2.87,4.53a5.25,5.25,0,0,0,1.58,1.79c1,.62.12.92-.45.86s-7.4-1.5-4.2-7.22c.58-1,3.2-3.35,5.56-2.94C18.76,33,17.19,35.15,16.59,35.49Z"/><path class="cls-16" d="M61.76,31.77a10.27,10.27,0,0,1,.64-3.65,8.65,8.65,0,0,1,1.83-3,8.78,8.78,0,0,1,2.91-2,9.84,9.84,0,0,1,3.91-.74,12.67,12.67,0,0,1,2.63.26,12.84,12.84,0,0,1,2.33.73l-1.07,4a13.91,13.91,0,0,0-1.57-.48,8.06,8.06,0,0,0-1.92-.21,4.06,4.06,0,0,0-3.37,1.4A5.7,5.7,0,0,0,67,31.78a5.94,5.94,0,0,0,1,3.74,4.37,4.37,0,0,0,3.64,1.33,13,13,0,0,0,2-.16,8.7,8.7,0,0,0,2-.55l.71,4.16a12.57,12.57,0,0,1-2.22.64,14.86,14.86,0,0,1-2.94.27,11.11,11.11,0,0,1-4.25-.74,8,8,0,0,1-2.92-2,7.83,7.83,0,0,1-1.68-3A12.74,12.74,0,0,1,61.76,31.77Z"/><path class="cls-16" d="M96.57,31.78A11.57,11.57,0,0,1,96,35.64a8.37,8.37,0,0,1-1.79,3,7.82,7.82,0,0,1-2.79,1.92,9.42,9.42,0,0,1-3.65.68,9.1,9.1,0,0,1-3.6-.69,7.82,7.82,0,0,1-2.79-1.92,8.69,8.69,0,0,1-1.81-3,11.09,11.09,0,0,1-.65-3.86,10.76,10.76,0,0,1,.67-3.85A8.73,8.73,0,0,1,81.4,25a8.3,8.3,0,0,1,2.8-1.91,9.73,9.73,0,0,1,7.12,0A8.06,8.06,0,0,1,94.11,25a8.61,8.61,0,0,1,1.81,3A11,11,0,0,1,96.57,31.78Zm-5.21,0a6.34,6.34,0,0,0-.93-3.69,3.1,3.1,0,0,0-2.69-1.35A3.14,3.14,0,0,0,85,28.07a6.34,6.34,0,0,0-1,3.69,6.42,6.42,0,0,0,1,3.73,3.1,3.1,0,0,0,2.7,1.38,3.06,3.06,0,0,0,2.69-1.37A6.5,6.5,0,0,0,91.36,31.77Z"/><path class="cls-16" d="M107,17.71a2.81,2.81,0,0,1-.91,2.19,3.17,3.17,0,0,1-2.15.8,3.08,3.08,0,0,1-2.13-.81,2.75,2.75,0,0,1-.91-2.19,2.78,2.78,0,0,1,.91-2.19,3.26,3.26,0,0,1,4.28,0A2.8,2.8,0,0,1,107,17.71Zm-.51,23.06h-5.1l0-17.9h5.1Z"/><path class="cls-16" d="M112.12,23.5a28.89,28.89,0,0,1,3.35-.7,28.45,28.45,0,0,1,4.31-.32,10.72,10.72,0,0,1,3.82.61A5.72,5.72,0,0,1,126,24.77a6.6,6.6,0,0,1,1.26,2.59,13.73,13.73,0,0,1,.38,3.33l0,10.11h-5.1l0-9.49a6.84,6.84,0,0,0-.65-3.47,2.65,2.65,0,0,0-2.43-1c-.36,0-.75,0-1.16.05s-.78.07-1.1.11l0,13.82h-5.1Z"/><path class="cls-16" d="M146.65,26.33c-.42.45-1,1.06-1.67,1.83s-1.45,1.62-2.25,2.55-1.61,1.91-2.42,2.93-1.55,2-2.22,3h8.71v4.22l-14.89,0v-3c.49-.82,1.06-1.69,1.74-2.63s1.38-1.89,2.12-2.84,1.48-1.88,2.21-2.77,1.41-1.71,2-2.43h-7.67V22.91l14.31,0Z"/><path class="cls-16" d="M156.69,17.77a2.81,2.81,0,0,1-.91,2.19,3.16,3.16,0,0,1-2.14.8A3.09,3.09,0,0,1,151.5,20a2.75,2.75,0,0,1-.91-2.19,2.78,2.78,0,0,1,.91-2.19,3.26,3.26,0,0,1,4.28,0A2.8,2.8,0,0,1,156.69,17.77Zm-.51,23.06h-5.1l0-17.9h5.1Z"/><path class="cls-16" d="M169,41.19a12.92,12.92,0,0,1-3.61-.48,5.4,5.4,0,0,1-2.19-1.25,4.11,4.11,0,0,1-1.09-1.94,10.54,10.54,0,0,1-.29-2.56l0-19.71,5.1-.81,0,19.5a7.65,7.65,0,0,0,.1,1.23,2,2,0,0,0,.4.91,2.08,2.08,0,0,0,.83.62,4.77,4.77,0,0,0,1.48.31Z"/><path class="cls-16" d="M180.68,41.2a12.56,12.56,0,0,1-3.61-.48,5.38,5.38,0,0,1-2.19-1.24,4.11,4.11,0,0,1-1.09-1.94A10.63,10.63,0,0,1,173.5,35l0-19.7,5.1-.81,0,19.49a7.46,7.46,0,0,0,.1,1.23,2.08,2.08,0,0,0,.4.92,2,2,0,0,0,.84.61,4.63,4.63,0,0,0,1.47.31Z"/><path class="cls-16" d="M192.17,22.5a12.19,12.19,0,0,1,3.77.52,6,6,0,0,1,2.41,1.46,5.44,5.44,0,0,1,1.28,2.32,11.43,11.43,0,0,1,.37,3V40.38c-.73.15-1.75.34-3.05.55a28.9,28.9,0,0,1-4.72.32,14.69,14.69,0,0,1-3.17-.31,6.65,6.65,0,0,1-2.44-1A4.57,4.57,0,0,1,185,38.11a6.33,6.33,0,0,1-.54-2.75,5.14,5.14,0,0,1,.64-2.66A4.83,4.83,0,0,1,186.82,31a7.68,7.68,0,0,1,2.43-.93,14,14,0,0,1,2.84-.29,15.45,15.45,0,0,1,1.77.09,8.51,8.51,0,0,1,1.25.22v-.48a2.77,2.77,0,0,0-.79-2.07,3.83,3.83,0,0,0-2.74-.79,16.78,16.78,0,0,0-2.56.19,11,11,0,0,0-2.19.52l-.65-4.08c.3-.09.67-.19,1.11-.29s.93-.19,1.46-.27,1.08-.15,1.66-.2A17.14,17.14,0,0,1,192.17,22.5Zm.39,14.84c.51,0,1,0,1.44,0s.82-.06,1.1-.1V33.36c-.2,0-.51-.09-.92-.14s-.79-.07-1.13-.07a9.56,9.56,0,0,0-1.35.09,3.34,3.34,0,0,0-1.12.32,1.83,1.83,0,0,0-.75.65,1.8,1.8,0,0,0-.28,1,1.74,1.74,0,0,0,.81,1.65A4.5,4.5,0,0,0,192.56,37.34Z"/></svg>