<svg xmlns="http://www.w3.org/2000/svg" viewBox="0 0 2467.63 972.33"><defs><style>.cls-1{fill:#b1dbff;}.cls-2{fill:#70beff;opacity:0.4;}.cls-3{fill:#ce6b28;}.cls-4{fill:#454d77;}.cls-5{fill:#f79959;}.cls-6{fill:#f08b3e;}.cls-7{fill:#e57e38;}.cls-8{fill:#8ac9ff;opacity:0.7;}</style></defs><title>Stats V3</title><g id="Layer_2" data-name="Layer 2"><g id="Layer_1-2" data-name="Layer 1"><path class="cls-1" d="M2467.63,971.16s-383.35,1.17-428.26-59.25c-21.27-27.29-32.58-57.94-32.58-57.94l-7.34-15.44c-.17-.33-.32-.66-.48-1,0,0,0,0,0,0l-.5-.94a4,4,0,0,0-.2-.35,34.86,34.86,0,0,0-16.54-15c-.28-.13-.58-.25-.88-.36a30.15,30.15,0,0,0-3.11-1.08,29.37,29.37,0,0,0-3.24-.79,36,36,0,0,0-17.44.86c-.86.25-1.74.54-2.58.87-1.11.44-2.22.92-3.31,1.44a36.14,36.14,0,0,0-6.07,3.81,36.81,36.81,0,0,0-10.64,12.87,11.64,11.64,0,0,0-.53,1.06s-8.71,15.85-10.49,20.22l-.42,1-5.32,13-5.15,10.8c-.53,1.11-1.06,2.2-1.62,3.28a.26.26,0,0,0,0,.08c-.55,1-1.1,2.1-1.69,3.15-.22.39-.43.79-.66,1.17a116.64,116.64,0,0,1-55.38,50.1c-1,.43-2,.85-3,1.24-3.45,1.34-6.9,2.55-10.39,3.58s-7.25,2-10.91,2.68a121.23,121.23,0,0,1-58.37-2.9c-2.83-.84-5.68-1.8-8.44-2.86l-.18-.07a213.56,213.56,0,0,1-23.05-11.66q-5.3-3.06-10.39-6.44c-1.84-1.22-3.66-2.46-5.46-3.74l-1.18-.84a167.27,167.27,0,0,1-46.36-50c-1.07-1.73-2.1-3.52-3.11-5.31l-57.59-102.48-13-27.32c-.28-.58-.56-1.16-.86-1.72a0,0,0,0,0,0,0c-.29-.57-.58-1.13-.89-1.67-.12-.2-.23-.42-.35-.62a61.58,61.58,0,0,0-29.25-26.47l-1.56-.65c-1.82-.71-3.64-1.34-5.49-1.88s-3.82-1-5.74-1.43a64.1,64.1,0,0,0-30.84,1.54c-1.52.45-3,1-4.55,1.54q-3,1.14-5.84,2.57a66,66,0,0,0-30.51,31.37s-4,7.31-8.39,15.53c-4.15,7.83-8.61,16.43-10.16,20.22l-.71,1.72-2.68,6.51-11.29,23.71c-.79,1.67-1.59,3.32-2.43,4.94a.47.47,0,0,0-.07.12c-.82,1.57-1.65,3.16-2.53,4.73q-.49.9-1,1.77c-18.93,33.47-48,60.38-83.51,75.55-1.45.63-3,1.26-4.45,1.84-5.19,2.05-10.4,3.87-15.67,5.41-5.46,1.62-10.92,3-16.43,4a182.46,182.46,0,0,1-77.17-1.47l-48.72-22.59a220.27,220.27,0,0,1-28.11-15.65,247.26,247.26,0,0,1-57-51.92A238.48,238.48,0,0,1,1080.59,755l-60.52-147.26-33.86-82.35-1.62-4c-7.28-17.74-42.52-81.92-42.52-81.92a151.48,151.48,0,0,0-69.89-71.86c-4.37-2.17-8.85-4.14-13.4-5.89-3.43-1.29-6.92-2.48-10.43-3.52a146.6,146.6,0,0,0-70.63-3.51c-4.42.86-8.8,1.93-13.19,3.24-4.22,1.24-8.4,2.7-12.57,4.34-1.19.48-2.4,1-3.58,1.49-28.49,12.17-51.82,33.77-67,60.62-.26.46-.53.94-.79,1.42-.71,1.26-1.37,2.52-2,3.81a.35.35,0,0,1,0,.08c-.67,1.31-1.32,2.63-2,4l-29.8,62.58-132,234.78c-2.31,4.11-4.68,8.19-7.13,12.2A383.89,383.89,0,0,1,401.43,857.79c-.91.63-1.8,1.27-2.71,1.92q-6.18,4.37-12.51,8.55a499,499,0,0,1-81.12,43.43,545.31,545.31,0,0,1-101,31.56q-24,5.09-48.78,8.2L0,971.16Z"/><path class="cls-2" d="M2048.84,971.16l-283.26,1.17-21.31,0h0l-465.58-1L257.23,970.11l-38.65,0-78.91.29,14.21-25.52,17.81-32c15.68-28.11,42.42-46.65,75.93-50.89,1.25-.14,2.52-.28,3.78-.4a137.42,137.42,0,0,1,27.57.22,168.81,168.81,0,0,1,44.62,11.31l2.29.92h0a203.91,203.91,0,0,1,21.38,10.37c23.84,9.48,48.52,13.78,72.19,11.53,1.27-.11,2.54-.25,3.79-.41,24.85-3.07,46-14,61.62-30.85L528,787.74h0v0L638,592.08a101.29,101.29,0,0,1,14.33-19.6c15.64-16.65,36.77-27.39,61.59-30.28,1.25-.14,2.52-.28,3.79-.39a140.36,140.36,0,0,1,30.54.83,169.28,169.28,0,0,1,31.91,7.63.21.21,0,0,0,.12,0c2.93,1,5.83,2.07,8.73,3.24,20.78,7.11,42,10.22,62.48,8.47,1.27-.11,2.53-.23,3.78-.39a102.89,102.89,0,0,0,37.36-11.5,95.34,95.34,0,0,0,24.27-18.62c.88-.94,1.73-1.87,2.56-2.86l1.88-3.28,53.14-93.68L1024.67,341l29.43-51.61a98,98,0,0,1,11.76-16.49c15.86-18.05,37.94-29.54,64.17-32.32l3.77-.34a138.86,138.86,0,0,1,25.11.43c19.35,2.07,38.93,8,57.82,17.07q2.19,1,4.4,2.17,7.66,3.91,15.13,8.49,3.73,1.68,7.53,3.14c3.24,1.24,6.54,2.36,9.85,3.35a138.66,138.66,0,0,0,66.72,3.31c4.18-.81,8.32-1.83,12.46-3.06q6-1.77,11.88-4.1c1.12-.45,2.26-.92,3.37-1.41a128.34,128.34,0,0,0,30.09-18.08c7-7.44,14.52-15.38,22.66-23.22a.19.19,0,0,0,.06-.07c13.52-13,28.75-25.83,46.06-35.79a1.19,1.19,0,0,0,.22-.12,145.81,145.81,0,0,1,35.34-14.76c1.72-.47,3.45-.87,5.19-1.26l2.91-.6.4-.06c.85-.17,1.71-.33,2.57-.48,1.23-.21,2.45-.41,3.68-.6s2.22-.31,3.33-.45c2.74-.31,5.5-.55,8.32-.69,3.11-.15,6.22-.25,9.3-.29a.34.34,0,0,1,.2,0c3.5,0,7,.2,10.47.48l3.1.3a140.62,140.62,0,0,1,25.35,5.11c3.31,1,6.61,2.11,9.84,3.34q3.81,1.46,7.54,3.14c1.73.77,3.43,1.57,5.12,2.41a139.93,139.93,0,0,1,14.41,8.25c3,2,6,4.07,8.88,6.29a142.34,142.34,0,0,1,42.73,53.34S1784.58,679.56,2048.84,971.16Z"/><rect class="cls-3" x="1027.44" y="68.39" width="22.06" height="13.24"/><path class="cls-4" d="M1076,2.21v128a2.21,2.21,0,0,0,4.42,0V2.21a2.21,2.21,0,0,0-4.42,0Z"/><rect class="cls-5" x="1027.44" y="8.82" width="48.53" height="63.98"/><path class="cls-6" d="M959.05,19.85l24.27,35.3-24.27,35.3h81.63a8.83,8.83,0,0,0,0-17.65h-13.24V19.85Z"/><path class="cls-7" d="M1040.68,72.8h-13.24V90.45h13.24a8.83,8.83,0,0,0,0-17.65Z"/><path class="cls-8" d="M1854.22,192.89c-13.23-25.37-26.34-42-45.23-56.47A150.72,150.72,0,0,0,1784.33,121c-4.36-2.17-8.85-4.14-13.4-5.87-3.42-1.31-6.91-2.5-10.42-3.55a147.13,147.13,0,0,0-54.45-5.75,144.49,144.49,0,0,0-16.19,2.25c-4.41.86-8.8,1.93-13.18,3.24-4.22,1.24-8.41,2.7-12.58,4.33-1.19.48-2.4,1-3.57,1.49-28.49,12.18-51.82,33.77-67,60.63-.27.46-.53.94-.8,1.42-.71,1.26-44.66,80.62-45.18,81.41A166.92,166.92,0,0,1,1472.47,325c-1.41.6-2.82,1.2-4.25,1.77-3.45,1.36-6.9,2.6-10.38,3.73-1.52.49-3,1-4.57,1.42-5.21,1.56-10.44,2.83-15.68,3.86a174.64,174.64,0,0,1-84-4.16q-6.28-1.87-12.41-4.23a170.32,170.32,0,0,1-15.92-7,179.7,179.7,0,0,1-82.37-83.78,23.06,23.06,0,0,1-1.22-3.15c-.12-.34-.17-.53-.17-.53a.54.54,0,0,0,0-.11,179.66,179.66,0,0,0-83.07-85.33,171.4,171.4,0,0,0-15.92-7q-6.14-2.35-12.41-4.24a175.7,175.7,0,0,0-49.72-7.43c-1.42,0-2.86,0-4.3.05a172.76,172.76,0,0,0-30,3.23c-5.25,1-10.47,2.3-15.69,3.86q-7.51,2.21-14.94,5.14c-1.44.58-2.84,1.18-4.25,1.77-33.89,14.48-61.63,40.16-79.7,72.09-.32.56-.63,1.13-.94,1.71-.85,1.48-1.64,3-2.42,4.51,0,0-.05.07-.05.1-.81,1.56-1.59,3.15-2.33,4.73l-12.08,25.37c-.28.59-.58,1.16-.91,1.72-2,3.39-3.89,6.88-5.64,10.47L849,382.57l-10.05,20.55L784,515.78v0L733.38,619.63c-.21.43-.43.86-.68,1.29L674.91,723.53C658.33,753,630,772.38,594.55,776.7c-1.34.14-2.67.28-4,.39a149.42,149.42,0,0,1-39.77-1.83h0a183.84,183.84,0,0,1-37.77-11,22.73,22.73,0,0,1-2.93-1.44,218.63,218.63,0,0,0-24.57-12.14,194.85,194.85,0,0,0-27.25-9.09,154.14,154.14,0,0,0-51.81-4.36c-1.34.11-2.68.26-4,.43C366.94,742,338.63,761.51,322,791.16l-34.9,62.46L255.67,910l-12.41,22.27a24.24,24.24,0,0,0,20.87,36l1081.35,1.19,182.12,1.18h309.09c.56,0,1.13,0,1.67-.07h0c12.61-.86,553.52.53,553.52.53-118-25.32-152.82-71.52-185.51-106.69C1943.31,581.39,1914,327.41,1854.22,192.89Z"/></g></g></svg>