<svg xmlns="http://www.w3.org/2000/svg" xmlns:xlink="http://www.w3.org/1999/xlink" viewBox="0 0 243.26 39.99"><defs><style>.cls-1{fill:none;}.cls-2{fill:url(#linear-gradient);}.cls-3{fill:url(#linear-gradient-2);}.cls-4{fill:url(#linear-gradient-3);}.cls-5{fill:#d6753e;}.cls-6{fill:url(#linear-gradient-4);}.cls-7{fill:url(#linear-gradient-5);}.cls-8{fill:#ededbb;}.cls-9{fill:#d69547;}.cls-10{fill:#d6721e;}.cls-11{fill:#9e512b;}.cls-12{fill:#542713;}.cls-13{fill:#fff;}.cls-14{clip-path:url(#clip-path);}.cls-15{fill:url(#linear-gradient-6);}.cls-16{fill:#2a436f;}</style><linearGradient id="linear-gradient" x1="-8059.25" y1="17.97" x2="-8058.84" y2="20.83" gradientTransform="matrix(-1, 0, 0, 1, -8049.9, 0)" gradientUnits="userSpaceOnUse"><stop offset="0" stop-color="#ea8632"/><stop offset="1" stop-color="#d6721e"/></linearGradient><linearGradient id="linear-gradient-2" x1="-8059.46" y1="25.81" x2="-8058.85" y2="28.47" xlink:href="#linear-gradient"/><linearGradient id="linear-gradient-3" x1="-8059.97" y1="8.27" x2="-8058.54" y2="12.45" xlink:href="#linear-gradient"/><linearGradient id="linear-gradient-4" x1="-4187.4" y1="3274.26" x2="-4180.09" y2="3274.26" gradientTransform="translate(-2616.72 -4581.4) rotate(-81.78)" gradientUnits="userSpaceOnUse"><stop offset="0" stop-color="#d69547"/><stop offset="1" stop-color="#cc6806"/></linearGradient><linearGradient id="linear-gradient-5" x1="-8072.39" y1="11.28" x2="-8067.62" y2="27.63" gradientTransform="matrix(-1, 0, 0, 1, -8049.9, 0)" gradientUnits="userSpaceOnUse"><stop offset="0" stop-color="#f0cd59"/><stop offset="1" stop-color="#f7931a"/></linearGradient><clipPath id="clip-path"><polygon class="cls-1" points="27.19 11.72 37.12 11.72 37.51 3.58 27.19 5.72 27.19 11.72"/></clipPath><linearGradient id="linear-gradient-6" x1="-5427.03" y1="-5305.2" x2="-5419.72" y2="-5305.2" gradientTransform="matrix(-0.14, -0.99, -0.99, 0.14, -6016.03, -4581.4)" xlink:href="#linear-gradient-4"/></defs><title>Coinzilla Display</title><g id="Layer_2" data-name="Layer 2"><g id="Layer_2-2" data-name="Layer 2"><path class="cls-2" d="M7.8,21.36a.87.87,0,0,1,.33-.75c-.74-.08-1.31-.38-1.29-1.12s.59-1,1.3-1.16a.88.88,0,0,1-.4-.77c.06-1.56,3.36-.21,3.36-.21l0,1.21v.15l0,1.4v.17l0,1.18S7.91,22.91,7.8,21.36Z"/><path class="cls-3" d="M8.18,28.92a.56.56,0,0,1,.23-.51c-.51-.06-.9-.26-.88-.77s.4-.71.88-.79a.58.58,0,0,1-.27-.52c0-1.06,2.29-.14,2.29-.14v.92l0,1V29S8.25,30,8.18,28.92Z"/><path class="cls-4" d="M7.18,11.31a1,1,0,0,1,.74-.66c-.78-.47-1.27-1.1-.86-1.91s1.18-.86,2-.64a1,1,0,0,1-.05-1c.85-1.7,3.84,1.46,3.84,1.46l-.59,1.35-.07.17-.69,1.57-.08.2-.58,1.32S6.51,13.09,7.18,11.31Z"/><path class="cls-5" d="M13.05,37.61S7.44,40,4.42,37.6L5.35,36l6.58,0c.07,0,1.63.31,1.63.31Z"/><path class="cls-6" d="M23.65,25.83c.84.48,2.92,1.26,2.07,3.29a4,4,0,0,1-1.15,1.3c-.7.45-.08.67.33.62s5.33-1.09,3-5.24c-.42-.75-2.31-2.43-4-2.13S23.21,25.59,23.65,25.83Z"/><path class="cls-7" d="M10.38,26.89l0,1.61s-.4,5.61-3.74,5.61c0,0-5.74.6-6.61-7.75,0,0-.27,16.84,12.76,10.82L13.29,40l3.34-4.34,5.61.6,2.08,3.14.33-16.34s10.18,1.44,12,1.64c0,0,3.61-21.31-9.75-22.24C9.22.44,10.55,14.94,10.55,14.94l-.12,8.7Z"/><path class="cls-8" d="M15.31,19.14c.09-3.05.67-4.06,1.38-4.06s1.44,2.63,1.38,5.85Z"/><path class="cls-9" d="M22.58,14.5c0,.68,1.1,1.23,2.45,1.23s2.45-.55,2.45-1.23-1.1-1.22-2.45-1.22S22.58,13.83,22.58,14.5Z"/><path class="cls-9" d="M30.26,14.25c-.08.34.33.72.91.86s1.11,0,1.19-.36S32,14,31.45,13.9,30.34,13.92,30.26,14.25Z"/><path class="cls-9" d="M20.18,15.45c-.05.24.24.51.66.61s.81,0,.86-.25-.23-.52-.65-.62S20.24,15.21,20.18,15.45Z"/><path class="cls-9" d="M25.06,16.68c-.06.24.23.51.64.61s.8,0,.86-.25-.24-.51-.65-.61S25.11,16.44,25.06,16.68Z"/><path class="cls-10" d="M18.4,25.82s-.56,1.83-1.46,2.33c.62.8,1.7,1.61,2.88-.16a5.38,5.38,0,0,1-1.26-2.07s1.87,4,3.87-.1c0,0-1,3.3-2.5,2.25-.55,1.17-1.7,2.81-3.11.14-.63.26-1.42-.16-2.29-2.29C14.53,25.92,16.4,29.94,18.4,25.82Z"/><path class="cls-5" d="M26,6.52a3.85,3.85,0,0,0-5.36-3.43,4.07,4.07,0,0,0-2.37,3.46A3.63,3.63,0,0,0,20,9.78,4.1,4.1,0,0,0,25.65,8,3.74,3.74,0,0,0,26,6.52Z"/><path class="cls-8" d="M25.74,6.11a3.64,3.64,0,0,0-5.07-3.24,3.82,3.82,0,0,0-2.24,3.27A3.38,3.38,0,0,0,20.06,9.2a3.88,3.88,0,0,0,5.4-1.7A3.59,3.59,0,0,0,25.74,6.11Z"/><path class="cls-11" d="M20.54,6.84A1.43,1.43,0,1,0,22,5.41,1.43,1.43,0,0,0,20.54,6.84Z"/><path class="cls-12" d="M21.05,6.64A.92.92,0,1,0,22,5.72.92.92,0,0,0,21.05,6.64Z"/><path class="cls-13" d="M20.63,5.58a.67.67,0,1,0,1.34,0,.67.67,0,0,0-1.34,0Z"/><path class="cls-9" d="M21.28,11.18a6.54,6.54,0,0,0,4.38-1.66,5.43,5.43,0,0,1-8.74,0A6.51,6.51,0,0,0,21.28,11.18Z"/><path class="cls-9" d="M21.84,10.51A5.35,5.35,0,0,0,25.38,9a4.45,4.45,0,0,1-7.16.23A5.37,5.37,0,0,0,21.84,10.51Z"/><path class="cls-5" d="M22.14,22.56a50.29,50.29,0,0,0,5.58,1.23c1.73.29,3.29.48,4.61.61,2.64.26,4.27.29,4.27.29s-1.62-.19-4.23-.6c-1.3-.21-2.85-.48-4.56-.82S24.24,22.5,22.32,22a28.44,28.44,0,0,1-5.25-2,11.28,11.28,0,0,1-2-1.32A5.26,5.26,0,0,1,13.72,17a3.49,3.49,0,0,1-.37-1.66v-.19a1.1,1.1,0,0,1,0-.18,1.86,1.86,0,0,1,0-.34c0-.11.05-.21.08-.31s.06-.19.09-.27a5.49,5.49,0,0,1,.33-.78l.14-.27-.16.26a5.6,5.6,0,0,0-.41.75c0,.09-.07.18-.11.27s-.06.21-.1.31a2,2,0,0,0-.08.35c0,.06,0,.13,0,.19s0,.13,0,.2a3.62,3.62,0,0,0,.29,1.8A5.46,5.46,0,0,0,14.75,19a11,11,0,0,0,2.06,1.47A24.7,24.7,0,0,0,22.14,22.56Z"/><g class="cls-14"><path class="cls-5" d="M27.41,6.56A3.64,3.64,0,0,0,32.49,9.8a3.81,3.81,0,0,0,2.24-3.26A3.89,3.89,0,0,0,33.1,3.47a3.88,3.88,0,0,0-5.4,1.7A3.79,3.79,0,0,0,27.41,6.56Z"/><path class="cls-8" d="M27.52,6.15A3.53,3.53,0,0,0,32.45,9.3a3.71,3.71,0,0,0,2.18-3.17,3.78,3.78,0,0,0-1.59-3A3.76,3.76,0,0,0,27.8,4.8,3.43,3.43,0,0,0,27.52,6.15Z"/><circle class="cls-11" cx="31.26" cy="6.84" r="1.43"/><path class="cls-12" d="M30.34,6.64a.92.92,0,1,0,.92-.92A.92.92,0,0,0,30.34,6.64Z"/><path class="cls-9" d="M31.8,11a5.76,5.76,0,0,0,4-1.05,4.78,4.78,0,0,1-7.64-.81A5.79,5.79,0,0,0,31.8,11Z"/><path class="cls-13" d="M29.87,5.58a.69.69,0,0,0,.68.68.68.68,0,0,0,.67-.68.67.67,0,0,0-.67-.67A.68.68,0,0,0,29.87,5.58Z"/><path class="cls-9" d="M32.13,10.33a4.78,4.78,0,0,0,3-1.65,4,4,0,0,1-6.31.9A4.85,4.85,0,0,0,32.13,10.33Z"/></g><path class="cls-9" d="M34.65,1.66a6.6,6.6,0,0,1-7.17,3.75C27.55,5.44,32.61,4.19,34.65,1.66Z"/><path class="cls-9" d="M25.66,2.26c-1.23-.6-6.17-3-8.17.32A3.32,3.32,0,0,1,20.14.25,5.2,5.2,0,0,1,25.66,2.26Z"/><path class="cls-15" d="M12,25.83c-.84.48-2.92,1.26-2.06,3.29A3.87,3.87,0,0,0,11,30.42c.7.45.08.67-.33.62S5.38,30,7.68,25.8c.42-.75,2.31-2.43,4-2.13S12.4,25.59,12,25.83Z"/><path class="cls-16" d="M44.63,23.2a7.55,7.55,0,0,1,.46-2.66,6.55,6.55,0,0,1,1.32-2.17,6.29,6.29,0,0,1,2.1-1.46,6.7,6.7,0,0,1,2.82-.54,9.36,9.36,0,0,1,1.9.18,8.9,8.9,0,0,1,1.68.54L54.14,20A8.09,8.09,0,0,0,53,19.68a5.83,5.83,0,0,0-1.38-.15,2.92,2.92,0,0,0-2.43,1,4.17,4.17,0,0,0-.81,2.67,4.36,4.36,0,0,0,.75,2.72,3.16,3.16,0,0,0,2.63,1,9.29,9.29,0,0,0,1.43-.12,6.08,6.08,0,0,0,1.41-.39l.52,3a8.73,8.73,0,0,1-1.61.47,10.71,10.71,0,0,1-2.12.19,8,8,0,0,1-3.06-.53,5.79,5.79,0,0,1-2.11-1.45A5.6,5.6,0,0,1,45,25.9,9,9,0,0,1,44.63,23.2Z"/><path class="cls-16" d="M69.74,23.2a8.31,8.31,0,0,1-.45,2.8A6,6,0,0,1,68,28.17a5.6,5.6,0,0,1-2,1.4,6.7,6.7,0,0,1-2.63.49,6.62,6.62,0,0,1-2.6-.5,5.82,5.82,0,0,1-2-1.4A6.3,6.3,0,0,1,57.44,26a7.87,7.87,0,0,1-.46-2.8,7.78,7.78,0,0,1,.48-2.79,6.27,6.27,0,0,1,1.34-2.15,6,6,0,0,1,2-1.38,6.92,6.92,0,0,1,5.14,0,5.91,5.91,0,0,1,2,1.38,6.28,6.28,0,0,1,1.3,2.15A8,8,0,0,1,69.74,23.2ZM66,23.2a4.64,4.64,0,0,0-.68-2.68,2.43,2.43,0,0,0-3.89,0,4.56,4.56,0,0,0-.69,2.68,4.63,4.63,0,0,0,.69,2.71,2.23,2.23,0,0,0,1.95,1,2.19,2.19,0,0,0,1.93-1A4.7,4.7,0,0,0,66,23.2Z"/><path class="cls-16" d="M77.23,13a2,2,0,0,1-.65,1.59,2.26,2.26,0,0,1-1.55.58,2.29,2.29,0,0,1-1.54-.58,2.05,2.05,0,0,1-.65-1.6,2,2,0,0,1,.66-1.59,2.32,2.32,0,0,1,3.08,0A2,2,0,0,1,77.23,13Zm-.36,16.74H73.19v-13h3.68Z"/><path class="cls-16" d="M81,17.19a21.53,21.53,0,0,1,5.53-.73,7.52,7.52,0,0,1,2.75.43A4.16,4.16,0,0,1,91,18.12,4.67,4.67,0,0,1,91.89,20a10.13,10.13,0,0,1,.27,2.42v7.34H88.47V22.85A4.92,4.92,0,0,0,88,20.33a1.91,1.91,0,0,0-1.75-.74,8.39,8.39,0,0,0-.84,0l-.79.08v10H80.94Z"/><path class="cls-16" d="M105.86,19.25l-1.2,1.33c-.5.56-1,1.17-1.62,1.85s-1.16,1.38-1.75,2.12S100.17,26,99.7,26.7H106v3.06H95.24V27.58a22.74,22.74,0,0,1,1.25-1.91c.48-.69,1-1.37,1.53-2.06s1.07-1.36,1.6-2,1-1.24,1.46-1.77H95.54V16.76l10.32,0Z"/><path class="cls-16" d="M113.11,13a2,2,0,0,1-.66,1.59,2.24,2.24,0,0,1-1.54.58,2.2,2.2,0,0,1-1.54-.58,2,2,0,0,1-.66-1.59,2,2,0,0,1,.66-1.59,2.33,2.33,0,0,1,3.08,0A2,2,0,0,1,113.11,13Zm-.37,16.74h-3.68l0-13h3.68Z"/><path class="cls-16" d="M122,30a9,9,0,0,1-2.6-.35,3.82,3.82,0,0,1-1.58-.9,3,3,0,0,1-.79-1.41,7.55,7.55,0,0,1-.21-1.86l0-14.3,3.68-.59,0,14.15a4.87,4.87,0,0,0,.07.89,1.53,1.53,0,0,0,.29.66,1.4,1.4,0,0,0,.6.45,3.12,3.12,0,0,0,1.06.22Z"/><path class="cls-16" d="M130.42,30a9.14,9.14,0,0,1-2.61-.35,3.74,3.74,0,0,1-1.57-.9,3,3,0,0,1-.79-1.41,7.55,7.55,0,0,1-.21-1.86l0-14.3,3.68-.59,0,14.15a4.8,4.8,0,0,0,.07.89,1.52,1.52,0,0,0,.28.66,1.43,1.43,0,0,0,.61.45,3.12,3.12,0,0,0,1.06.22Z"/><path class="cls-16" d="M138.7,16.47a8.71,8.71,0,0,1,2.72.37,4.32,4.32,0,0,1,1.74,1.07,3.83,3.83,0,0,1,.92,1.68,8.34,8.34,0,0,1,.27,2.2v7.65c-.52.11-1.26.25-2.19.4a19.78,19.78,0,0,1-3.41.23,10.79,10.79,0,0,1-2.29-.22,4.91,4.91,0,0,1-1.76-.73,3.36,3.36,0,0,1-1.13-1.32,4.49,4.49,0,0,1-.4-2,3.85,3.85,0,0,1,.46-1.93,3.62,3.62,0,0,1,1.23-1.26,5.55,5.55,0,0,1,1.75-.67,9.83,9.83,0,0,1,2.05-.21,11.9,11.9,0,0,1,1.27.06,6.23,6.23,0,0,1,.9.16v-.34a2.07,2.07,0,0,0-.56-1.51,2.76,2.76,0,0,0-2-.57,12.7,12.7,0,0,0-1.85.14,6.91,6.91,0,0,0-1.58.38l-.47-3,.81-.21c.32-.07.67-.13,1.05-.19s.77-.11,1.19-.15S138.28,16.47,138.7,16.47ZM139,27.24c.36,0,.71,0,1,0a6.79,6.79,0,0,0,.79-.07V24.35a6.73,6.73,0,0,0-.67-.1c-.29,0-.57-.05-.81-.05a7.59,7.59,0,0,0-1,.06,2.68,2.68,0,0,0-.8.23A1.38,1.38,0,0,0,137,25a1.51,1.51,0,0,0,.38,1.94A3.18,3.18,0,0,0,139,27.24Z"/><path class="cls-16" d="M173.74,10.86l2.3-.39V29.26c-.53.14-1.21.29-2,.44a16,16,0,0,1-2.84.22,7.06,7.06,0,0,1-2.67-.47,5.6,5.6,0,0,1-2-1.33,6,6,0,0,1-1.3-2.11,8.22,8.22,0,0,1-.45-2.8,9,9,0,0,1,.38-2.72,6.05,6.05,0,0,1,1.12-2.12A5.18,5.18,0,0,1,168.05,17a5.76,5.76,0,0,1,2.45-.5,5.91,5.91,0,0,1,2,.3,5.79,5.79,0,0,1,1.27.57Zm0,8.64a4.58,4.58,0,0,0-1.21-.66,4.44,4.44,0,0,0-1.73-.32,3.8,3.8,0,0,0-1.69.35,3.15,3.15,0,0,0-1.15,1,4.08,4.08,0,0,0-.64,1.5,8.33,8.33,0,0,0-.2,1.85,5,5,0,0,0,1.11,3.47,3.83,3.83,0,0,0,3,1.22,11.31,11.31,0,0,0,1.56-.09,9.46,9.46,0,0,0,1-.18Z"/><path class="cls-16" d="M181.52,14.47a1.46,1.46,0,0,1-1.05-.41A1.43,1.43,0,0,1,180,13a1.43,1.43,0,0,1,.43-1.1,1.46,1.46,0,0,1,1.05-.41,1.49,1.49,0,0,1,1,.41,1.62,1.62,0,0,1,0,2.2A1.49,1.49,0,0,1,181.52,14.47Zm1.16,15.16h-2.3V16.79h2.3Z"/><path class="cls-16" d="M190,28a4.44,4.44,0,0,0,2.08-.37,1.23,1.23,0,0,0,.68-1.18,1.59,1.59,0,0,0-.66-1.34,10.66,10.66,0,0,0-2.2-1.11c-.49-.19-1-.4-1.42-.6a5.17,5.17,0,0,1-1.17-.73,3.11,3.11,0,0,1-.79-1,3.22,3.22,0,0,1-.3-1.46,3.25,3.25,0,0,1,1.26-2.7,5.35,5.35,0,0,1,3.43-1,10,10,0,0,1,1.09.06c.36,0,.7.09,1,.15l.83.18.55.17L194,19a5.64,5.64,0,0,0-1.16-.41,7.44,7.44,0,0,0-1.9-.21,3.47,3.47,0,0,0-1.68.39,1.26,1.26,0,0,0-.71,1.19,1.57,1.57,0,0,0,.65,1.32,3.79,3.79,0,0,0,.83.49c.33.14.72.3,1.18.46.61.24,1.16.46,1.63.68a5.33,5.33,0,0,1,1.22.78,3,3,0,0,1,.78,1.08,3.9,3.9,0,0,1,.27,1.54A3.07,3.07,0,0,1,193.77,29a6.55,6.55,0,0,1-3.76.91,9.83,9.83,0,0,1-2.67-.28c-.64-.19-1.08-.33-1.31-.43l.42-2,1.26.45A7.54,7.54,0,0,0,190,28Z"/><path class="cls-16" d="M209.74,23.23a8.88,8.88,0,0,1-.39,2.69,6.1,6.1,0,0,1-1.12,2.13,5.09,5.09,0,0,1-1.82,1.38,5.76,5.76,0,0,1-2.45.49,6.13,6.13,0,0,1-2-.29,6.44,6.44,0,0,1-1.28-.57v5.13h-2.29v-17c.54-.13,1.22-.27,2-.43a14.93,14.93,0,0,1,2.83-.23A7.06,7.06,0,0,1,206,17a5.6,5.6,0,0,1,2,1.33,6,6,0,0,1,1.3,2.11A8.22,8.22,0,0,1,209.74,23.23Zm-2.4,0a4.9,4.9,0,0,0-1.11-3.45,3.82,3.82,0,0,0-3-1.21,13.68,13.68,0,0,0-1.62.07,7.61,7.61,0,0,0-.93.17v8.1a5.06,5.06,0,0,0,1.21.67,4.67,4.67,0,0,0,1.73.32,3.67,3.67,0,0,0,1.69-.36,3.07,3.07,0,0,0,1.15-1,4.06,4.06,0,0,0,.64-1.48A7.69,7.69,0,0,0,207.34,23.23Z"/><path class="cls-16" d="M217.22,29.87a4.4,4.4,0,0,1-3-.91,3.62,3.62,0,0,1-.88-2.69V10.86l2.29-.39V25.9a3.56,3.56,0,0,0,.1.94,1.21,1.21,0,0,0,.91.92,5.45,5.45,0,0,0,.92.19Z"/><path class="cls-16" d="M224.65,16.47a6.85,6.85,0,0,1,2.33.35,3.75,3.75,0,0,1,1.53,1,3.81,3.81,0,0,1,.83,1.55,7.74,7.74,0,0,1,.25,2v8l-.83.14c-.35.06-.75.11-1.2.16s-.92.1-1.44.14-1,.06-1.55.06a8.94,8.94,0,0,1-2-.22A4.66,4.66,0,0,1,221,29a3.15,3.15,0,0,1-1-1.27,4.41,4.41,0,0,1-.37-1.9A3.64,3.64,0,0,1,220,24a3.45,3.45,0,0,1,1.17-1.23,5.59,5.59,0,0,1,1.73-.69,9.31,9.31,0,0,1,2.07-.23c.23,0,.47,0,.72,0l.7.1.58.11.35.08V21.5a5.33,5.33,0,0,0-.12-1.12,2.63,2.63,0,0,0-.45-1,2.25,2.25,0,0,0-.87-.69,3.52,3.52,0,0,0-1.45-.26,11.53,11.53,0,0,0-2,.16,6.87,6.87,0,0,0-1.27.34L220.92,17a7.77,7.77,0,0,1,1.48-.38A13.15,13.15,0,0,1,224.65,16.47Zm.2,11.5q.81,0,1.44,0a6.39,6.39,0,0,0,1.05-.14V24a3.17,3.17,0,0,0-.8-.21,10.2,10.2,0,0,0-1.35-.08,8.66,8.66,0,0,0-1.1.07,3.34,3.34,0,0,0-1.06.31,2.29,2.29,0,0,0-.8.64,1.65,1.65,0,0,0-.32,1.08,1.83,1.83,0,0,0,.79,1.71A4.1,4.1,0,0,0,224.85,28Z"/><path class="cls-16" d="M231.91,32a5.07,5.07,0,0,0,.7.24,3.61,3.61,0,0,0,.85.11,3.26,3.26,0,0,0,2.12-.61,5.09,5.09,0,0,0,1.39-2,68.59,68.59,0,0,1-2.9-6.28,54.17,54.17,0,0,1-2.24-6.73h2.47c.18.74.4,1.54.66,2.39s.54,1.74.85,2.64.65,1.82,1,2.72.74,1.78,1.14,2.62q.93-2.6,1.62-5.14c.47-1.69.9-3.44,1.31-5.23h2.37q-.88,3.63-2,7T238.94,30a14.11,14.11,0,0,1-1,1.92,6.33,6.33,0,0,1-1.17,1.32,4.28,4.28,0,0,1-1.45.76,6,6,0,0,1-1.81.25,3.82,3.82,0,0,1-.57,0,5.4,5.4,0,0,1-.58-.1l-.52-.13a1.47,1.47,0,0,1-.33-.13Z"/><rect class="cls-16" x="153.87" width="1.06" height="39.79"/></g></g></svg>