<?xml version="1.0" encoding="utf-8"?>
<!-- Generator: Adobe Illustrator 18.1.1, SVG Export Plug-In . SVG Version: 6.00 Build 0)  -->
<svg version="1.1" id="layer" xmlns="http://www.w3.org/2000/svg" xmlns:xlink="http://www.w3.org/1999/xlink" x="0px" y="0px"
	 viewBox="31.4 381.1 920.2 352.9" enable-background="new 31.4 381.1 920.2 352.9" xml:space="preserve">
<g>
	<rect x="580.2" y="624" fill="#DCDCE6" width="110" height="110"/>
	<rect x="580.2" y="624" fill="#00B67A" width="55" height="110"/>
	<path d="M273.3,461.2h93.1v17.3h-36.7v97.7h-20.1v-97.7h-36.5L273.3,461.2L273.3,461.2z M362.4,492.9h17.2V509h0.3
		c0.6-2.3,1.7-4.4,3.2-6.6c1.5-2.1,3.4-4.1,5.7-5.8c2.1-1.8,4.6-3.2,7.4-4.3c2.6-1.1,5.4-1.7,8.1-1.7c2.1,0,3.7,0.2,4.4,0.2
		c0.8,0.2,1.7,0.3,2.5,0.3v17.6c-1.2-0.3-2.6-0.5-4-0.6c-1.4-0.2-2.6-0.3-4-0.3c-3.1,0-6,0.6-8.7,1.8c-2.8,1.2-5.1,3.1-7.2,5.4
		c-2,2.5-3.7,5.4-4.9,8.9c-1.2,3.5-1.8,7.7-1.8,12.3v39.6h-18.4L362.4,492.9L362.4,492.9z M495.6,576.2h-18.1v-11.7h-0.3
		c-2.3,4.3-5.7,7.5-10.1,10.1c-4.4,2.6-9,3.8-13.7,3.8c-10.9,0-18.9-2.6-23.8-8.1c-4.9-5.4-7.4-13.7-7.4-24.5v-52.9h18.4V544
		c0,7.4,1.4,12.6,4.3,15.5c2.8,3.1,6.7,4.6,11.8,4.6c3.8,0,7.1-0.6,9.7-1.8c2.6-1.2,4.8-2.8,6.3-4.8c1.7-2,2.8-4.4,3.5-7.2
		c0.8-2.8,1.1-5.8,1.1-9v-48.3h18.4v83.3H495.6z M526.8,549.5c0.6,5.4,2.6,9,6.1,11.3c3.5,2.1,7.8,3.2,12.7,3.2
		c1.7,0,3.7-0.2,5.8-0.5c2.1-0.3,4.3-0.8,6.1-1.5c2-0.8,3.5-1.8,4.8-3.4c1.2-1.5,1.8-3.4,1.7-5.7s-0.9-4.3-2.6-5.8
		c-1.7-1.5-3.7-2.6-6.1-3.7c-2.5-0.9-5.4-1.7-8.6-2.3c-3.2-0.6-6.4-1.4-9.8-2.1c-3.4-0.8-6.7-1.7-10-2.8c-3.2-1.1-6-2.5-8.6-4.4
		c-2.5-1.8-4.6-4.1-6-7.1c-1.5-2.9-2.3-6.3-2.3-10.6c0-4.6,1.1-8.3,3.4-11.3c2.1-3.1,5.1-5.5,8.4-7.4c3.4-1.8,7.2-3.2,11.3-4
		c4.1-0.8,8.1-1.1,11.8-1.1c4.3,0,8.4,0.5,12.3,1.4c3.8,0.9,7.5,2.3,10.6,4.4c3.2,2,5.8,4.8,7.8,8c2.1,3.2,3.4,7.2,4,11.8h-19.2
		c-0.9-4.4-2.9-7.4-6-8.9c-3.2-1.5-6.7-2.3-10.9-2.3c-1.2,0-2.9,0.2-4.6,0.3c-1.8,0.3-3.4,0.6-5.1,1.2c-1.5,0.6-2.9,1.5-4,2.6
		c-1.1,1.1-1.7,2.6-1.7,4.4c0,2.3,0.8,4,2.3,5.4c1.5,1.4,3.5,2.5,6.1,3.5c2.5,0.9,5.4,1.7,8.6,2.3c3.2,0.6,6.6,1.4,10,2.1
		c3.4,0.8,6.6,1.7,9.8,2.8c3.2,1.1,6.1,2.5,8.6,4.4c2.5,1.8,4.6,4.1,6.1,6.9s2.3,6.3,2.3,10.3c0,4.9-1.1,9-3.4,12.6
		c-2.3,3.4-5.2,6.3-8.7,8.4c-3.5,2.1-7.7,3.7-12,4.8c-4.4,0.9-8.7,1.5-13,1.5c-5.2,0-10.1-0.6-14.6-1.8c-4.4-1.2-8.4-3.1-11.7-5.4
		c-3.2-2.5-5.8-5.4-7.7-9c-1.8-3.5-2.9-7.8-3.1-12.9h18.6v0.2H526.8z M587.4,492.9h14v-25.2h18.4v25h16.6v13.7h-16.6v44.5
		c0,2,0.2,3.5,0.3,5.1c0.2,1.4,0.6,2.6,1.1,3.5c0.6,0.9,1.5,1.7,2.6,2.1c1.2,0.5,2.8,0.8,4.9,0.8c1.2,0,2.6,0,3.8-0.2
		c1.2-0.2,2.6-0.3,3.8-0.6v14.3c-2,0.3-4,0.5-6,0.6c-2,0.3-3.8,0.3-6,0.3c-4.9,0-8.7-0.5-11.7-1.4c-2.9-0.9-5.2-2.3-6.9-4
		c-1.7-1.8-2.8-4-3.4-6.6c-0.6-2.6-0.9-5.8-1.1-9.2v-49.1h-14v-14h0V492.9z M649.2,492.9h17.3v11.3h0.3c2.6-4.9,6.1-8.3,10.7-10.4
		c4.6-2.1,9.5-3.2,15-3.2c6.6,0,12.3,1.1,17.2,3.5c4.9,2.3,8.9,5.4,12.1,9.5c3.2,4,5.7,8.7,7.2,14.1c1.5,5.4,2.5,11.2,2.5,17.2
		c0,5.7-0.8,11-2.1,16.3c-1.5,5.2-3.7,10-6.6,14s-6.6,7.2-11.2,9.7c-4.6,2.5-9.8,3.7-16,3.7c-2.6,0-5.4-0.3-8-0.8
		c-2.6-0.5-5.2-1.2-7.7-2.3c-2.5-1.1-4.8-2.5-6.7-4.1c-2.1-1.7-3.8-3.7-5.2-5.8h-0.3v41.6h-18.4V492.9H649.2z M713.5,534.7
		c0-3.7-0.5-7.4-1.5-10.9c-0.9-3.5-2.5-6.6-4.4-9.4c-2-2.8-4.4-4.9-7.2-6.6c-2.9-1.7-6.3-2.5-10-2.5c-7.7,0-13.5,2.6-17.5,8
		c-3.8,5.4-5.8,12.6-5.8,21.5c0,4.3,0.5,8.1,1.5,11.7c1.1,3.5,2.5,6.6,4.6,9.2c2,2.6,4.4,4.6,7.4,6.1s6.1,2.3,10,2.3
		c4.3,0,7.7-0.9,10.6-2.6c2.9-1.7,5.2-4,7.2-6.6c1.8-2.8,3.2-5.8,4-9.4C713,541.9,713.5,538.3,713.5,534.7L713.5,534.7z
		 M745.9,461.2h18.4v17.3h-18.4V461.2z M745.9,492.9h18.4v83.3h-18.4V492.9L745.9,492.9z M780.7,461.2h18.4v115h-18.4V461.2
		L780.7,461.2z M855.2,578.5c-6.6,0-12.6-1.1-17.8-3.4c-5.2-2.3-9.5-5.2-13.2-9c-3.5-3.8-6.3-8.6-8.1-14c-1.8-5.4-2.9-11.3-2.9-17.6
		c0-6.3,0.9-12.1,2.9-17.5c1.8-5.4,4.6-10,8.1-14c3.5-3.8,8-6.9,13.2-9c5.2-2.1,11.2-3.4,17.8-3.4c6.6,0,12.6,1.1,17.8,3.4
		c5.2,2.1,9.5,5.2,13.2,9c3.5,3.8,6.3,8.6,8.1,14s2.9,11.2,2.9,17.5c0,6.4-0.9,12.3-2.9,17.6s-4.6,10-8.1,14c-3.5,3.8-8,6.9-13.2,9
		C867.8,577.3,862,578.5,855.2,578.5L855.2,578.5z M855.2,564c4,0,7.7-0.9,10.6-2.6c3.1-1.7,5.4-4,7.4-6.7c2-2.8,3.4-6,4.3-9.4
		c0.9-3.5,1.4-7.1,1.4-10.7c0-3.5-0.5-7.1-1.4-10.6c-0.9-3.5-2.3-6.6-4.3-9.4c-2-2.8-4.4-4.9-7.4-6.6c-3.1-1.7-6.6-2.6-10.6-2.6
		s-7.7,0.9-10.6,2.6c-3.1,1.7-5.4,4-7.4,6.6c-2,2.8-3.4,5.8-4.3,9.4c-0.9,3.5-1.4,7.1-1.4,10.6c0,3.7,0.5,7.2,1.4,10.7
		s2.3,6.6,4.3,9.4c2,2.8,4.4,5.1,7.4,6.7C847.7,563.2,851.2,564,855.2,564L855.2,564z M902.8,492.9h14v-25.2h18.4v25h16.6v13.7
		h-16.6v44.5c0,2,0.2,3.5,0.3,5.1c0.2,1.4,0.6,2.6,1.1,3.5c0.6,0.9,1.5,1.7,2.6,2.1c1.2,0.5,2.8,0.8,4.9,0.8c1.2,0,2.6,0,3.8-0.2
		c1.2-0.2,2.6-0.3,3.8-0.6v14.3c-2,0.3-4,0.5-6,0.6c-2,0.3-3.8,0.3-6,0.3c-4.9,0-8.7-0.5-11.7-1.4c-2.9-0.9-5.2-2.3-6.9-4
		c-1.7-1.8-2.8-4-3.4-6.6s-0.9-5.8-1.1-9.2v-49.1h-14v-14l0,0V492.9z"/>
	<path fill="#00B67A" d="M251.8,461.2h-84.2l-25.9-80.1l-26.1,80.1L31.4,461l68.1,49.5l-26.1,80.1l68.1-49.5l68.1,49.5l-25.9-80.1
		L251.8,461.2z"/>
	<path fill="#005128" d="M189.6,528.7l-5.8-18.1l-42,30.5L189.6,528.7z"/>
	<rect x="74" y="624" fill="#00B67A" width="110" height="110"/>
	<polygon fill="#FFFFFF" points="129,701.1 146.6,688.4 175.1,667.7 139.9,667.7 129,634.2 118.1,667.7 82.9,667.6 111.4,688.4 
		100.5,721.8 129,701.1 157.4,721.8 149,695.6 	"/>
	<rect x="200.5" y="624" fill="#00B67A" width="110" height="110"/>
	<polygon fill="#FFFFFF" points="255.6,701.1 273.2,688.4 301.6,667.7 266.4,667.7 255.6,634.2 244.7,667.7 209.5,667.6 
		237.9,688.4 227,721.8 255.5,701.1 284,721.8 275.5,695.6 	"/>
	<rect x="327.1" y="624" fill="#00B67A" width="110" height="110"/>
	<polygon fill="#FFFFFF" points="382.1,701.1 399.7,688.4 428.2,667.7 393,667.7 382.1,634.2 371.2,667.7 336,667.6 364.5,688.4 
		353.6,721.8 382.1,701.1 410.5,721.8 402.1,695.6 	"/>
	<rect x="453.6" y="624" fill="#00B67A" width="110" height="110"/>
	<polygon fill="#FFFFFF" points="508.7,701.1 526.3,688.4 554.7,667.7 519.5,667.7 508.7,634.2 497.8,667.7 462.6,667.6 491,688.4 
		480.1,721.8 508.6,701.1 537.1,721.8 528.6,695.6 	"/>
	<polygon fill="#FFFFFF" points="635.2,701.1 652.8,688.4 681.3,667.7 646.1,667.7 635.2,634.2 624.3,667.7 589.1,667.6 
		617.6,688.4 606.7,721.8 635.2,701.1 663.6,721.8 655.2,695.6 	"/>
</g>
</svg>
