<svg xmlns="http://www.w3.org/2000/svg" xmlns:xlink="http://www.w3.org/1999/xlink" viewBox="0 0 386 118.85"><defs><style>.cls-1{fill:#fff;}.cls-1,.cls-2,.cls-3,.cls-5,.cls-6,.cls-7{fill-rule:evenodd;}.cls-2{fill:#585858;}.cls-3{fill:#fee844;}.cls-4{mask:url(#mask);}.cls-5{fill:#feac44;}.cls-6{fill:#f6f6f6;}.cls-7{fill:#c2d6e4;}</style><mask id="mask" x="7.29" y="2.94" width="72.99" height="111.21" maskUnits="userSpaceOnUse"><g id="mask-2"><path id="path-1" class="cls-1" d="M28.31,95.52a23.61,23.61,0,0,1-7.86-6,21.45,21.45,0,0,1-5-8.78q-.59-17,0-44.14a43,43,0,0,0-6.44.7A40.9,40.9,0,0,1,7.5,29.2a39.09,39.09,0,0,1,.08-8.81q9.55-.88,22.11-1.14L28.84,2.94H41.77l3,15.69q6.75-.11,11.27,0A33.33,33.33,0,0,1,68.19,28.1a47.27,47.27,0,0,1,8.28,13.5,27.36,27.36,0,0,1-4.61,6.85A27.85,27.85,0,0,1,65,54.14L65,55a29.31,29.31,0,0,1,9.73,7.2,21.78,21.78,0,0,1,5.51,9.74q-1.17,6.72-7.57,13.81A34.44,34.44,0,0,1,59,95.47q-2.54.18-8.12.38v16L37,113.15V95.83C33.18,95.72,30.31,95.61,28.31,95.52ZM34.93,51.7l14-.68a31.88,31.88,0,0,0,6.66-6.73,16,16,0,0,0-3-5.15,20.73,20.73,0,0,0-4.73-4.32q-6-.1-12.76.16Q34.92,45.89,34.93,51.7Zm.63,28.42a155.33,155.33,0,0,0,16.72-.63,11.11,11.11,0,0,0,4.48-3.37,10.11,10.11,0,0,0,2.3-4.41q-1.91-4.24-7.2-7.41l-16.77.9Q35.24,72.71,35.56,80.12Z"/></g></mask></defs><title>Bitcasino</title><g id="Layer_2" data-name="Layer 2"><g id="Layer_1-2" data-name="Layer 1"><g id="logo"><g id="Group-6"><path id="Path" class="cls-2" d="M321.56,109.12a8.8,8.8,0,0,1-.73,2,3.09,3.09,0,0,1-1.87,1.64,20,20,0,0,1-7.3,1,18.51,18.51,0,0,1-7.3-1.31,10.73,10.73,0,0,1-2.05-1.35H286.65l-.28.17a7.77,7.77,0,0,1-2,.77,26.07,26.07,0,0,1-7.19.62,25.43,25.43,0,0,1-5-1.56h-20a36.12,36.12,0,0,1-4.85,1,33.92,33.92,0,0,1-5.58.32,4.57,4.57,0,0,1-2.82-1.3h-3.83a1.68,1.68,0,0,1-1.31.76,40.28,40.28,0,0,1-11.44.2,4.9,4.9,0,0,1-2.49-1.22l-10.36-.33A1.61,1.61,0,0,1,208,112a35.67,35.67,0,0,1-5.48.47,36.42,36.42,0,0,1-5.37-.27,6.18,6.18,0,0,1-3.24-2l-.21-.22-12.24-.39a18.22,18.22,0,0,1-5.49,3,6.71,6.71,0,0,1-2.08.26,54.58,54.58,0,0,1-9.38-1.15,35.61,35.61,0,0,1-7.8-2.43c-.35-.17-.68-.34-1-.53l-6.44-.21a13.27,13.27,0,0,1-2.3,2.5,4.27,4.27,0,0,1-2,.85,67.53,67.53,0,0,1-8.59.75,68.47,68.47,0,0,1-8-.1q-3-.19-7.67-4.62l-.32-.31-4.49-.15a10.91,10.91,0,0,1-.16,1.31,2.07,2.07,0,0,1-1.53,1.7,37,37,0,0,1-9.58,1.75,38,38,0,0,1-8.91-.16,11.25,11.25,0,0,1-5.3-2.45,22.08,22.08,0,0,1-2.94-2.8L57,104.39,55.56,116q-20.49,2.82-21,2.83t-1-13.94c-1.75-.66-2.92-1.13-3.53-1.44-3.59-1.83-5.15-4-9.2-8.29s-6.76-8.34-8.1-12a12.65,12.65,0,0,1-.63-3.87q-.37-12.33-.16-31.43-1.86.16-5.56-3.12T1.91,39.11A41,41,0,0,1,.19,30,37.23,37.23,0,0,1,.37,21a3.37,3.37,0,0,1,3.34-3q8.2-.72,23.17-1.7L25.56,1.79A1.65,1.65,0,0,1,27.05,0H42.66A1.64,1.64,0,0,1,44.2,1.07l5.28,14.28h5.19a8.83,8.83,0,0,1,3.91.9A50.62,50.62,0,0,1,72.17,26.63l4,.19.06-.76a22.72,22.72,0,0,1,.89-4.94,2.6,2.6,0,0,1,2.07-1.82,35.9,35.9,0,0,1,5.12-.82,18.92,18.92,0,0,1-2.92-3.55,13,13,0,0,1-1.83-5.81,12.69,12.69,0,0,1,.73-5.95,3.2,3.2,0,0,1,1.89-1.9A19.64,19.64,0,0,1,89.7.11a19.51,19.51,0,0,1,7.43,1.34,11.11,11.11,0,0,1,3.78,2.8,8.33,8.33,0,0,1,2.17,3.56,14.37,14.37,0,0,1,.26,5.61A13.09,13.09,0,0,1,101.5,19a4.25,4.25,0,0,1-.79.9,9.43,9.43,0,0,1,2.09,2.49,4.51,4.51,0,0,1,.76,2.53c0,.83-.07,1.65-.1,2.47l1.09,0c0-.45,0-.92,0-1.4a16.13,16.13,0,0,1,1.11-6A2.36,2.36,0,0,1,108,18.68c2-.16,3.77-.28,5.26-.38,0-4.22,0-6.93,0-8.15A2.25,2.25,0,0,1,115,7.81,25.82,25.82,0,0,1,121.76,7a24.27,24.27,0,0,1,6.64.82,9,9,0,0,1,3.75,2.79c1.4,1.53,2.12,2.8,2.17,3.78l.17,3.58c1.74.05,3,.09,3.92.14a6.44,6.44,0,0,1,3.92,2A9.06,9.06,0,0,1,145,24a13.8,13.8,0,0,1,.61,2.73l1.92,0c.4-.61.82-1.21,1.27-1.81a26.61,26.61,0,0,1,10.44-8.56,6.84,6.84,0,0,1,2.48-.59,56,56,0,0,1,9,.36,41.31,41.31,0,0,1,8.38,1.81,9.57,9.57,0,0,1,4.08,2.86A6.15,6.15,0,0,1,185,24.6a12.79,12.79,0,0,1-.09,1.49l2.81,0c.53-.78,1.11-1.54,1.73-2.29a23.63,23.63,0,0,1,10-7.28,32,32,0,0,1,5.93-.93,30.4,30.4,0,0,1,5.87.07,26.27,26.27,0,0,1,10.51,4.78,39.55,39.55,0,0,1,5.68,5l6.34-.1a21.65,21.65,0,0,1,.83-4.2,2.6,2.6,0,0,1,2.06-1.82,36.29,36.29,0,0,1,5.13-.82,18.54,18.54,0,0,1-2.92-3.55A13,13,0,0,1,237,9.12a12.83,12.83,0,0,1,.72-5.95,3.24,3.24,0,0,1,1.9-1.9,23.12,23.12,0,0,1,15,.18,11.11,11.11,0,0,1,3.78,2.8,8.53,8.53,0,0,1,2.17,3.56,14.56,14.56,0,0,1,.26,5.61A13,13,0,0,1,259,19a3.75,3.75,0,0,1-.79.9,9.28,9.28,0,0,1,2.1,2.49,4.6,4.6,0,0,1,.76,2.51l1.57,0a25.51,25.51,0,0,1,.87-5.25,2.57,2.57,0,0,1,2.1-1.82q8.83-2,14.24-1.62a3.29,3.29,0,0,1,2.19,1.07,14.79,14.79,0,0,1,2.18,3.2,29.18,29.18,0,0,1,8.05-4.92,6,6,0,0,1,2.58-.28,28.53,28.53,0,0,1,8.22,2.1,22.37,22.37,0,0,1,6.28,3.87,18.72,18.72,0,0,1,3.94,4.9,12.85,12.85,0,0,1,1.62,5.27q.93,14.79.34,30.51a2.27,2.27,0,0,1-1.79,2.34l-.89.26,2.11,14.83,10.74-1a2,2,0,0,1,1.5-1.16,29.89,29.89,0,0,1,3.93-.64,14.09,14.09,0,0,1-2.24-2.72,11,11,0,0,1-.85-9,2.46,2.46,0,0,1,1.46-1.45,15,15,0,0,1,5.81-.9,15.16,15.16,0,0,1,5.7,1,8.77,8.77,0,0,1,2.91,2.15,6.49,6.49,0,0,1,1.66,2.74,11,11,0,0,1,.2,4.3,9.89,9.89,0,0,1-1.41,4.28,3.15,3.15,0,0,1-.61.69l.26.23,9.73.35a17.21,17.21,0,0,1,5.33-3.2,24.57,24.57,0,0,1,4.55-.71,23.75,23.75,0,0,1,4.51.05A20.26,20.26,0,0,1,376,78a28.82,28.82,0,0,1,6.55,6.54,20.76,20.76,0,0,1,3.42,7.12,19.86,19.86,0,0,1-2.55,11.59A22.28,22.28,0,0,1,375,112a7.07,7.07,0,0,1-1.83.71,23.57,23.57,0,0,1-6.68.59,23.28,23.28,0,0,1-6.76-2.48l-2.47.3-11.73-.71c0,.15,0,.3,0,.46a1.55,1.55,0,0,1-1.4,1.79,32.32,32.32,0,0,1-5.1.44,35.72,35.72,0,0,1-5-.25,5.62,5.62,0,0,1-3-1.83,7.26,7.26,0,0,1-1.24-1.57l-5.12-.31Z"/><g id="Group-5"><g id="B"><g id="Mask-2-2" data-name="Mask"><path class="cls-3" d="M28.31,95.52a23.61,23.61,0,0,1-7.86-6,21.45,21.45,0,0,1-5-8.78q-.59-17,0-44.14a43,43,0,0,0-6.44.7A40.9,40.9,0,0,1,7.5,29.2a39.09,39.09,0,0,1,.08-8.81q9.55-.88,22.11-1.14L28.84,2.94H41.77l3,15.69q6.75-.11,11.27,0A33.33,33.33,0,0,1,68.19,28.1a47.27,47.27,0,0,1,8.28,13.5,27.36,27.36,0,0,1-4.61,6.85A27.85,27.85,0,0,1,65,54.14L65,55a29.31,29.31,0,0,1,9.73,7.2,21.78,21.78,0,0,1,5.51,9.74q-1.17,6.72-7.57,13.81A34.44,34.44,0,0,1,59,95.47q-2.54.18-8.12.38v16L37,113.15V95.83C33.18,95.72,30.31,95.61,28.31,95.52ZM34.93,51.7l14-.68a31.88,31.88,0,0,0,6.66-6.73,16,16,0,0,0-3-5.15,20.73,20.73,0,0,0-4.73-4.32q-6-.1-12.76.16Q34.92,45.89,34.93,51.7Zm.63,28.42a155.33,155.33,0,0,0,16.72-.63,11.11,11.11,0,0,0,4.48-3.37,10.11,10.11,0,0,0,2.3-4.41q-1.91-4.24-7.2-7.41l-16.77.9Q35.24,72.71,35.56,80.12Z"/></g><g class="cls-4"><path class="cls-5" d="M65,55a29.31,29.31,0,0,1,9.73,7.2,21.78,21.78,0,0,1,5.51,9.74q-1.17,6.72-7.57,13.81-4.27,4.72-10.57,11.78l-5.42-.73-4.3,15.92-12.69,1.44,4.13-18.21q-10-.15-15.55-.41l3.81-7.67a210,210,0,0,0,23.5-.43,22.57,22.57,0,0,0,9.15-6.51q4.19-4.71,4.92-9.1a18.23,18.23,0,0,0-6.13-8.91,28.28,28.28,0,0,0-11.91-5.38,88.18,88.18,0,0,0,9.1-7.88A27,27,0,0,0,66,43a32.9,32.9,0,0,0-5.69-9.39,24.87,24.87,0,0,0-8.44-6.85L56,18.63A33.33,33.33,0,0,1,68.19,28.1a47.27,47.27,0,0,1,8.28,13.5,27.36,27.36,0,0,1-4.61,6.85A27.85,27.85,0,0,1,65,54.14ZM47.79,34.82q-6-.1-12.76.16-.11,10.91-.1,16.72L25,59q0-8.56.37-31.32,14.66-1.06,26.51-.9ZM25.4,27.63l-9.95,9a50.21,50.21,0,0,0-6.81.74l1.47-8.31Q19.78,28,25.4,27.63ZM51.65,57.52l.21,6.78-16.77.9q.15,7.51.47,14.92l-3.44,7.73a13.13,13.13,0,0,1-4-3.15,11.46,11.46,0,0,1-2.62-4.47Q25,69.06,25,59Zm-6.72-39-10.4,3.12,1.7-18.74h5.48Z"/></g></g></g><g id="Group"><path id="itcoin" class="cls-3" d="M82.44,3.48a16.27,16.27,0,0,1,7.1-1.26,16.09,16.09,0,0,1,7.11,1.33A13.21,13.21,0,0,1,97,9.19a9.85,9.85,0,0,1-1.87,4.92,13.3,13.3,0,0,1-5.82,1.32,11.94,11.94,0,0,1-5.81-1.12,9.69,9.69,0,0,1-1.86-5.26A10.13,10.13,0,0,1,82.44,3.48Zm14.79,17Q96.35,39.56,97,59.28a41.71,41.71,0,0,1-12.69.2,235.79,235.79,0,0,1-.07-28l-6-.31a27.83,27.83,0,0,1,0-5.06,21.34,21.34,0,0,1,.88-4.68Q86,19.75,97.23,20.51Zm41.49-.28a17.47,17.47,0,0,1,.71,5.85,13.53,13.53,0,0,1-1,5.54q-6.19-.07-9.6-.07.51,15.75.75,27.73a47.93,47.93,0,0,1-13.28.2q-.67-15.37-.86-27.83l-8.29.21a17.79,17.79,0,0,1-.51-5.76,15.15,15.15,0,0,1,1-5.25q5.53-.48,7.7-.59,0-3.44,0-10.38a22.67,22.67,0,0,1,6.36-.83,20.94,20.94,0,0,1,6.19.83L128.4,20Q133.7,20,138.72,20.23Zm17.37,39.05a20.72,20.72,0,0,1-8.1-8.93,26.66,26.66,0,0,1-2.63-12.71A26.87,26.87,0,0,1,148,30a27.93,27.93,0,0,1,5.37-7.15,22.69,22.69,0,0,1,7.54-5,49.94,49.94,0,0,1,9.44.22A38.19,38.19,0,0,1,178.7,20a17.8,17.8,0,0,1-1.12,5.77,16.34,16.34,0,0,1-2.63,5,26.25,26.25,0,0,0-11.18-1.21,11,11,0,0,0-3,3.93,16.7,16.7,0,0,0-1.55,5.26,12.93,12.93,0,0,0,1.34,5.64,10.11,10.11,0,0,0,3.61,4.13,20.11,20.11,0,0,0,5.9.08,34,34,0,0,0,7.31-1.46c.67.81,1.14,2.41,1.43,4.82a16.47,16.47,0,0,1,0,5.47,42.77,42.77,0,0,1-11.5,2.17A44.14,44.14,0,0,1,156.09,59.28Zm49.34.79A23.76,23.76,0,0,1,194.8,55a24.28,24.28,0,0,1-6.87-9,21.94,21.94,0,0,1-1.8-10.67A21.89,21.89,0,0,1,191.2,25a22.17,22.17,0,0,1,8.89-6.51,32.1,32.1,0,0,1,10.84-.76,21.47,21.47,0,0,1,7.93,3.42,24.65,24.65,0,0,1,6.19,6,21.29,21.29,0,0,1,3.39,7.18A22.28,22.28,0,0,1,227.15,44,28.15,28.15,0,0,1,222,52.86a26.15,26.15,0,0,1-7.74,6.28A26.46,26.46,0,0,1,205.43,60.07Zm3.4-11.15a10.92,10.92,0,0,0,4.65-4.71,14.86,14.86,0,0,0,2-7.33A12,12,0,0,0,212,31.12a8.92,8.92,0,0,0-6.09-2.36,8.78,8.78,0,0,0-4.18,3.15,10.58,10.58,0,0,0-2.18,5.25,10.85,10.85,0,0,0,2.37,7.1A11.65,11.65,0,0,0,208.83,48.92ZM240,3.48a16.27,16.27,0,0,1,7.1-1.26,16,16,0,0,1,7.1,1.33,13,13,0,0,1,.33,5.64,10,10,0,0,1-1.87,4.92,13.33,13.33,0,0,1-5.82,1.32A11.94,11.94,0,0,1,241,14.31a9.69,9.69,0,0,1-1.86-5.26A10,10,0,0,1,240,3.48Zm14.79,17q-.9,19.05-.24,38.77a41.77,41.77,0,0,1-12.7.2,240.14,240.14,0,0,1-.07-28l-5.95-.31a28.76,28.76,0,0,1,0-5.06,22.59,22.59,0,0,1,.88-4.68Q243.54,19.75,254.76,20.51Zm53.77,5.67q1,14.28.38,31.72a43.55,43.55,0,0,1-6.56,1.41,36.52,36.52,0,0,1-6.55.41q.18-7.11,0-14.89T295.11,33a6.23,6.23,0,0,0-1.29-1.92,4.46,4.46,0,0,0-1.67-1.21,26.08,26.08,0,0,0-7.46,3.24q-.18,10.27,1,26a47.24,47.24,0,0,1-13.45.21,175.43,175.43,0,0,1-.93-28.56l-6.6,0a33.75,33.75,0,0,1,.05-5.66,24.79,24.79,0,0,1,.87-5.21,51.22,51.22,0,0,1,14.21-1.69l1.79,6.19.9.21q6.6-6.09,11.18-7.4a21,21,0,0,1,10.16,3A10,10,0,0,1,308.53,26.18Z"/><path class="cls-5" d="M83.47,14.31l2.75-5.43q3.69-.08,6,0l4.48-5.29A13.21,13.21,0,0,1,97,9.19a9.85,9.85,0,0,1-1.87,4.92,13.3,13.3,0,0,1-5.82,1.32A11.94,11.94,0,0,1,83.47,14.31Zm13.76,6.2Q96.35,39.56,97,59.28a41.71,41.71,0,0,1-12.69.2l6.09-4.33Q90,39.22,90.73,26ZM81.44,26A78.72,78.72,0,0,1,90.73,26l-6.5,5.5-6-.31Zm40.6-.37q-.11-3.48-.25-10.84L128,9.88,128.4,20Zm-5.72,33.81,6.51-4.88q-.72-25.32-.79-28.93,6-.11,12.62.06l4.06-5.5a17.47,17.47,0,0,1,.71,5.85,13.53,13.53,0,0,1-1,5.54q-6.19-.07-9.6-.07.51,15.75.75,27.73A47.93,47.93,0,0,1,116.32,59.48ZM122,25.67l-6.58,6-8.29.21L111.41,26C115.24,25.86,118.78,25.73,122,25.67Zm41.73,3.88a11,11,0,0,0-3,3.93,16.7,16.7,0,0,0-1.55,5.26,12.93,12.93,0,0,0,1.34,5.64,10.11,10.11,0,0,0,3.61,4.13l-4.06,5.37a15.78,15.78,0,0,1-5.83-6.54,19.61,19.61,0,0,1-2-9.15,21.45,21.45,0,0,1,3.37-8.43,16.9,16.9,0,0,1,6.64-6.06,41,41,0,0,1,11,.66L178.7,20a17.8,17.8,0,0,1-1.12,5.77,16.34,16.34,0,0,1-2.63,5A26.25,26.25,0,0,0,163.77,29.55Zm-7.68,29.73,4.06-5.4a29.58,29.58,0,0,0,6.57.32,44.19,44.19,0,0,0,7.71-.94l3-6.13c.67.81,1.14,2.41,1.43,4.82a16.47,16.47,0,0,1,0,5.47,42.77,42.77,0,0,1-11.5,2.17A44.14,44.14,0,0,1,156.09,59.28ZM208.8,23.22l2.13-5.5a21.47,21.47,0,0,1,7.93,3.42,24.65,24.65,0,0,1,6.19,6,21.29,21.29,0,0,1,3.39,7.18A22.28,22.28,0,0,1,227.15,44,28.15,28.15,0,0,1,222,52.86a26.15,26.15,0,0,1-7.74,6.28,26.46,26.46,0,0,1-8.87.93l1.44-5.64a17.86,17.86,0,0,0,5-.52,19.14,19.14,0,0,0,7.51-7.67A19.32,19.32,0,0,0,222,35.61a16.94,16.94,0,0,0-4.8-8A15.52,15.52,0,0,0,208.8,23.22Zm-1.93,31.21a17.54,17.54,0,0,1-7.76-3.94,18.6,18.6,0,0,1-5-6.73,16.06,16.06,0,0,1-1.32-7.57,16.49,16.49,0,0,1,3.5-7.58,15.52,15.52,0,0,1,6.33-4.87,21,21,0,0,1,6.13-.52l-2.93,5.54a8.78,8.78,0,0,0-4.18,3.15,10.58,10.58,0,0,0-2.18,5.25,10.85,10.85,0,0,0,2.37,7.1,11.65,11.65,0,0,0,7,4.66ZM241,14.31l2.75-5.43c2.45-.05,4.44-.06,5.95,0l4.47-5.29a13,13,0,0,1,.33,5.64,10,10,0,0,1-1.87,4.92,13.33,13.33,0,0,1-5.82,1.32A11.94,11.94,0,0,1,241,14.31Zm13.76,6.2q-.9,19.05-.24,38.77a41.77,41.77,0,0,1-12.7.2l6.09-4.33q-.37-15.93.35-29.17ZM239,26a78.72,78.72,0,0,1,9.29-.06l-6.51,5.5-5.95-.31Zm38.94,7.71-2.27-9.25,4.23-6.23,1.79,6.19Zm-5.64,25.6,6.33-5.1q-.9-12.21-.69-20.5a49.5,49.5,0,0,1,7.33-6.21,26.5,26.5,0,0,1,7.71-4,11.9,11.9,0,0,1,5.88,2.08,7.48,7.48,0,0,1,3,3.94L295.11,33a6.23,6.23,0,0,0-1.29-1.92,4.46,4.46,0,0,0-1.67-1.21,26.08,26.08,0,0,0-7.46,3.24,255.22,255.22,0,0,0,1,26A47.24,47.24,0,0,1,272.27,59.35ZM270.1,24.7a40.94,40.94,0,0,1,5.54-.2l-4.3,6.29-6.6,0Zm38.81,33.2a43.55,43.55,0,0,1-6.56,1.41,36.52,36.52,0,0,1-6.55.41L302.47,54q.18-14.85-.65-24.42l6.71-3.41Q309.49,40.46,308.91,57.9Z"/></g><g id="Group-2"><path id="casino" class="cls-6" d="M91.78,106.78a17.17,17.17,0,0,1-6.69-7.37,22.07,22.07,0,0,1-2.17-10.49,21.91,21.91,0,0,1,2.16-6.28,23,23,0,0,1,4.43-5.9,18.81,18.81,0,0,1,6.22-4.12,40.8,40.8,0,0,1,7.79.18,31.35,31.35,0,0,1,6.92,1.52,14.75,14.75,0,0,1-.92,4.77,13.36,13.36,0,0,1-2.18,4.15,21.75,21.75,0,0,0-9.23-1,9.34,9.34,0,0,0-2.44,3.24,14.07,14.07,0,0,0-1.28,4.35,10.64,10.64,0,0,0,1.11,4.65,8.35,8.35,0,0,0,3,3.41,16.71,16.71,0,0,0,4.87.07,28.86,28.86,0,0,0,6-1.2,8.21,8.21,0,0,1,1.18,4,13.8,13.8,0,0,1,0,4.52,35.29,35.29,0,0,1-9.5,1.79A36.09,36.09,0,0,1,91.78,106.78ZM143.84,76.2a37.91,37.91,0,0,1,2.42,10.65,73.34,73.34,0,0,1,.42,12.43,13.9,13.9,0,0,1-1.88,4.12,11.47,11.47,0,0,1-2.92,3.18,62.62,62.62,0,0,1-9.73.91,56.93,56.93,0,0,1-9.81-.48,14.12,14.12,0,0,1-3.93-6,19.68,19.68,0,0,1-1.5-7.4,14.82,14.82,0,0,1,1.78-3.36,10.44,10.44,0,0,1,2.43-2.63A58.91,58.91,0,0,1,136,86c-.19-1.25-.39-2.36-.6-3.32a69.67,69.67,0,0,0-16.1-.74,20.05,20.05,0,0,1-.16-4.88,12.46,12.46,0,0,1,1-4.35,72.47,72.47,0,0,1,13.81.53Q140.92,74.18,143.84,76.2Zm-7.42,22c.1-1.63.13-3.32.09-5.09a31,31,0,0,0-9.2,1.57,6.76,6.76,0,0,0,1.59,4.57A31.21,31.21,0,0,0,136.42,98.15Zm34.82,9.54a54.16,54.16,0,0,1-9.33-1,32.21,32.21,0,0,1-8.16-2.53,13.34,13.34,0,0,1,1.06-4.93,10.79,10.79,0,0,1,2.46-3.84,56.68,56.68,0,0,0,7.11,2.32A32,32,0,0,0,171,98.86a5.19,5.19,0,0,0,.82-2,5.9,5.9,0,0,0,.11-2.3,127.06,127.06,0,0,0-14.45-2.73,7.43,7.43,0,0,1-1.72-2,9.94,9.94,0,0,1-1.15-2.57,20.36,20.36,0,0,1,2-8,14.31,14.31,0,0,1,4.8-6.05,55.14,55.14,0,0,1,10.11-.63,44.16,44.16,0,0,1,9,1,10.36,10.36,0,0,1,.17,4.62,8.72,8.72,0,0,1-1.45,4,29.25,29.25,0,0,0-6-1.22,35.65,35.65,0,0,0-6.54-.23,5.85,5.85,0,0,0-1.22,3.41,92.17,92.17,0,0,1,13.17,2.47,10.73,10.73,0,0,1,3.28,4A12.53,12.53,0,0,1,183.48,96a19,19,0,0,1-4.81,7.17A16.76,16.76,0,0,1,171.24,107.69Zm33.23-32.91q-.74,15.72-.2,32a34.29,34.29,0,0,1-10.48.17,198.17,198.17,0,0,1-.06-23.11l-4.91-.26a23.43,23.43,0,0,1,0-4.17,17.8,17.8,0,0,1,.73-3.87Q195.22,74.16,204.47,74.78Zm44.38,4.68q.79,11.79.32,26.19a36.61,36.61,0,0,1-5.41,1.16,30.9,30.9,0,0,1-5.41.34q.14-5.88,0-12.3c-.1-4.27-.29-7.53-.55-9.77a5.43,5.43,0,0,0-1.07-1.59,3.63,3.63,0,0,0-1.37-1,21.46,21.46,0,0,0-6.17,2.67q-.13,8.49.86,21.5a39.29,39.29,0,0,1-11.11.17,143.28,143.28,0,0,1-.76-23.57l-5.46,0a28.5,28.5,0,0,1,.05-4.68,20.4,20.4,0,0,1,.72-4.3,42.81,42.81,0,0,1,11.73-1.39L226.68,78l.73.17q5.46-5,9.23-6.1A17.21,17.21,0,0,1,245,74.55,8.25,8.25,0,0,1,248.85,79.46Zm25.11,28a19.66,19.66,0,0,1-8.78-4.2,20.12,20.12,0,0,1-5.66-7.47A18.05,18.05,0,0,1,258,87a17.94,17.94,0,0,1,4.19-8.48,18.28,18.28,0,0,1,7.34-5.38,26.46,26.46,0,0,1,8.94-.62,17.79,17.79,0,0,1,6.55,2.82,20.33,20.33,0,0,1,5.11,5,17.59,17.59,0,0,1,2.8,5.92,18.5,18.5,0,0,1-1.07,8,23.12,23.12,0,0,1-4.21,7.31,21.61,21.61,0,0,1-6.39,5.19A21.82,21.82,0,0,1,274,107.43Zm2.81-9.2a9,9,0,0,0,3.83-3.89,12.19,12.19,0,0,0,1.68-6,9.84,9.84,0,0,0-2.93-4.75,7.37,7.37,0,0,0-5-2,7.16,7.16,0,0,0-3.45,2.6,8.67,8.67,0,0,0-1.81,4.33,9,9,0,0,0,2,5.87A9.58,9.58,0,0,0,276.77,98.23Z"/><path class="cls-7" d="M98.11,82.24a9.34,9.34,0,0,0-2.44,3.24,14.07,14.07,0,0,0-1.28,4.35,10.64,10.64,0,0,0,1.11,4.65,8.35,8.35,0,0,0,3,3.41l-3.35,4.43a12.93,12.93,0,0,1-4.81-5.39,16.18,16.18,0,0,1-1.66-7.56,17.65,17.65,0,0,1,2.78-7,13.9,13.9,0,0,1,5.48-5A33.46,33.46,0,0,1,106,78l4.46-3.64a14.75,14.75,0,0,1-.92,4.77,13.36,13.36,0,0,1-2.18,4.15A21.75,21.75,0,0,0,98.11,82.24Zm-6.33,24.54,3.35-4.46a24.13,24.13,0,0,0,5.43.27,35.24,35.24,0,0,0,6.36-.78l2.47-5a8.21,8.21,0,0,1,1.18,4,13.8,13.8,0,0,1,0,4.52,35.29,35.29,0,0,1-9.5,1.79A36.09,36.09,0,0,1,91.78,106.78ZM143.84,76.2a37.91,37.91,0,0,1,2.42,10.65,73.34,73.34,0,0,1,.42,12.43,13.9,13.9,0,0,1-1.88,4.12,11.47,11.47,0,0,1-2.92,3.18,62.62,62.62,0,0,1-9.73.91,56.93,56.93,0,0,1-9.81-.48l3.29-3.92a44.55,44.55,0,0,0,6.73.08,41.45,41.45,0,0,0,6.62-.79,6.4,6.4,0,0,0,1.56-1.72,7.63,7.63,0,0,0,1-2.2,75.11,75.11,0,0,0-.14-8.95,50.18,50.18,0,0,0-1.76-10.08ZM119.33,82,123,77.19q11.42,0,16.7,2.24l-4.23,3.27A69.67,69.67,0,0,0,119.33,82Zm17.18,11.1a31,31,0,0,0-9.2,1.57,6.76,6.76,0,0,0,1.59,4.57l-3.27,3.89a10.67,10.67,0,0,1-2.54-4,13.26,13.26,0,0,1-1-4.79,7.35,7.35,0,0,1,2.27-3.23q5.88-1.74,17-1.57Zm30.16-12.29a5.85,5.85,0,0,0-1.22,3.41L161.56,88a4.84,4.84,0,0,1-1.54-2.5,13.47,13.47,0,0,1,1.21-4.86A9.19,9.19,0,0,1,164,77a43.62,43.62,0,0,1,12.61.26l3.89-3.64a10.36,10.36,0,0,1,.17,4.62,8.72,8.72,0,0,1-1.45,4,29.25,29.25,0,0,0-6-1.22A35.65,35.65,0,0,0,166.67,80.77Zm8.46,9.8,3.49-3.92a10.73,10.73,0,0,1,3.28,4A12.53,12.53,0,0,1,183.48,96a19,19,0,0,1-4.81,7.17,16.76,16.76,0,0,1-7.43,4.5,54.16,54.16,0,0,1-9.33-1,32.21,32.21,0,0,1-8.16-2.53l4.85-3.29a49.22,49.22,0,0,0,6.54,1.71,33.56,33.56,0,0,0,6,.7,10,10,0,0,0,4.09-3.12,12.25,12.25,0,0,0,2.52-4.66,6.74,6.74,0,0,0-.86-2.77A5.88,5.88,0,0,0,175.13,90.57ZM161.56,88a102.67,102.67,0,0,1,13.57,2.53l-3.21,4a127.06,127.06,0,0,0-14.45-2.73Zm42.91-13.26q-.74,15.72-.2,32a34.29,34.29,0,0,1-10.48.17l5-3.58q-.31-13.14.28-24.08Zm-13,4.57a66.48,66.48,0,0,1,7.67-.06l-5.37,4.55-4.91-.26Zm32.15,6.36-1.87-7.64,3.49-5.14L226.68,78Zm-4.66,21.13,5.23-4.2q-.74-10.1-.57-16.93a40.83,40.83,0,0,1,6-5.13A22.21,22.21,0,0,1,236,77.3,9.89,9.89,0,0,1,240.85,79a6.27,6.27,0,0,1,2.47,3.25l-5.54,2.81a5.43,5.43,0,0,0-1.07-1.59,3.63,3.63,0,0,0-1.37-1,21.46,21.46,0,0,0-6.17,2.67,210.8,210.8,0,0,0,.86,21.5A39.29,39.29,0,0,1,218.92,106.84Zm-1.79-28.6a32.8,32.8,0,0,1,4.58-.17l-3.55,5.2-5.46,0Zm32,27.41a36.61,36.61,0,0,1-5.41,1.16,30.9,30.9,0,0,1-5.41.34l5.51-4.71q.13-12.27-.54-20.17l5.53-2.81Q249.65,91.25,249.17,105.65ZM276.74,77l1.76-4.54a17.79,17.79,0,0,1,6.55,2.82,20.33,20.33,0,0,1,5.11,5,17.59,17.59,0,0,1,2.8,5.92,18.5,18.5,0,0,1-1.07,8,23.12,23.12,0,0,1-4.21,7.31,21.61,21.61,0,0,1-6.39,5.19,21.82,21.82,0,0,1-7.33.76l1.19-4.65a14.61,14.61,0,0,0,4.09-.43A15.78,15.78,0,0,0,285.45,96a16,16,0,0,0,2.2-8.78,14.05,14.05,0,0,0-4-6.63A12.88,12.88,0,0,0,276.74,77Zm-1.59,25.76a14.45,14.45,0,0,1-6.4-3.25A15.18,15.18,0,0,1,264.66,94a13.38,13.38,0,0,1-1.1-6.24,13.69,13.69,0,0,1,2.9-6.27,12.76,12.76,0,0,1,5.23-4,17.06,17.06,0,0,1,5.05-.43l-2.41,4.57a7.16,7.16,0,0,0-3.45,2.6,8.67,8.67,0,0,0-1.81,4.33,9,9,0,0,0,2,5.87,9.58,9.58,0,0,0,5.74,3.84Z"/></g><g id="Group-4"><path class="cls-3" d="M314.57,106.35a15.4,15.4,0,0,1-7,1.13,15.71,15.71,0,0,1-7-1.33,15.88,15.88,0,0,1-.68-6.57,15.23,15.23,0,0,1,1.6-6.09,15.28,15.28,0,0,1,6.28-1.86,14.88,14.88,0,0,1,6.58.46,8,8,0,0,1,1.36,4.07,24.52,24.52,0,0,1,0,5.87A10.39,10.39,0,0,1,314.57,106.35Z"/><path class="cls-5" d="M300.62,106.15l3.81-6.57q3.13-.21,6.57-.27l3.4-7.22a8,8,0,0,1,1.36,4.07,24.52,24.52,0,0,1,0,5.87,10.39,10.39,0,0,1-1.23,4.32,15.4,15.4,0,0,1-7,1.13A15.71,15.71,0,0,1,300.62,106.15Z"/></g><g id="Group-3"><path id="io" class="cls-6" d="M329.47,65a12.68,12.68,0,0,1,5.46-1,12.42,12.42,0,0,1,5.45,1,10.1,10.1,0,0,1,.25,4.33,7.54,7.54,0,0,1-1.44,3.78,10.23,10.23,0,0,1-4.46,1,9.36,9.36,0,0,1-4.46-.86,7.37,7.37,0,0,1-1.43-4A7.76,7.76,0,0,1,329.47,65ZM340.83,78q-.69,14.64-.18,29.77a32.41,32.41,0,0,1-9.75.16,181.46,181.46,0,0,1,0-21.5l-4.57-.24a21.14,21.14,0,0,1,0-3.88,16.21,16.21,0,0,1,.67-3.59C330.48,77.89,335.09,77.66,340.83,78Zm22.58,30.38a18.35,18.35,0,0,1-8.16-3.91,18.8,18.8,0,0,1-5.27-7,16.87,16.87,0,0,1-1.38-8.19,16.72,16.72,0,0,1,3.89-7.88,17.09,17.09,0,0,1,6.83-5,24.92,24.92,0,0,1,8.32-.58,16.57,16.57,0,0,1,6.09,2.63,18.83,18.83,0,0,1,4.75,4.62,16.2,16.2,0,0,1,2.6,5.51,17.13,17.13,0,0,1-1,7.42,21.52,21.52,0,0,1-3.92,6.8,20,20,0,0,1-5.94,4.82A20.41,20.41,0,0,1,363.41,108.42ZM366,99.86a8.44,8.44,0,0,0,3.56-3.62,11.38,11.38,0,0,0,1.56-5.63,9.12,9.12,0,0,0-2.72-4.42,6.87,6.87,0,0,0-4.67-1.81,6.65,6.65,0,0,0-3.21,2.42,8.11,8.11,0,0,0-1.68,4,8.33,8.33,0,0,0,1.82,5.45A8.94,8.94,0,0,0,366,99.86Z"/><path class="cls-7" d="M330.27,73.29l2.11-4.17c1.88,0,3.41-.05,4.57,0L340.38,65a10.1,10.1,0,0,1,.25,4.33,7.54,7.54,0,0,1-1.44,3.78,10.23,10.23,0,0,1-4.46,1A9.36,9.36,0,0,1,330.27,73.29ZM340.83,78q-.69,14.64-.18,29.77a32.41,32.41,0,0,1-9.75.16l4.68-3.33q-.3-12.23.26-22.4Zm-12.12,4.25a63.71,63.71,0,0,1,7.13-.05l-5,4.23-4.57-.24ZM366,80.13l1.64-4.23a16.57,16.57,0,0,1,6.09,2.63,18.83,18.83,0,0,1,4.75,4.62,16.2,16.2,0,0,1,2.6,5.51,17.13,17.13,0,0,1-1,7.42,21.52,21.52,0,0,1-3.92,6.8,20,20,0,0,1-5.94,4.82,20.41,20.41,0,0,1-6.82.72l1.11-4.34a13,13,0,0,0,3.81-.39,15.9,15.9,0,0,0,7.81-14,13,13,0,0,0-3.68-6.17A11.92,11.92,0,0,0,366,80.13Zm-1.48,24a13.28,13.28,0,0,1-5.95-3,14.26,14.26,0,0,1-3.81-5.16,12.45,12.45,0,0,1-1-5.81,12.6,12.6,0,0,1,2.69-5.83,11.93,11.93,0,0,1,4.86-3.73,15.68,15.68,0,0,1,4.7-.4l-2.24,4.25a6.65,6.65,0,0,0-3.21,2.42,8.11,8.11,0,0,0-1.68,4,8.33,8.33,0,0,0,1.82,5.45A8.94,8.94,0,0,0,366,99.86Z"/></g></g></g></g></g></svg>