<svg xmlns="http://www.w3.org/2000/svg" viewBox="0 0 670.24 98.98"><defs><style>.cls-1{fill:#131720;}.cls-2{fill:#0ac18e;}.cls-3{fill:#359177;}.cls-4{fill:#4b786c;}</style></defs><title>bitcoin.com logo</title><g id="Layer_2" data-name="Layer 2"><g id="Layer_1-2" data-name="Layer 1"><path class="cls-1" d="M154.1,12.16a45.36,45.36,0,0,1,9.55.93,20.31,20.31,0,0,1,7.39,3,14.06,14.06,0,0,1,4.78,5.59,19.69,19.69,0,0,1,1.7,8.63A16,16,0,0,1,175,39.58a18.21,18.21,0,0,1-7.45,6.06,17.65,17.65,0,0,1,10.12,6.83A20.35,20.35,0,0,1,181,64.23a20.13,20.13,0,0,1-2.16,9.6,18.78,18.78,0,0,1-5.8,6.63,25.94,25.94,0,0,1-8.32,3.8,37.61,37.61,0,0,1-9.6,1.23H119.6V12.16Zm-2,29.68a11.58,11.58,0,0,0,7.08-2.05q2.77-2.05,2.78-6.68A8.49,8.49,0,0,0,161,28.9a7,7,0,0,0-2.46-2.57A10.55,10.55,0,0,0,155,25.05a23.42,23.42,0,0,0-4.16-.36H135.72V41.84ZM153,73a21.38,21.38,0,0,0,4.52-.47,11.11,11.11,0,0,0,3.8-1.53A7.83,7.83,0,0,0,163.91,68a10.1,10.1,0,0,0,1-4.73q0-5.64-3.18-8.06a13.57,13.57,0,0,0-8.42-2.41H135.72V73Z"/><path class="cls-1" d="M188.4,24.18v-12H203v12ZM203,32.39v53.1H188.4V32.39Z"/><path class="cls-1" d="M241.29,32.39v9.76H230.61V68.44c0,2.46.41,4.11,1.23,4.93s2.47,1.23,4.93,1.23c.82,0,1.61,0,2.36-.1a20,20,0,0,0,2.16-.31v11.3a36.13,36.13,0,0,1-4.11.41c-1.51.07-3,.1-4.41.1a42.25,42.25,0,0,1-6.42-.46,15.17,15.17,0,0,1-5.34-1.8,9.55,9.55,0,0,1-3.65-3.8A13.56,13.56,0,0,1,216,73.47V42.15h-8.84V32.39H216V16.47h14.58V32.39Z"/><path class="cls-1" d="M271.28,41.94a10.2,10.2,0,0,0-5.86,1.6,12.7,12.7,0,0,0-3.85,4.1,17.83,17.83,0,0,0-2.1,5.55,29.42,29.42,0,0,0-.62,6,28.19,28.19,0,0,0,.62,5.85,17.89,17.89,0,0,0,2,5.39,11.46,11.46,0,0,0,3.75,4A10.34,10.34,0,0,0,271,75.94q5.23,0,8.06-2.93a13.86,13.86,0,0,0,3.54-7.86h14.07q-1.44,10.57-8.21,16.13t-17.36,5.54a29.17,29.17,0,0,1-10.94-2,24.29,24.29,0,0,1-8.47-5.6,25.36,25.36,0,0,1-5.44-8.57,29.77,29.77,0,0,1-1.95-10.94,35.33,35.33,0,0,1,1.79-11.45,25.75,25.75,0,0,1,5.29-9.14,24.2,24.2,0,0,1,8.53-6A28.87,28.87,0,0,1,271.38,31a33.36,33.36,0,0,1,9.09,1.23,24.11,24.11,0,0,1,7.8,3.75,19.33,19.33,0,0,1,8.06,15.14H282.06Q280.62,41.95,271.28,41.94Z"/><path class="cls-1" d="M302.8,47.44A24.33,24.33,0,0,1,317,33a30.25,30.25,0,0,1,11.3-2,30.66,30.66,0,0,1,11.35,2,24.23,24.23,0,0,1,14.22,14.48,32.62,32.62,0,0,1,2,11.55,32.15,32.15,0,0,1-2,11.5,24.83,24.83,0,0,1-5.55,8.78,24,24,0,0,1-8.67,5.6,31.51,31.51,0,0,1-11.35,1.95A31.08,31.08,0,0,1,317,84.87a24.09,24.09,0,0,1-8.62-5.6,24.83,24.83,0,0,1-5.55-8.78A32.15,32.15,0,0,1,300.85,59,32.62,32.62,0,0,1,302.8,47.44ZM316.05,65.2a16.63,16.63,0,0,0,2.1,5.45,11.32,11.32,0,0,0,4,3.85,12,12,0,0,0,6.16,1.44,12.35,12.35,0,0,0,6.21-1.44,11.06,11.06,0,0,0,4-3.85,16.63,16.63,0,0,0,2.1-5.45,31.07,31.07,0,0,0,.62-6.21,31.87,31.87,0,0,0-.62-6.26,16,16,0,0,0-2.1-5.45,11.75,11.75,0,0,0-4-3.85,12,12,0,0,0-6.21-1.49,11.73,11.73,0,0,0-6.16,1.49,12.05,12.05,0,0,0-4,3.85,16,16,0,0,0-2.1,5.45,31.87,31.87,0,0,0-.62,6.26A31.07,31.07,0,0,0,316.05,65.2Z"/><path class="cls-1" d="M363.29,24.18v-12h14.58v12Zm14.58,8.21v53.1H363.29V32.39Z"/><path class="cls-1" d="M400.87,32.39v7.4h.31a16.76,16.76,0,0,1,7.19-6.73,20.83,20.83,0,0,1,9-2.1,24.79,24.79,0,0,1,9.6,1.59A14.26,14.26,0,0,1,432.92,37a17.38,17.38,0,0,1,3,6.88,43,43,0,0,1,.87,9V85.49H422.24v-30q0-6.57-2.06-9.81t-7.29-3.23q-6,0-8.63,3.54t-2.67,11.66V85.49H387V32.39Z"/><path class="cls-1" d="M462.29,69.67V85.49H446.16V69.67Z"/><path class="cls-1" d="M497.1,41.94a10.15,10.15,0,0,0-5.85,1.6,12.6,12.6,0,0,0-3.85,4.1,17.6,17.6,0,0,0-2.11,5.55,30.14,30.14,0,0,0-.62,6,28.88,28.88,0,0,0,.62,5.85,18.16,18.16,0,0,0,2,5.39,11.55,11.55,0,0,0,3.75,4,10.34,10.34,0,0,0,5.75,1.54q5.23,0,8.06-2.93a13.8,13.8,0,0,0,3.55-7.86h14.07Q521,75.72,514.25,81.28t-17.36,5.54a29.12,29.12,0,0,1-10.93-2,24.33,24.33,0,0,1-8.48-5.6A25.51,25.51,0,0,1,472,70.65a29.77,29.77,0,0,1-2-10.94,35.33,35.33,0,0,1,1.8-11.45,25.6,25.6,0,0,1,5.29-9.14,24.08,24.08,0,0,1,8.52-6A28.91,28.91,0,0,1,497.2,31a33.36,33.36,0,0,1,9.09,1.23,24.26,24.26,0,0,1,7.81,3.75,19.41,19.41,0,0,1,8.06,15.14H507.88Q506.44,41.95,497.1,41.94Z"/><path class="cls-1" d="M528.63,47.44A24.26,24.26,0,0,1,542.8,33a30.2,30.2,0,0,1,11.29-2,30.63,30.63,0,0,1,11.35,2,24.21,24.21,0,0,1,14.23,14.48,32.62,32.62,0,0,1,2,11.55,32.15,32.15,0,0,1-2,11.5,24.83,24.83,0,0,1-5.55,8.78,24.07,24.07,0,0,1-8.68,5.6,31.47,31.47,0,0,1-11.35,1.95,31,31,0,0,1-11.29-1.95,24.13,24.13,0,0,1-8.63-5.6,24.81,24.81,0,0,1-5.54-8.78,31.93,31.93,0,0,1-2-11.5A32.4,32.4,0,0,1,528.63,47.44ZM541.87,65.2A16.65,16.65,0,0,0,544,70.65a11.21,11.21,0,0,0,3.95,3.85,12.08,12.08,0,0,0,6.16,1.44,12.36,12.36,0,0,0,6.22-1.44,11.11,11.11,0,0,0,4-3.85,16.65,16.65,0,0,0,2.11-5.45A31.07,31.07,0,0,0,567,59a31.86,31.86,0,0,0-.61-6.26,16.06,16.06,0,0,0-2.11-5.45,11.81,11.81,0,0,0-4-3.85,12.06,12.06,0,0,0-6.22-1.49,11.78,11.78,0,0,0-6.16,1.49A11.93,11.93,0,0,0,544,47.28a16.06,16.06,0,0,0-2.11,5.45,31.86,31.86,0,0,0-.61,6.26A31.07,31.07,0,0,0,541.87,65.2Z"/><path class="cls-1" d="M602.87,32.39v7.19h.21A20.73,20.73,0,0,1,610,33.22a18.75,18.75,0,0,1,9.3-2.26,21.41,21.41,0,0,1,9.19,1.95,12.87,12.87,0,0,1,6.31,6.88,22.87,22.87,0,0,1,6.42-6.17,17.14,17.14,0,0,1,9.6-2.66,28.54,28.54,0,0,1,7.81,1,15.76,15.76,0,0,1,6.16,3.29,15.11,15.11,0,0,1,4,5.9A24.14,24.14,0,0,1,670.24,50V85.49H655.66V55.4c0-1.78-.07-3.46-.2-5a10.63,10.63,0,0,0-1.14-4.1,6.8,6.8,0,0,0-2.72-2.78,9.85,9.85,0,0,0-4.87-1,9.33,9.33,0,0,0-5,1.18,8.59,8.59,0,0,0-3,3.08A12.32,12.32,0,0,0,637.33,51a33.09,33.09,0,0,0-.36,4.88V85.49H622.39V55.71c0-1.58,0-3.14-.11-4.68a13,13,0,0,0-.87-4.26,6.54,6.54,0,0,0-2.57-3.13,9.65,9.65,0,0,0-5.28-1.18,10.84,10.84,0,0,0-2.73.46,9,9,0,0,0-3.28,1.75,10,10,0,0,0-2.72,3.69,14.93,14.93,0,0,0-1.13,6.32V85.49H589.11V32.39Z"/><rect class="cls-2" x="65.99" width="32.99" height="32.99"/><rect class="cls-2" x="32.99" y="32.99" width="32.99" height="32.99"/><rect class="cls-3" x="65.99" y="32.99" width="32.99" height="32.99"/><rect class="cls-3" x="32.99" width="32.99" height="32.99"/><rect class="cls-3" y="32.99" width="32.99" height="32.99"/><rect class="cls-3" x="32.99" y="65.99" width="32.99" height="32.99"/><rect class="cls-4" width="32.99" height="32.99"/><rect class="cls-4" x="65.99" y="65.99" width="32.99" height="32.99"/><rect class="cls-2" y="65.99" width="32.99" height="32.99"/><rect class="cls-3" y="96.63" width="2.36" height="2.36"/><rect class="cls-3" x="96.63" width="2.36" height="2.36"/></g></g></svg>