<svg xmlns="http://www.w3.org/2000/svg" viewBox="0 0 100 12.48"><defs><style>.cls-1{fill:#153a62;}.cls-2{fill:#789eb2;}.cls-3{fill:#3558a8;}.cls-4{fill:#b1d4e5;}.cls-5{fill:#11ade4;}</style></defs><title>Asset 1</title><g id="Layer_2" data-name="Layer 2"><g id="Layer_3" data-name="Layer 3"><path class="cls-1" d="M20.85,1.91c2,0,3.31.85,3.31,2.18A1.91,1.91,0,0,1,22.7,5.94a2.16,2.16,0,0,1,1.73,2.18c0,1.48-1.33,2.42-3.4,2.42H16.62V1.91ZM19.16,5.29h1.55a.74.74,0,0,0,.83-.75c0-.44-.32-.71-.83-.71H19.16Zm0,3.34h1.55c.66,0,1.06-.32,1.06-.83S21.37,7,20.71,7H19.16Z"/><path class="cls-1" d="M31.66,8.39v2.15H25.48V1.91H28V8.39Z"/><path class="cls-1" d="M41.46,6.22a4.45,4.45,0,0,1-4.7,4.43,4.42,4.42,0,1,1,0-8.82A4.42,4.42,0,0,1,41.46,6.22Zm-6.78,0A2.19,2.19,0,0,0,36.8,8.5a2.13,2.13,0,0,0,2-2.27A2.11,2.11,0,0,0,36.8,4,2.16,2.16,0,0,0,34.68,6.23Z"/><path class="cls-1" d="M50.07,3.36,48.59,5.11A2.81,2.81,0,0,0,46.54,4a2.1,2.1,0,0,0-2.06,2.22,2.11,2.11,0,0,0,2.06,2.23,3.14,3.14,0,0,0,2.05-1L50.07,9a5.23,5.23,0,0,1-3.66,1.67A4.38,4.38,0,0,1,41.86,6.2,4.39,4.39,0,0,1,46.5,1.83,5.08,5.08,0,0,1,50.07,3.36Z"/><path class="cls-1" d="M54.38,7.38l-1,1.09v2.07H50.85V1.91h2.56V5.23L56.3,1.91h3L56.13,5.42l3.32,5.12H56.39Z"/><path class="cls-1" d="M67.7,3.36,66.22,5.11a2.81,2.81,0,0,0-2-1.15,2.1,2.1,0,0,0-2.06,2.22,2.11,2.11,0,0,0,2.06,2.23,3.14,3.14,0,0,0,2-1L67.7,9a5.21,5.21,0,0,1-3.65,1.67A4.38,4.38,0,0,1,59.49,6.2a4.39,4.39,0,0,1,4.64-4.37A5,5,0,0,1,67.7,3.36Z"/><path class="cls-1" d="M74.11,10.54V7.32H71v3.22H68.48V1.91H71V5.34h3.07V1.91h2.56v8.63Z"/><path class="cls-1" d="M80.45,9.16l-.52,1.38H77.3L81,1.91h2.63l3.56,8.63H84.44l-.51-1.38Zm1.77-4.69L81.16,7.29h2.1Z"/><path class="cls-1" d="M87.8,10.54V1.91h2.56v8.63Z"/><path class="cls-1" d="M97.82,10.54l-3.65-4.8v4.8H91.82V1.91H94l3.65,4.82V1.91H100v8.63Z"/><path class="cls-2" d="M8.87,2.1,6.35,4.62,3.72,2,5.34.37a1.29,1.29,0,0,1,1.8,0Z"/><rect class="cls-3" x="7.08" y="2.84" width="3.56" height="3.54" transform="translate(-0.66 7.62) rotate(-45)"/><path class="cls-4" d="M12.11,7.14,10.49,8.76,8.85,7.12,11.37,4.6l.74.74A1.29,1.29,0,0,1,12.11,7.14Z"/><path class="cls-1" d="M6.35,4.62,2.1,8.87.37,7.14a1.29,1.29,0,0,1,0-1.8L3.72,2Z"/><path class="cls-5" d="M10.49,8.76,7.14,12.11a1.29,1.29,0,0,1-1.8,0L2.1,8.87,6.35,4.62Z"/></g></g></svg>