<svg xmlns="http://www.w3.org/2000/svg" xmlns:xlink="http://www.w3.org/1999/xlink" viewBox="0 0 227.07 56.29"><defs><style>.cls-1{fill:#393839;}.cls-2{fill:url(#linear-gradient);}.cls-3{fill:url(#linear-gradient-2);}</style><linearGradient id="linear-gradient" x1="58.37" y1="10.63" x2="38.85" y2="55.16" gradientUnits="userSpaceOnUse"><stop offset="0" stop-color="#fec14c"/><stop offset="1" stop-color="#fe882b"/></linearGradient><linearGradient id="linear-gradient-2" x1="29.19" y1="-2.16" x2="9.67" y2="42.37" xlink:href="#linear-gradient"/></defs><title>CCN</title><g id="Layer_2" data-name="Layer 2"><g id="Layer_1-2" data-name="Layer 1"><path class="cls-1" d="M227,36c0,4.87-.06,9.74,0,14.6,0,1.79-.64,2.44-2.38,2.36-1.93-.08-3.87-.1-5.79,0s-2.49-.65-2.47-2.51c.07-8.3,0-16.6,0-24.9,0-3.14-.56-6.08-3.1-8.37-4.17-3.76-15.43-3.64-19.44.29a9,9,0,0,0-2.63,6.79c0,8.51,0,17,0,25.54,0,3-.12,3.11-3.17,3.12-1.93,0-3.86,0-5.8,0-1.35,0-1.9-.6-1.9-2,0-9.8-.18-19.61.1-29.4.24-8.2,7.15-15.65,15.94-17.43a32.5,32.5,0,0,1,17.38.75A19.49,19.49,0,0,1,227,23.55C227.05,27.7,227,31.85,227,36Z"/><path class="cls-1" d="M114.42,53h-9A19.35,19.35,0,0,1,86.75,40a32.15,32.15,0,0,1-.1-21.49A19.37,19.37,0,0,1,105.34,5.23c6.58,0,13.17,0,19.76,0,1.82,0,2.63.61,2.56,2.48-.09,2.07-.09,4.16,0,6.23.07,1.86-.7,2.52-2.54,2.5-6.37-.06-12.75,0-19.12,0-6.11,0-9.91,3.73-10,9.88,0,2.85-.42,5.73.4,8.54,1.35,4.59,4.35,6.9,9.12,6.92,6.45,0,12.89.07,19.34,0,2,0,2.91.59,2.78,2.69s-.08,4,0,6c.07,1.81-.6,2.6-2.49,2.55C121.58,52.88,118,53,114.42,53Z"/><path class="cls-1" d="M160.34,52.94c-3.4-.19-7.56.38-11.69-.26a20.12,20.12,0,0,1-16.69-18c-.3-4.19-.59-8.47.23-12.63,2.05-10.46,9.89-16.8,20.51-16.82q9.35,0,18.69,0c2.64,0,2.74.12,2.75,2.82,0,1.94-.11,3.88,0,5.8s-.76,2.59-2.65,2.57c-6.29-.08-12.61.2-18.89-.09a9.46,9.46,0,0,0-9.95,9.93c.13,2,0,4,0,6,.16,5.81,3.86,9.45,9.64,9.48,6.16,0,12.32,0,18.47,0,3.28,0,3.31.05,3.31,3.4,0,1.57,0,3.15,0,4.72,0,3,0,3-3,3Z"/><path class="cls-2" d="M30.88,35.37a8.61,8.61,0,0,0-3.15,1.76c-1.23.86-1.86.18-2.34-.8s-2.13-2-.36-3.24c2.3-1.58,4.6-3.17,7-4.61a3.94,3.94,0,0,1,5.48,1.27c1.54,2.23,3,4.56,4.43,6.85,1.28,2-.76,2.18-1.63,3s-1.84.82-2.55-.47a5.84,5.84,0,0,0-2.17-2.6c-.76,4-1.71,7.8-2.13,11.65-.24,2.22,2.25,3.34,4.59,2.29C45.77,46.92,50.51,40.92,52,32.6c2.16-12.31-4.24-23.1-16-27.51-.85-.32-2-.46-1.68-1.78s.18-3.16,2-3.13c8.15.13,16.48-1.42,24.21,2.7,9.21,4.91,14.46,12.55,15.23,22.87C76.48,36.94,72,45.82,62.5,52a25.05,25.05,0,0,1-14.25,4c-3.57,0-7.14,0-10.72,0-6.28,0-10.41-4.38-8.68-10.9C29.68,42,30.19,38.71,30.88,35.37ZM48,49.37c10.05-4,15.68-14.81,13.83-25.89C60.55,15.79,53,6.84,47.49,6.58,60.09,18.34,60.48,36.73,48,49.37Zm9.88-.52C65.5,46.27,71.7,36.18,71.31,27.52,70.91,18.26,64.6,8.69,57.78,7A29,29,0,0,1,57.89,48.85Z"/><path class="cls-3" d="M21.47,19.9c.87-4,2.07-7.83,2.15-11.82,0-2.08-2.15-3.17-4.31-2.26a22.84,22.84,0,0,0-10.65,9A24.4,24.4,0,0,0,21.2,51.28c2,.69,2.13,1.36,1.34,3.84-.6,1.86-1.77,1-2.76.68A28.94,28.94,0,0,1,8.35,8.05a29.27,29.27,0,0,1,9.12-6.34c6-2.63,11.49,1.1,11,7.61A95.51,95.51,0,0,1,26.63,19c-.11.55-.5,1.22,0,1.61s1-.23,1.52-.51c2.72-1.66,2.88-1.58,4.37,1.27.54,1,.25,1.56-.6,2.11-2.1,1.36-4.14,2.82-6.27,4.13-2.52,1.53-4.66,1.05-6.31-1.37C18,24.19,16.68,22,15.3,20c-1.29-1.94.61-2.22,1.52-3s1.85-.84,2.59.42A6.09,6.09,0,0,0,21.47,19.9Z"/></g></g></svg>