<svg xmlns="http://www.w3.org/2000/svg" viewBox="0 0 670.24 195.55"><defs><style>.cls-1{fill:#c83a52;}.cls-2{fill:#26262c;}</style></defs><title>coinpoker</title><g id="Layer_2" data-name="Layer 2"><g id="Layer_1-2" data-name="Layer 1"><path class="cls-1" d="M97.62,195.55a97.78,97.78,0,1,1,97.92-97.13A97.71,97.71,0,0,1,97.62,195.55ZM21,101.14c0,.9,0,1.8,0,2.7,0,.14,0,.27,0,.4A38.74,38.74,0,0,0,31.9,127.43,37.74,37.74,0,0,0,49.18,138a32.49,32.49,0,0,0,17.55.21A48.48,48.48,0,0,0,82.8,130.2a106.4,106.4,0,0,0,15.63-14.52c.36-.39.55-.82,1.09-.1a73.42,73.42,0,0,0,11.69,12.53,51.9,51.9,0,0,0,18.14,10.25,34.65,34.65,0,0,0,13.53,1.45,29.79,29.79,0,0,0,16.17-6.76c6.59-5.35,11.89-11.72,15.09-19.68a29.66,29.66,0,0,0,1.65-15.32,40.1,40.1,0,0,0-4.93-14.47A38.22,38.22,0,0,0,155.25,68a35,35,0,0,0-22.85-3.61,46.17,46.17,0,0,0-18.83,8.15A84.16,84.16,0,0,0,101,83.7c-5.8,6.16-11.07,12.79-16.78,19-5.31,5.79-11,11.17-17.9,15a18.85,18.85,0,0,1-7.19,2.56c-3,.31-5.65-.8-8.17-2.18a21.82,21.82,0,0,1-8.26-8.2,16.31,16.31,0,0,1-2.1-11.61,19.19,19.19,0,0,1,5.83-10.16,14.59,14.59,0,0,1,13-4.29,33.23,33.23,0,0,1,13.95,5.9,9.74,9.74,0,0,0,3.8,1.94,10.12,10.12,0,0,0,8.27-2.25c3.13-2.36,4.83-8,2-12.14-1.39-2.08-2.83-4.11-4.17-6.22a21.11,21.11,0,0,1-3.09-8.26,12.14,12.14,0,0,1,.45-5.63A22.42,22.42,0,0,1,89.39,46,12.46,12.46,0,0,1,99.47,43.5a22.8,22.8,0,0,1,15.31,10.27c3.15,4.95,8.49,6.38,13.26,3.45a9.1,9.1,0,0,0,3.74-12A35.09,35.09,0,0,0,118.13,30.3a40.21,40.21,0,0,0-17.06-5.86,32.27,32.27,0,0,0-13,1.13c-9.73,2.92-16.88,9.18-22.09,17.69a32.46,32.46,0,0,0-5,20.32c.07.79-.22,1.12-1,1a26.73,26.73,0,0,0-5,0A32.64,32.64,0,0,0,40.11,69,38.48,38.48,0,0,0,27.33,81.16,35.39,35.39,0,0,0,21,101.14Zm76,68.2a30.07,30.07,0,0,0,9.15-1.44A95.49,95.49,0,0,0,120,162a9.78,9.78,0,0,0,3.78-14.42,10,10,0,0,0-12.63-2.74,83.37,83.37,0,0,1-11.07,4.56,8.26,8.26,0,0,1-6-.33,57.64,57.64,0,0,1-7.56-3.83,9.31,9.31,0,0,0-14.12,4.32,8.75,8.75,0,0,0,3.15,11.57,68.85,68.85,0,0,0,10.83,5.75A26.29,26.29,0,0,0,97,169.34ZM89.76,62.05A8.82,8.82,0,0,0,98.6,71a9,9,0,0,0,8.9-8.82,9.11,9.11,0,0,0-9-8.91A9,9,0,0,0,89.76,62.05Z"/><path class="cls-1" d="M140.48,83.11c3.32,0,7,2,10.09,5.24a23.38,23.38,0,0,1,6.05,12.26,10,10,0,0,1-1.14,7,35.43,35.43,0,0,1-7.49,9.66c-3.33,2.83-7.07,4.12-11.48,3-4.69-1.19-8.54-3.82-12.14-6.87a65.46,65.46,0,0,1-10.86-11.81c-1.25-1.73-1.33-1.77.09-3.36s3.13-3.26,4.75-4.85a39,39,0,0,1,12.31-8.53A24.4,24.4,0,0,1,140.48,83.11Z"/><path class="cls-2" d="M292.45,111.88a6.11,6.11,0,0,0-3.93,1.46,19.24,19.24,0,0,1-13,4.7c-10.26,0-17.36-8.55-17.36-18.81v-.17c0-10.27,7.27-18.64,17.36-18.64a19.74,19.74,0,0,1,12.23,4.27A6.88,6.88,0,0,0,291.68,86a6.42,6.42,0,0,0,6.5-6.41,6.56,6.56,0,0,0-2.57-5.21c-5-3.68-11-6.08-20-6.08-18.38,0-31.21,13.94-31.21,31v.17c0,17.19,13.08,30.78,30.7,30.78,9.58,0,15.9-2.82,21.29-7.52a6.08,6.08,0,0,0-3.93-10.78Z"/><path class="cls-2" d="M328.65,82.46c-14.28,0-24.88,10.7-24.88,23.87v.16c0,13.18,10.52,23.69,24.71,23.69s24.89-10.69,24.89-23.85v-.18C353.37,93,342.85,82.46,328.65,82.46Zm11.89,24c0,6.76-4.45,12.5-11.89,12.5-7.18,0-12-5.91-12-12.66v-.18c0-6.75,4.44-12.48,11.88-12.48,7.19,0,12.06,5.9,12.06,12.66Z"/><path class="cls-2" d="M367.93,82.81a6.49,6.49,0,0,0-6.49,6.5v33.86a6.5,6.5,0,1,0,13,0V89.31A6.49,6.49,0,0,0,367.93,82.81Z"/><path class="cls-2" d="M367.93,66.3c-4.1,0-7.26,2.32-7.26,6.08v.17c0,3.76,3.16,6.15,7.26,6.15s7.27-2.39,7.27-6.15v-.17C375.2,68.62,372,66.3,367.93,66.3Z"/><path class="cls-2" d="M411.13,82.46c-6.58,0-10.43,3.51-13.42,7.36v-.51a6.5,6.5,0,0,0-13,0v33.86a6.5,6.5,0,0,0,13,0V103.59c0-6.16,3.16-9.32,8.12-9.32s7.87,3.16,7.87,9.32v19.58a6.5,6.5,0,1,0,13,0V99.48C426.69,89,421,82.46,411.13,82.46Z"/><path class="cls-2" d="M460.21,69.37A20.64,20.64,0,0,0,439.46,90v33.05a6.6,6.6,0,1,0,13.19,0V111.22l6.27.07c13.48,0,24.25-7.2,24.25-21V90C483.17,77.85,474.54,69.37,460.21,69.37Zm9.62,21.1a8.38,8.38,0,0,1-.71,3.57,7.07,7.07,0,0,1-1.64,2.42c-1.71,1.93-4.49,3.14-8.13,3.14l-6.7-.14v-9.2a8.67,8.67,0,0,1,8.7-8.63,13,13,0,0,1,1.71.14,4.71,4.71,0,0,1,1.5.43c.07.07.14.14.21.07a8.21,8.21,0,0,1,2.71,1.86,3.46,3.46,0,0,1,1,1.28,6.87,6.87,0,0,1,.71,1.21,9.8,9.8,0,0,1,.64,3.71Z"/><path class="cls-2" d="M512,82.46c-14.28,0-24.88,10.7-24.88,23.87v.16c0,13.18,10.51,23.69,24.71,23.69s24.88-10.69,24.88-23.85v-.18C536.67,93,526.16,82.46,512,82.46Zm11.88,24c0,6.76-4.44,12.5-11.88,12.5-7.18,0-12.06-5.91-12.06-12.66v-.18c0-6.75,4.45-12.48,11.89-12.48,7.18,0,12.05,5.9,12.05,12.66Z"/><path class="cls-2" d="M571.59,103.07l10.26-8.8c1.8-1.71,3-3.42,3-5.64a5.69,5.69,0,0,0-5.73-5.82c-2.31,0-3.85,1.11-5.73,2.91l-16.25,15.39V72.72a6.5,6.5,0,0,0-13,0v50.45a6.5,6.5,0,0,0,13,0v-7.44l5.22-4.7,11.37,15.65a6.18,6.18,0,0,0,5.64,3,5.9,5.9,0,0,0,6.08-5.9,6.87,6.87,0,0,0-1.63-4.19Z"/><path class="cls-2" d="M612.07,82.46c-13.34,0-22.66,10.78-22.66,23.87v.16c0,14,10.17,23.69,23.94,23.69a23.83,23.83,0,0,0,15.91-5.55,5.12,5.12,0,0,0,1.71-3.86,5,5,0,0,0-5.05-5.12,4.85,4.85,0,0,0-3.16,1,15,15,0,0,1-9.24,3.08c-5.81,0-9.92-3.08-11.2-9h25.74a5.94,5.94,0,0,0,6.07-6.25C634.13,95,627.37,82.46,612.07,82.46Zm-9.92,20.19c1-5.9,4.53-9.75,9.92-9.75s8.89,3.94,9.66,9.75Z"/><path class="cls-2" d="M663.92,82.81c-3.85,0-6.93,4.1-8.81,8.55v-2a6.5,6.5,0,0,0-13,0v33.86a6.5,6.5,0,0,0,13,0V111c0-9.24,3.68-14.28,10.26-15.82a6,6,0,0,0,4.87-6.07C670.24,85.46,667.94,82.81,663.92,82.81Z"/></g></g></svg>