<svg xmlns="http://www.w3.org/2000/svg" viewBox="0 0 504.3191 119.9154">
  <defs>
    <style>
      .cls-1 {
        fill: #ff3200;
      }
    </style>
  </defs>
  <title>cryptoaltum</title>
  <g id="Layer_2" data-name="Layer 2">
    <g id="Layer_1-2" data-name="Layer 1">
      <g>
        <path class="cls-1" d="M9.0852,116.5306c-2.928-.4815-5.787-1.3826-8.7864-2.1185,10.6425.7355,21.12,2.0642,31.5987,2.0744,36.3286.0353,71.2454-8.1977,105.614-19.143,44.6831-14.23,86.9924-34.0125,128.7758-55.0663C300.1287,25.2251,335.18,11.35,372.6144,4.367,381.91,2.6329,391.3367,1.4254,400.7716.6062A173.2832,173.2832,0,0,1,451.1458,3.83c17.6911,3.7319,33.8264,10.9665,47.6751,22.8364,1.5155,1.299,2.9618,2.6811,4.3984,4.068a11.9205,11.9205,0,0,1,1.1,2.239,108.855,108.855,0,0,0-42.7564-21.7146c-26.2219-6.75-52.447-5.4966-78.6754-.3722C342.3552,18.8054,304.6252,34.44,268.0259,53.078c-38.153,19.43-77.0819,37.0062-118.1081,49.5573-28.5487,8.7339-57.5413,15.3044-87.46,17.1027A296.7364,296.7364,0,0,1,9.0852,116.5306Z"/>
        <path class="cls-1" d="M45.1505,64.9731a21.2609,21.2609,0,0,1-14.53,5.86c-14.27,0-19.8-9.98-19.89-19.56-.08-9.65,5.95-20.05,19.89-20.05a19.8422,19.8422,0,0,1,13.95,5.44l7.27-7.01a29.8383,29.8383,0,0,0-21.22-8.83c-20.88,0-30.7,15.35-30.62,30.45.09,15.02,9.16,29.8,30.62,29.8,8.34,0,16.02-2.73,21.96-8.59Z"/>
        <path class="cls-1" d="M76.9305,37.9831c-4.13,0-8.34.75-11.48,5.78l-.74-4.7h-9.33v40.69h10.07v-21.46c0-7.51,4.87-10.32,10.16-10.32a10.0784,10.0784,0,0,1,7.26,2.64l4.54-8.75A15.4964,15.4964,0,0,0,76.9305,37.9831Z"/>
        <path class="cls-1" d="M123.6405,39.0631l-7.43,17.83-4.21,11.22-3.88-11.47-6.19-17.58h-11.72l16.26,40.03-7.59,17.66h11.06l24.84-57.69Z"/>
        <path class="cls-1" d="M163.3405,38.1532c-4.62,0-10.07,1.98-13.21,6.52l-.66-5.61h-9.41v55.35q5.055-1.6349,10.07-3.38v-16.07c2.89,4.46,9.25,5.78,13.54,5.78,13.04,0,20.55-9.41,20.55-21.3C184.2205,47.4831,175.8805,38.1532,163.3405,38.1532Zm-.74,32.85a11.2813,11.2813,0,0,1-11.56-11.56c0-6.35,4.29-11.55,11.56-11.55,7.26,0,11.55,5.2,11.55,11.55A11.279,11.279,0,0,1,162.6005,71.0031Z"/>
        <path class="cls-1" d="M217.0705,47.8131v-8.67h-11.23v-11.55l-10.06,1.07v10.48h-7.6v8.67h7.6v17.58a19.0308,19.0308,0,0,0,1.31,7.34q4.725-2.04,9.37-4.1a6.7867,6.7867,0,0,1-.7-3.24v-17.58Z"/>
        <path class="cls-1" d="M243.7305,38.2331c-12.96,0-21.05,9.58-21.05,21.21,0,.61.02,1.21.07,1.8q5.22-2.43,10.33-4.87c1.06-4.88,4.7-8.98,10.73-8.98a10.459,10.459,0,0,1,5.12,1.3q4.92-2.4149,9.7-4.81A21.0906,21.0906,0,0,0,243.7305,38.2331Z"/>
        <path d="M264.8805,56.9231q-5.19,2.61-10.23,5.09c-.9,5.13-4.53,9.4-10.84,9.4a11.0345,11.0345,0,0,1-5.67-1.44q-4.95,2.3251-9.79,4.53c3.63,3.81,8.9,6.16,15.46,6.16,13.21,0,21.21-9.5,21.21-21.22A21.051,21.051,0,0,0,264.8805,56.9231Z"/>
        <path d="M316.2805,48.1231q-4.845,1.95-9.78,4.06l2.84,6.52h-21.46l7.18-16.45c-4.78,2.16-9.62,4.45-14.56,6.85l-13.75,30.65h11.81l4.95-10.9h30.21l4.87,10.9h11.88Z"/>
        <path d="M310.6005,35.4632q-4.74,1.98-9.6,4.13l3.35,7.67c2.45-1.56,5.6-3.32,9.22-5.19Z"/>
        <path class="cls-1" d="M304.5505,21.9731h-11.88l-3.16,7.05q7.755-3.465,15.29-6.5Z"/>
        <path d="M333.77,41.5232v38.23h9.99v-41.61Q338.7955,39.7332,333.77,41.5232Zm0-15v6.14c3.33-1.42,6.69-2.81,9.99-4.11v-5.41Q338.81,24.7482,333.77,26.5232Z"/>
        <path d="M376.8605,69.9331a11.5827,11.5827,0,0,1-4.87,1.23c-3.14,0-5.29-1.89-5.29-5.77v-17.58h11.31v-8.67h-11.22v-7.62q-5.01,1.26-10.07,2.69v4.93h-7.6v8.67h7.6v17.58c0,10.15,5.77,15.18,14.61,14.85a22.5406,22.5406,0,0,0,8.33-1.73Z"/>
        <path d="M416.0605,39.0631v20.8c0,6.19-4.21,11.39-10.4,11.39-6.44,0-9.82-4.71-9.82-10.9v-21.29H385.77v21.37c0,12.63,7.1,19.98,16.84,19.98,5.69,0,9.57-1.98,13.78-6.11l.66,5.53h9v-40.77Z"/>
        <path d="M481.4305,38.4831c-5.29,0-9.99,1.65-13.62,7.43-2.31-5.61-7.18-7.6-12.05-7.6-3.88,0-8.59,1.49-10.73,5.62l-.74-4.95h-9.33v40.77h10.07v-21.79c0-5.37,3.22-10.24,8.66-10.24,5.53,0,8.34,4.87,8.34,10.24v21.79h10.07v-21.79c0-5.37,3.38-10.07,8.83-10.07s7.68,4.54,7.68,9.9v21.96h10.07v-21.96C498.6805,45.5832,492.9805,38.4831,481.4305,38.4831Z"/>
        <path d="M488.1513,33.7019A108.9318,108.9318,0,0,0,451.1458,18.83a173.2868,173.2868,0,0,0-50.3742-3.2237c-9.4349.8192-28.0984,5.3175-37.1611,8.0169-21.004,6.2562-58.5406,23.3955-62.6421,28.7823,26.31-11.5591,53.42-20.9509,81.9189-26.5189,26.2284-5.1244,52.4536-6.3776,78.6754.3722a111.8784,111.8784,0,0,1,16.6432,5.677C487.3261,35.8867,491.84,36.0853,488.1513,33.7019Z"/>
      </g>
    </g>
  </g>
</svg>
