<svg xmlns="http://www.w3.org/2000/svg" viewBox="0 0 386 81.98"><defs><style>.cls-1{fill:#092d74;}</style></defs><title>crypto com</title><g id="Layer_2" data-name="Layer 2"><g id="Layer_1-2" data-name="Layer 1"><path class="cls-1" d="M35.5,0,0,20.5v41L35.5,82,71,61.48v-41Zm-14,16.72h.81q13.22,0,26.43,0c.55,0,.81.12.94.72,1,4.36,2,8.71,3.06,13.06,0,.17.06.34.1.55H18.26C19.34,26.26,20.4,21.52,21.46,16.72Zm9.62,44.5c-1.42,1.11-2.66,2.46-4,3.68a1.51,1.51,0,0,1-.87.35c-1.4,0-2.8,0-4.21,0a.9.9,0,0,1-.64-.35Q15.14,54.07,8.94,43.21c0-.08-.07-.17-.13-.3l4-3c1.64-1.23,3.29-2.45,4.92-3.69a.7.7,0,0,1,1,0q3.64,2.37,7.34,4.68a1,1,0,0,1,.5.95c0,2.74,0,5.49,0,8.24A1.4,1.4,0,0,0,27,51.19c1.82,1.71,3.61,3.44,5.39,5.2a1.68,1.68,0,0,1,.39.89A3.76,3.76,0,0,1,31.08,61.22ZM28.59,50.13c.09-.94.17-1.86.27-2.79.2-2,.42-3.91.61-5.86a1.64,1.64,0,0,0-.13-.68c-.86-2.28-1.75-4.58-2.62-6.87-.08-.2-.14-.4-.24-.67H44.59c-.08.24-.12.42-.19.6C43.61,36,42.85,38.1,42,40.2a4.54,4.54,0,0,0-.26,2.27c.26,2.48.5,5,.76,7.44,0,.06,0,.11,0,.22Zm31.1-2.79c-3.29,5.77-6.6,11.53-9.87,17.31a1,1,0,0,1-1,.59c-1.27,0-2.54,0-3.81,0a1.59,1.59,0,0,1-1-.37c-1.79-1.6-3.55-3.24-5.28-4.89a1.58,1.58,0,0,1-.37-.84,3.85,3.85,0,0,1,1.64-4c1.47-1.2,2.76-2.63,4.15-4a1.23,1.23,0,0,0,.43-1c0-2.79,0-5.57,0-8.36a.88.88,0,0,1,.43-.86c2.46-1.58,4.9-3.19,7.35-4.79.25-.16.44-.3.76,0,3,2.27,5.94,4.5,8.9,6.75a1.08,1.08,0,0,1,.13.16Z"/><path class="cls-1" d="M114.59,29l-3.39,4a10.78,10.78,0,0,0-8.15-3.22c-4.94,0-8.48,3.7-8.48,9.12S98.11,48,103.05,48c3.59,0,6.49-1.18,8.42-3.43L114.91,48c-2.58,3.38-6.71,5.31-12.13,5.31-8.48,0-14.38-5.84-14.38-14.43s5.9-14.54,14.38-14.54C107.93,24.32,112,26,114.59,29Z"/><path class="cls-1" d="M127.52,30.22a10.37,10.37,0,0,1,9.87-5.9v5.9c-5.74-.32-9.39,3.06-9.87,7.94V53.08h-6.17V24.54h6.17Z"/><path class="cls-1" d="M152,64.21h-5l4.17-11.13L139.06,24.54h6.38l8.45,21.4,8-21.4h6.17Z"/><path class="cls-1" d="M202.43,38.92c0,8.53-5.37,14.37-13.52,14.37-4.56,0-8-1.82-10.09-5.15V63.49h-6.17V24.54h6.17v4.93c2.09-3.32,5.53-5.15,10-5.15C196.9,24.32,202.43,30.22,202.43,38.92Zm-6.23-.22c0-5.31-3.59-9.23-8.69-9.23s-8.69,3.86-8.69,9.23c0,5.53,3.59,9.34,8.69,9.34S196.2,44.17,196.2,38.7Z"/><path class="cls-1" d="M225,51.26a13.72,13.72,0,0,1-7,2.09c-4.29,0-8-2.47-8-8.32V30.22h-4V25.61h4V17.77h6.11v7.84h8.43v4.61h-8.43V43.91c0,3,1.13,3.86,3.06,3.86a9.88,9.88,0,0,0,4.29-1.24Z"/><path class="cls-1" d="M257.48,38.81c0,8.58-6.06,14.48-14.86,14.48s-14.92-5.9-14.92-14.48,6.07-14.49,14.92-14.49S257.48,30.17,257.48,38.81Zm-23.61,0c0,5.53,3.6,9.28,8.75,9.28s8.69-3.75,8.69-9.28-3.59-9.23-8.69-9.23S233.87,33.39,233.87,38.86Z"/><path class="cls-1" d="M268.59,50a3.39,3.39,0,1,1-6.76,0,3.38,3.38,0,1,1,6.76,0Z"/><path class="cls-1" d="M299.12,29l-3.38,4a10.78,10.78,0,0,0-8.15-3.22c-4.94,0-8.48,3.7-8.48,9.12S282.65,48,287.59,48c3.59,0,6.49-1.18,8.42-3.43L299.45,48c-2.58,3.38-6.71,5.31-12.13,5.31-8.48,0-14.38-5.84-14.38-14.43s5.9-14.54,14.38-14.54C292.47,24.32,296.5,26,299.12,29Z"/><path class="cls-1" d="M331.86,38.81c0,8.58-6.07,14.48-14.87,14.48s-14.91-5.9-14.91-14.48S308.14,24.32,317,24.32,331.86,30.17,331.86,38.81Zm-23.61,0c0,5.53,3.59,9.28,8.74,9.28s8.7-3.75,8.7-9.28-3.6-9.23-8.7-9.23S308.25,33.39,308.25,38.86Z"/><path class="cls-1" d="M386,35.32V53.08h-6.17V37c0-4.35-2.58-7-6.76-7-4.88.16-7.83,3.92-7.83,8.91V53.08h-6.18V37c0-4.35-2.52-7-6.7-7-4.94.16-7.94,3.92-7.94,8.91V53.08H338.3V24.54h6.12v5.52c2-4,5.63-5.74,10.35-5.74,5.1,0,8.59,2.52,9.93,6.87,1.82-4.78,5.63-6.87,10.84-6.87C382.08,24.32,386,28.51,386,35.32Z"/></g></g></svg>