<svg id="Layer_1" data-name="Layer 1" xmlns="http://www.w3.org/2000/svg" viewBox="0 0 724.01 218.49"><defs><style>.cls-1{fill:#9b87f9;}.cls-2{fill:#5f84fb;}.cls-3{fill:#317bfb;}.cls-4{fill:#41f6e7;}.cls-5{fill:#22295f;}</style></defs><title>EWN LOGO</title><polygon class="cls-1" points="119.06 110.47 119.06 218.49 238.13 162.03 119.06 110.47"/><polygon class="cls-2" points="0 162.03 119.06 218.49 119.06 110.47 0 162.03"/><polygon class="cls-3" points="119.06 0 0 162.03 119.06 110.47 119.06 0"/><polygon class="cls-4" points="238.13 162.03 119.06 0 119.06 110.47 238.13 162.03"/><path class="cls-5" d="M429.44,497.29v23.24h55.82v23.4H429.44V567.5h63.68l-4.77,23.4H399.68v-117h91.6v23.4Z" transform="translate(-119.29 -414.96)"/><path class="cls-5" d="M620.74,588.42,599,507.52l-22.06,80.9H546.18l-38.28-117h31.76l22.9,86.09L585,471.41H614L637,557.5l22.57-86.09h30.42l-38.62,117Z" transform="translate(-119.29 -414.96)"/><path class="cls-5" d="M787.21,588.42l-53.82-72v72H705.48v-117h26.24l54,72.22V471.41h27.74v117Z" transform="translate(-119.29 -414.96)"/><path class="cls-5" d="M843.3,433.4a13.88,13.88,0,0,1-13.85,13.89A13.86,13.86,0,1,1,843.3,433.4Zm-3.22,0A10.56,10.56,0,1,0,829.45,444,10.62,10.62,0,0,0,840.08,433.4ZM833,435.23l2.77,4.28H832l-2-3.67h-2.57v3.67h-3.22v-13h5.62c3.47,0,5.42,1.63,5.42,4.52A4.44,4.44,0,0,1,833,435.23Zm-3.06-1.92a2.07,2.07,0,0,0,2.33-2.2,2,2,0,0,0-2.33-2.16h-2.4v4.36Z" transform="translate(-119.29 -414.96)"/></svg>