<svg xmlns="http://www.w3.org/2000/svg" viewBox="0 0 297.6355 93.7417">
  <defs>
    <style>
      .cls-1 {
        fill: #0071bc;
      }

      .cls-2 {
        fill: #3b3b3b;
      }
    </style>
  </defs>
  <title>ideaology</title>
  <g id="Layer_2" data-name="Layer 2">
    <g id="Layer_1-2" data-name="Layer 1">
      <g id="Layer_1-2-2" data-name="Layer 1-2">
        <path class="cls-1" d="M39.5136,31.18c.6808.2708.3481,1.029.34,1.5474a1.763,1.763,0,0,0,2.8627.5571,1.0987,1.0987,0,0,0-.0384-1.5533,1.0812,1.0812,0,0,0-.0931-.0792c-.58-.5029-1.5474-.2089-2.0271-.8279-.1548-.3559,0-.7737,0-1.13a1.778,1.778,0,0,0-2.94.2167C37.5871,30.9481,38.7863,30.9481,39.5136,31.18Z"/>
        <path class="cls-1" d="M45.2931,29.9423c-.3249-.99-1.7253-1.0677-2.53-.6576a.8279.8279,0,0,0-.4333.6421C42.5387,31.3427,45.2235,31.4355,45.2931,29.9423Z"/>
        <path class="cls-1" d="M44.96,32.774c.3791,1.354,2.8163,1.5474,3.0948,0,.0465-1.1837-1.4777-1.7485-2.4217-1.3075a1.029,1.029,0,0,0-.68,1.2867Z"/>
        <path class="cls-1" d="M52.5272,33.6483a1.5473,1.5473,0,0,0-1.7253-1.9729.8587.8587,0,0,0-.94.7687c-.0018.0171-.003.0342-.0036.0514C49.7187,33.8031,51.738,34.8166,52.5272,33.6483Z"/>
        <path class="cls-1" d="M30.16,36.8514c.5416-.6653,0-1.6557.6113-2.2669s1.3926-.4565,1.9342-.99a1.207,1.207,0,0,0,.1934-1.6635c-.9516-.9207-2.9245.1238-2.5919,1.4159a1.5474,1.5474,0,0,1-1.323,1.5474,1.6324,1.6324,0,0,0-.89,2.53,1.47,1.47,0,0,0,2.02-.4916Q30.138,36.8927,30.16,36.8514Z"/>
        <path class="cls-1" d="M32.5967,35.01a1.3539,1.3539,0,0,0-.02,1.9147l.02.02c.41.41,1.1141.1625,1.5474.5957a1.3076,1.3076,0,0,1,.3172,1.385,1.5475,1.5475,0,0,0,1.826,1.7872A1.65,1.65,0,0,0,37.3627,38.12c-.4952-.6963-1.5474-.3559-2.0348-1.0677s0-1.4159-.1393-2.1277c0-.9207,1.0445-1.13,1.764-1.2147,0,0,1.06-.5957,1.0291-1.176.116-.8975-.9672-1.3308-1.71-1.1838A1.6246,1.6246,0,0,0,34.91,33.4858C34.5464,34.5149,33.177,34.2209,32.5967,35.01Z"/>
        <path class="cls-1" d="M38.2524,34.3214a1.3773,1.3773,0,0,0-.7737,2.1819,1.6818,1.6818,0,0,0,2.9014-.882C40.4807,34.5226,39.1577,33.9733,38.2524,34.3214Z"/>
        <path class="cls-1" d="M45.6335,36.0081c.3173-1.207-1.1373-2.0967-2.1973-1.6944a1.3076,1.3076,0,0,0-.7737,1.9884C43.3511,37.37,45.3086,37.2847,45.6335,36.0081Z"/>
        <path class="cls-1" d="M47.7922,36.5574c-.178,1.3153-1.9265.7737-2.4062,1.795a1.6633,1.6633,0,0,0,1.0367,2.3211,1.5474,1.5474,0,0,0,1.9828-.926q.0157-.0434.0288-.0875c.2322-.588-.3094-1.23.0542-1.795A1.47,1.47,0,0,1,49.7651,37.2a1.1528,1.1528,0,0,0,.9207-1.3385,1.7334,1.7334,0,0,0-2.3211-1.354C47.4982,34.8166,47.73,35.8379,47.7922,36.5574Z"/>
        <path class="cls-1" d="M54.7323,37.5091c1.2456-1.029-.3714-3.296-1.7641-2.4991C51.6143,35.9849,53.3706,38.3447,54.7323,37.5091Z"/>
        <path class="cls-1" d="M40.9913,37.5632a1.5474,1.5474,0,0,0-.99,2.3908c.472.8665,1.6557.5493,2.267,1.23A2.8769,2.8769,0,0,1,42.5387,42.5c-.1392.6808.2863,1.4622-.1856,2.0735s-1.5088.441-2.0968,1.0058a1.7331,1.7331,0,1,0,2.7389,2.0039c.41-.7737-.2243-1.6558.2554-2.3908s1.6092-.4255,2.1973-1.0909A1.6795,1.6795,0,0,0,45.239,41.61c-.4488-.3636-1.0677-.34-1.5474-.588a1.4623,1.4623,0,0,1-.5571-1.5474,1.6635,1.6635,0,0,0-2.1432-1.9111Z"/>
        <path class="cls-1" d="M52.1481,41.0062a1.2843,1.2843,0,0,0,1.223-1.3429l0-.0111A1.7131,1.7131,0,0,0,51.05,38.0429C49.6955,38.84,50.6858,41.1223,52.1481,41.0062Z"/>
        <path class="cls-1" d="M56.4654,41.4936h.0619c.9671.6964.0851,1.973.6731,2.8473.1934.4642.7737.8588,1.2534.4874a1.9113,1.9113,0,0,0,.3327-2.0581c-.1857-.7737-1.3463-.7737-1.4159-1.6247A2.9312,2.9312,0,0,0,56.86,38.778a1.0367,1.0367,0,0,0-1.7563.2089,1.9575,1.9575,0,0,0,1.2454,2.4723Q56.4066,41.4782,56.4654,41.4936Z"/>
        <path class="cls-1" d="M24.6585,44.9289c1.0058.1083,1.3772-1.1606,1.2225-1.9575-.178-.6189.1238-1.5474.8665-1.6093.735.147.7737,1.0368.6345,1.6248-.17.82.3636,1.88,1.3075,1.7872s1.47-1.3694,1.2457-2.3211.6886-1.5474,1.5474-1.6634h.0619a1.7255,1.7255,0,0,0,.65-2.5068,1.4775,1.4775,0,0,0-2.236.2476c-.5184.588-.3327,1.4158-.3869,2.1354a1.6324,1.6324,0,0,1-.8588.9439,1.2379,1.2379,0,0,1-.8743-.6035c-.1083-.7737.4024-1.5474-.1083-2.2437a1.0832,1.0832,0,0,0-1.6944.0774c-.6189.6266-.41,1.5474-.4487,2.3211a1.1681,1.1681,0,0,1-.6577.8123A1.7472,1.7472,0,0,0,24.6585,44.9289Z"/>
        <path class="cls-1" d="M32.62,44.4879c1.207.6731,2.6383-.7737,2.2051-1.9962A1.478,1.478,0,0,0,32.8365,41.47a1.7177,1.7177,0,0,0-.2166,3.0175Z"/>
        <path class="cls-1" d="M53.1152,45.7954c-.4255-.6886-1.4855-.4487-1.8491-1.2147-.4874-.6808.07-1.5474-.3559-2.2669a1.5473,1.5473,0,0,0-1.9652-.8588,1.6712,1.6712,0,0,0-.5107,2.646c.4643.6731,1.47.441,1.9111,1.1374.6189.7737-.1006,1.7949.4642,2.5841a1.3616,1.3616,0,0,0,2.0735.3946A1.795,1.795,0,0,0,53.1152,45.7954Z"/>
        <path class="cls-1" d="M54.5156,44.7509c1.6867-.3714,1.1374-3.4275-.6112-3.0948C52.28,42.0971,52.8212,44.9985,54.5156,44.7509Z"/>
        <path class="cls-1" d="M26.3839,45.3621c-1.354.472-1.1606,3.0948.3946,3.0407C28.3413,48.07,28.0706,45.1068,26.3839,45.3621Z"/>
        <path class="cls-1" d="M45.4479,47.544a1.64,1.64,0,0,0,2.1314.9152l.0427-.0177a1.7176,1.7176,0,0,0,.8488-2.2759q-.0341-.0747-.0751-.1458a1.6326,1.6326,0,0,0-2.2124-.66q-.0556.03-.1087.0643A1.71,1.71,0,0,0,45.4479,47.544Z"/>
        <path class="cls-1" d="M56.1946,48.4105c1.733,0,1.5474-3.3733-.1935-3.0329C54.6936,45.8341,54.7942,48.1707,56.1946,48.4105Z"/>
        <path class="cls-1" d="M34.3917,52.0082a1.7177,1.7177,0,0,0-.7737-2.8627,1.4623,1.4623,0,0,1-1.4159-1.2766,2.8621,2.8621,0,0,0-.147-1.9187,1.3849,1.3849,0,0,0-1.8823-.5413l-.0133.0074a1.818,1.818,0,0,0-.24,2.7544h0c.4874.4178,1.2611.3017,1.648.8588.5338.7041-.07,1.6093.3172,2.36a1.5473,1.5473,0,0,0,2.5068.6189Z"/>
        <path class="cls-1" d="M40.0087,51.8922A1.7021,1.7021,0,0,0,39.0648,49.2c-.6653-.1006-1.4932-.4023-1.5474-1.1838a7.3224,7.3224,0,0,0,0-1.9729A1.4082,1.4082,0,0,1,38.87,44.5816l.0322-.0009a1.71,1.71,0,0,0,1.4777-1.617,1.6865,1.6865,0,0,0-1.6394-1.7326c-.0235-.0007-.047-.0008-.07,0a1.71,1.71,0,0,0-1.64,1.7176c0,.5648.1934,1.2379-.2321,1.71s-1.3927.3868-1.9188.9052a1.7486,1.7486,0,0,0-.2244,2.4062c.5416.6577,1.5474.4256,2.0736,1.13.6808.7737-.07,1.8027.5183,2.5764a1.71,1.71,0,0,0,2.7621.2167Z"/>
        <path class="cls-1" d="M24.4806,48.9212a1.8182,1.8182,0,0,0,.263,2.7621C26.5309,51.9386,26.1363,48.2713,24.4806,48.9212Z"/>
        <path class="cls-1" d="M57.6569,48.9366c-.7737.5029-.6886,1.5474-.619,2.3211,0,.5958-.65,1.4391-1.2379.8975-.7737-.8278.2785-2.3211-.8666-3.01-1.3307-.7737-2.5841,1.2148-1.8027,2.3211.2476.5416.8665.619,1.3772.7351.7041.2243.6731,1.0754.5029,1.6557a1.1375,1.1375,0,0,0,.9362,1.4855,1.6868,1.6868,0,0,0,1.3879-1.94l-.003-.0175a1.47,1.47,0,0,1,.735-1.6712,1.8589,1.8589,0,0,0,.7273-2.3211C58.67,48.9521,58.0747,48.573,57.6569,48.9366Z"/>
        <path class="cls-1" d="M29.8733,55.0643a1.4935,1.4935,0,0,0,2.3211.3792,1.71,1.71,0,0,0-.9749-2.6151,1.594,1.594,0,0,1-1.1528-.7737c-.3095-.6809.1547-1.4623-.2089-2.1355a1.2922,1.2922,0,0,0-2.0194-.6808,1.7716,1.7716,0,0,0,.4024,2.77c.4642.1548,1.0135.3327,1.2147.8279C29.7572,53.5479,29.3858,54.4144,29.8733,55.0643Z"/>
        <path class="cls-1" d="M40.8134,56.1011a1.6557,1.6557,0,0,0,2.2824-1.7718,1.3617,1.3617,0,0,1,1.0755-1.764,1.7949,1.7949,0,0,0,1.733-1.7718,1.679,1.679,0,0,0-2.3984-1.4855,1.8184,1.8184,0,0,0-.89.9826c-.2708.6963.2321,1.4855-.1934,2.1432-.5416.7737-1.7563.4487-2.3211,1.2379a1.5473,1.5473,0,0,0,.7118,2.4294Z"/>
        <path class="cls-1" d="M50.6317,51.8767a1.7487,1.7487,0,0,0,.0851-2.2747,1.4315,1.4315,0,0,0-1.6016-.4178,1.6792,1.6792,0,0,0-.9594.9207c-.3868.7118.1625,1.5939-.3017,2.2824s-1.4778.4875-2.05,1.0523a1.5473,1.5473,0,0,0-.25,2.174q.0381.048.08.0929A1.702,1.702,0,0,0,48.326,55.25c.4178-.6963-.1392-1.5474.3482-2.236S50.1133,52.4957,50.6317,51.8767Z"/>
        <path class="cls-1" d="M26.1363,52.4879c-1.2457.7737-.3559,3.2109,1.1141,2.8008C28.674,54.662,27.63,51.9463,26.1363,52.4879Z"/>
        <path class="cls-1" d="M51.05,55.7065c1.2611.65,2.7311-.9284,2.1663-2.1741a1.3076,1.3076,0,0,0-1.9342-.5184C50.3609,53.5247,50.005,55.1185,51.05,55.7065Z"/>
        <path class="cls-1" d="M35.0725,55.7916a1.6171,1.6171,0,0,0,2.5765-.7737A1.7408,1.7408,0,0,0,35.15,53.192a1.5474,1.5474,0,0,0-.0774,2.6Z"/>
        <path class="cls-1" d="M28.3181,56.14a1.3965,1.3965,0,0,0-.2166,2.1122c.5184.5648,1.5938.9439,2.12.2244A1.6681,1.6681,0,0,0,28.3181,56.14Z"/>
        <path class="cls-1" d="M53.68,56.1321a1.6859,1.6859,0,0,0-.9671,2.4139c.8588.882,2.3211,0,2.4526-1.1219a1.0986,1.0986,0,0,0-1.4855-1.292Z"/>
        <path class="cls-1" d="M37.8114,61.8188c.4333-.5339-.1934-1.2148.147-1.7718.4952-.6964,1.5474-.3327,2.0968-.9749a1.323,1.323,0,0,0-.0285-1.8708,1.2931,1.2931,0,0,0-.1185-.1021,1.7021,1.7021,0,0,0-2.6074.4255c-.3791.6422.3868,1.5474-.2708,2.0658a1.1373,1.1373,0,0,1-1.8491-.9826A1.7562,1.7562,0,0,0,32.86,56.635c-.7737.3559-.6809,1.3152-.4875,1.9961s-.557.9439-1.0677.9439a1.0291,1.0291,0,0,0-1.0677.9594c-.0851,1.3153,1.8724,2.2128,2.7312,1.1528.4565-.6112-.3791-1.3926.1392-1.9729.6886-.7118,1.942.147,1.795,1.0522C34.6238,62.2675,36.9836,62.987,37.8114,61.8188Z"/>
        <path class="cls-1" d="M50.7554,59.2887c-.5493-.6034.2244-1.4081-.147-2.0735a1.3153,1.3153,0,0,0-1.6789-.6344,1.6275,1.6275,0,0,0-1.0367,2.3211c.41.6576,1.2766.3791,1.8491.7737.6267.6035-.3327,1.4855.2476,2.1045.9981,1.0986,3.2031-.24,2.5609-1.6325C52.2177,59.3584,51.2893,59.722,50.7554,59.2887Z"/>
        <path class="cls-1" d="M45.7032,58.1282A1.5512,1.5512,0,0,0,43.46,56.8129a1.4155,1.4155,0,0,0-.7737,2.05A1.695,1.695,0,0,0,45.7032,58.1282Z"/>
        <path class="cls-1" d="M43.1268,62.4454c-.4488-.41-.0542-.9825-.147-1.47a1.6712,1.6712,0,0,0-2.1893-.89q-.0673.0284-.1318.0625a1.1062,1.1062,0,0,0-.5107,1.6866c.5107.72,1.5474.3946,2.1664.9439.4255.4565-.2553,1.1838.3481,1.5474.7737.5958,2.561.4488,2.6384-.7737C45.0455,62.5925,43.8154,62.8942,43.1268,62.4454Z"/>
        <path class="cls-1" d="M45.8115,60.1011a1.2151,1.2151,0,0,0-.7041,1.7409,1.7253,1.7253,0,0,0,2.8859-.6345C48.1171,60.0857,46.6471,59.6137,45.8115,60.1011Z"/>
        <path class="cls-1" d="M38.2215,62.91a.7736.7736,0,0,0-.17,1.4777c.7737.4488,2.2515.472,2.4913-.5648C40.4265,62.7859,39.0184,62.5228,38.2215,62.91Z"/>
        <path class="cls-2" d="M12.79,65.1766a6.6075,6.6075,0,0,0-6.267-4.6035,6.2649,6.2649,0,0,0-1.2766.1315A6.5842,6.5842,0,0,0,.1632,65.7027,6.5145,6.5145,0,0,0,3.0491,72.666a6.3981,6.3981,0,0,0,3.4816,1.0058,6.6746,6.6746,0,0,0,1.9652-.294,6.26,6.26,0,0,0,1.7409-.8433A6.5534,6.5534,0,0,0,12.79,65.1766Zm68.2868-2.6a6.5437,6.5437,0,1,0-8.4161,9.93l.0524.0354a6.1353,6.1353,0,0,0,3.59,1.1142,6.849,6.849,0,0,0,3.1877-.7737,6.1284,6.1284,0,0,0,2.3211-2.1354A6.6076,6.6076,0,0,0,81.0768,62.577ZM12.4882,23.892a6.6,6.6,0,0,0-5.9807-3.8066,5.7783,5.7783,0,0,0-1.8027.2785A6.5378,6.5378,0,0,0,6.5462,33.1532a6.8029,6.8029,0,0,0,2.1432-.3482,6.1911,6.1911,0,0,0,1.8414-.9981,6.5454,6.5454,0,0,0,1.9574-7.9381ZM47.8541,85.8576a6.6229,6.6229,0,0,0-6.445-5.2379,5.9437,5.9437,0,0,0-1.6325.2243,6.4529,6.4529,0,0,0-3.9458,2.9865,6.3672,6.3672,0,0,0-.7737,4.7892,6.6382,6.6382,0,0,0,6.4062,5.1219,5.8581,5.8581,0,0,0,1.5474-.2011,6.507,6.507,0,0,0,4.0155-2.9246,6.3446,6.3446,0,0,0,.8279-4.7815ZM81.58,22.7005a6.5922,6.5922,0,0,0-5.2844-2.6229,6.1355,6.1355,0,0,0-2.414.48,6.5687,6.5687,0,0,0-3.9458,7.3966,6.4989,6.4989,0,0,0,6.0116,5.1915,4.3994,4.3994,0,0,0,.4565,0,6.4679,6.4679,0,0,0,3.1567-.8433,6.3975,6.3975,0,0,0,2.3211-2.2592,6.5069,6.5069,0,0,0-.3017-7.3656ZM47.4827,4.0079A6.6539,6.6539,0,0,0,41.3937,0a5.9437,5.9437,0,0,0-2.0813.3636,6.4372,6.4372,0,0,0-3.83,3.5049,6.2823,6.2823,0,0,0-.1315,5.0755,6.592,6.592,0,0,0,6.19,4.1625,5.9337,5.9337,0,0,0,2.6925-.619,6.468,6.468,0,0,0,3.3423-3.6441A6.3673,6.3673,0,0,0,47.4827,4.0079Z"/>
        <path class="cls-2" d="M13.5714,23.3658a6.2975,6.2975,0,0,1,.3791.9826l7.1335-4.1547c4.3637-2.53,10.0581-5.78,14.6462-8.41a7.3118,7.3118,0,0,1-1.4933-2.4063c-.0541-.1315-.1083-.2707-.1547-.41C27.9545,12.48,20.7127,16.65,14.84,20.0467L12.3644,21.509A7.4442,7.4442,0,0,1,13.5714,23.3658Z"/>
        <path class="cls-2" d="M48.6742,9.2845a8.0247,8.0247,0,0,1-1.4932,2.4372c.4951.3172,1.029.65,1.2533.7737,2.8008,1.5938,5.6326,3.2418,8.3792,4.8278C60.3725,19.389,65.1,22.1743,68.93,24.3407a7.969,7.969,0,0,1,1.5474-2.8163h0C63.3049,17.3929,54.81,12.387,48.8135,8.9131Q48.7531,9.1021,48.6742,9.2845Z"/>
        <path class="cls-2" d="M77.982,55.7065h0V34.159a7.7407,7.7407,0,0,1-1.5474.17h-.5184a7.2194,7.2194,0,0,1-1.1606-.147V50.2906a9.0615,9.0615,0,0,0,0,1.0213v3.2728h0V58.368h0v1.1761H74.81a7.35,7.35,0,0,1,1.5474-.1625,7.9242,7.9242,0,0,1,1.6557.1779v-3.412Z"/>
        <path class="cls-2" d="M68.9606,69.3855,62.2294,73.254c-4.6422,2.677-10.267,5.9575-15.0717,8.681a7.4966,7.4966,0,0,1,1.6635,2.8317c4.0078-2.3211,8.8357-5.1219,12.681-7.3424l9.029-5.207A7.7381,7.7381,0,0,1,68.9606,69.3855Z"/>
        <path class="cls-2" d="M6.5153,59.3816a7.8681,7.8681,0,0,1,1.6557.1857V56.2249c0-1.5474.0387-3.0948-.07-4.6886.0852-2.1586.07-4.3637.0619-6.4836V34.1744a8.0421,8.0421,0,0,1-1.6247.17h0a7.6341,7.6341,0,0,1-1.6248-.178V55.4435h0V59.575h.147A7.5077,7.5077,0,0,1,6.5153,59.3816Z"/>
        <path class="cls-2" d="M34.8017,83.1961a7.9878,7.9878,0,0,1,.913-1.2379c-6.414-3.66-13.7409-7.9227-19.9615-11.5514L13.9118,69.401a7.9838,7.9838,0,0,1-1.5474,2.8627c3.0948,1.7873,7.2187,4.1238,9.679,5.5474,3.6442,2.1045,8.2631,4.7738,12.07,6.9633A7.4509,7.4509,0,0,1,34.8017,83.1961Z"/>
        <path class="cls-2" d="M26.3762,36.2712a17.5714,17.5714,0,0,0-1.6326,2.8162c-3.7292-2.1431-8.1548-4.6963-8.7969-5.0445-1.1219-.6576-2.3211-1.3308-3.443-1.9807l-.2785-.1547a7.737,7.737,0,0,0,1.64-2.77l.2321.1238c1.354.7273,2.7,1.5088,4,2.267C18.6314,31.8147,22.8094,34.2209,26.3762,36.2712Z"/>
        <path class="cls-2" d="M26.5077,57.633c-4.1935,2.3211-10.5765,5.8183-12.3792,6.8782l-.2167.17A7.396,7.396,0,0,0,12.21,61.842l.3172-.17c2.0039-1.1218,4.0233-2.3211,5.9807-3.4352l6.3366-3.4507A18.1793,18.1793,0,0,0,26.5077,57.633Z"/>
        <path class="cls-2" d="M43.0726,18.7236V28.511c-.5416-.0542-1.0832-.0774-1.6325-.0774a16.0869,16.0869,0,0,0-1.6248.0774V14.1279a7.7445,7.7445,0,0,0,1.7022.1934,7.1619,7.1619,0,0,0,1.5474-.1625v.3018C43.0726,15.8687,43.0726,17.2923,43.0726,18.7236Z"/>
        <path class="cls-2" d="M43.0726,79.3121v.2785a7.4548,7.4548,0,0,0-1.6635-.1856,7.2915,7.2915,0,0,0-1.5938.1779V65.1921q.7737.07,1.6248.07a12.7515,12.7515,0,0,0,1.6325-.07V76.0239C43.08,77.0916,43.08,78.2135,43.0726,79.3121Z"/>
        <path class="cls-2" d="M70.6782,31.8688l-.2785.1548c-1.1606.6576-2.3211,1.3385-3.4739,2.0038-.58.3327-4.8743,2.8937-8.7274,5.1916A18.2271,18.2271,0,0,0,56.6046,36.41c4.82-2.8549,10.7622-6.3985,12.1394-7.2109l.2553-.1547A7.6447,7.6447,0,0,0,70.6782,31.8688Z"/>
        <path class="cls-2" d="M70.6782,61.8342a7.5022,7.5022,0,0,0-.6963.8743,7.0624,7.0624,0,0,0-.99,1.9575l-.2554-.1548c-1.4-.8278-7.559-4.3791-12.2322-7.0561a17.9677,17.9677,0,0,0,1.6325-2.824l6.0194,3.4507,1.5474.89c1.5474.89,3.0948,1.8182,4.7119,2.7Z"/>
        <rect class="cls-2" x="92.1639" y="33.8804" width="5.4778" height="25.9499"/>
        <path class="cls-2" d="M113.3168,33.88H102.57V59.8381h10.7466c7.737,0,13.0446-5.1219,13.0446-12.9827S121.0538,33.88,113.3168,33.88Zm-.2707,21.0524h-4.9982V38.8166h4.9982c4.6963,0,7.7756,3.0948,7.7756,8.0388S117.7424,54.9328,113.0461,54.9328Z"/>
        <rect class="cls-1" x="129.8121" y="44.3331" width="16.4257" height="4.6732"/>
        <rect class="cls-2" x="129.8121" y="33.8804" width="17.8725" height="4.8202"/>
        <rect class="cls-2" x="129.8121" y="55.0179" width="18.3135" height="4.8202"/>
        <path class="cls-2" d="M159.2437,33.88,148.7059,59.8381h5.6093l2.089-5.5629h10.9866l2.0967,5.5629h5.7408L164.6519,33.88Zm-1.0832,15.83,3.7525-9.9343,3.7524,9.9343Z"/>
        <path class="cls-2" d="M188.1414,33.4394c-7.4662,0-12.944,5.71-12.944,13.416s5.4778,13.4237,12.944,13.4237,12.944-5.6712,12.944-13.4237S195.5767,33.4394,188.1414,33.4394Zm0,21.7255c-4.2244,0-7.4043-3.3733-7.4043-8.3095s3.18-8.3018,7.4043-8.3018,7.3966,3.3733,7.3966,8.3018S192.3658,55.1649,188.1414,55.1649Z"/>
        <polygon class="cls-2" points="210.006 33.88 204.536 33.88 204.536 59.838 221.867 59.838 221.867 54.941 210.006 54.941 210.006 33.88"/>
        <path class="cls-2" d="M235.3217,33.4394c-7.474,0-12.9441,5.71-12.9441,13.416s5.47,13.4237,12.9441,13.4237,12.944-5.6712,12.944-13.4237S242.7569,33.4394,235.3217,33.4394Zm0,21.7255c-4.2244,0-7.4044-3.3733-7.4044-8.3095s3.18-8.3018,7.4044-8.3018,7.3965,3.3733,7.3965,8.3018S239.5461,55.1649,235.3217,55.1649Z"/>
        <path class="cls-2" d="M263.5076,38.5536a7.6908,7.6908,0,0,1,6.1122,2.9323l3.4816-3.5745a12.1129,12.1129,0,0,0-9.8956-4.4874c-7.5358,0-13.0136,5.5938-13.0136,13.4159s5.4777,13.4237,12.913,13.4237a15.365,15.365,0,0,0,9.5629-3.296V46.0817H261.55v4.9826h6.1354v2.971A8.0314,8.0314,0,0,1,263.43,55.15c-4.5262,0-7.6751-3.4507-7.6751-8.31S258.9118,38.5536,263.5076,38.5536Z"/>
        <polygon class="cls-2" points="292.266 33.88 285.945 45.416 279.624 33.88 273.813 33.88 282.974 50.569 282.974 59.838 288.444 59.838 288.444 50.639 297.635 33.88 292.266 33.88"/>
      </g>
    </g>
  </g>
</svg>
