<svg xmlns="http://www.w3.org/2000/svg" viewBox="0 0 163.31 42"><defs><style>.cls-1{fill:#0093dd;}.cls-2{fill:#68b92e;}</style></defs><title>KuCoin</title><g id="Layer_2" data-name="Layer 2"><g id="Layer_1-2" data-name="Layer 1"><path class="cls-1" d="M12.12,21,24.56,33.44l7.84-7.85a3.55,3.55,0,0,1,5,5L27.07,41a3.58,3.58,0,0,1-5,0L7.1,26v8.89a3.55,3.55,0,1,1-7.1,0V7.09a3.55,3.55,0,1,1,7.1,0V16L22,1a3.58,3.58,0,0,1,5,0L37.43,11.39a3.55,3.55,0,0,1-5,5L24.56,8.56Zm12.44-3.55A3.55,3.55,0,1,1,21,21,3.55,3.55,0,0,1,24.56,17.45Z"/><path class="cls-2" d="M53.4,5.53a2.22,2.22,0,0,0-2.2,2.2V34.27a2.2,2.2,0,0,0,4.4,0V7.73a2.22,2.22,0,0,0-2.2-2.2Zm17.1.64a2.22,2.22,0,0,0-3.11,0L57.54,16a2.12,2.12,0,0,0-.31,2.42L67,35.37a2.2,2.2,0,0,0,3.82-2.2L62,17.82,70.5,9.28A2.22,2.22,0,0,0,70.5,6.17Zm6,8.3a2.22,2.22,0,0,0-2.2,2.2V28.28a8.19,8.19,0,0,0,8.19,8.19h6.9a2.22,2.22,0,0,0,2.2-2.2V16.67a2.2,2.2,0,0,0-4.4,0v15.4h-4.7a3.79,3.79,0,0,1-3.79-3.79V16.67a2.21,2.21,0,0,0-2.2-2.2Zm38.1-6.74a2.22,2.22,0,0,0-2.2-2.2h-8.35a8.19,8.19,0,0,0-8.19,8.19V28.28a8.19,8.19,0,0,0,8.19,8.19h8.35a2.2,2.2,0,0,0,0-4.4h-8.35a3.79,3.79,0,0,1-3.79-3.79V13.72a3.79,3.79,0,0,1,3.79-3.79h8.35a2.21,2.21,0,0,0,2.2-2.2Zm25.69-2.2a2.2,2.2,0,1,0,2.2,2.2A2.21,2.21,0,0,0,140.29,5.53Zm0,8.94a2.21,2.21,0,0,0-2.2,2.2v17.6a2.2,2.2,0,1,0,4.4,0V16.67A2.21,2.21,0,0,0,140.29,14.47Zm20.82,22a2.22,2.22,0,0,0,2.2-2.2V22.66a8.19,8.19,0,0,0-8.19-8.19h-6.9a2.22,2.22,0,0,0-2.2,2.2v17.6a2.2,2.2,0,1,0,4.4,0V18.87h4.7a3.79,3.79,0,0,1,3.79,3.79V34.27a2.22,2.22,0,0,0,2.2,2.2ZM117.76,22.66a8.18,8.18,0,0,1,8.15-8.19h.54a8.17,8.17,0,0,1,8.11,8.19v5.62a8.17,8.17,0,0,1-8.11,8.19h-.54a8.18,8.18,0,0,1-8.15-8.19V22.66Zm12.4,0a3.79,3.79,0,0,0-3.78-3.79h-.44a3.79,3.79,0,0,0-3.78,3.79v5.62a3.79,3.79,0,0,0,3.78,3.79h.44a3.79,3.79,0,0,0,3.78-3.79Z"/></g></g></svg>