<svg xmlns="http://www.w3.org/2000/svg" viewBox="0 0 210.815 62.198">
  <defs>
    <style>
      .cls-1 {
        fill: #1a1a1a;
      }

      .cls-2 {
        fill: #7abdf7;
      }

      .cls-3 {
        fill: #0d74f5;
      }

      .cls-4 {
        fill: #4494f7;
      }

      .cls-5 {
        fill: #005cf4;
      }

      .cls-6 {
        fill: #186ef9;
      }

      .cls-7 {
        fill: #0246f2;
      }

      .cls-8 {
        fill: #0046f8;
      }

      .cls-9 {
        fill: #0729f1;
      }
    </style>
  </defs>
  <title>Okex</title>
  <g id="Layer_2" data-name="Layer 2">
    <g id="图层_1" data-name="图层 1">
      <g>
        <g>
          <path class="cls-1" d="M108.3971,31.0991a22.916,22.916,0,0,1-1.3183,7.822A19.0993,19.0993,0,0,1,103.27,45.337a17.8635,17.8635,0,0,1-6.1521,4.3651,22.438,22.438,0,0,1-16.6988,0,18.1524,18.1524,0,0,1-6.1816-4.3651,18.4605,18.4605,0,0,1-3.8084-6.4159,24.2874,24.2874,0,0,1,0-15.6149,18.4213,18.4213,0,0,1,3.8084-6.4451,18.1786,18.1786,0,0,1,6.1816-4.3652,22.438,22.438,0,0,1,16.6988,0,17.8889,17.8889,0,0,1,6.1521,4.3652,19.0534,19.0534,0,0,1,3.8087,6.4451A22.9993,22.9993,0,0,1,108.3971,31.0991ZM88.7686,44.8683a11.2036,11.2036,0,0,0,5.01-1.0547,10.16,10.16,0,0,0,3.5742-2.9,12.493,12.493,0,0,0,2.1386-4.3652,20.1974,20.1974,0,0,0,.7032-5.449A20.2079,20.2079,0,0,0,99.491,25.65a12.5016,12.5016,0,0,0-2.1386-4.3652,10.16,10.16,0,0,0-3.5742-2.9,12.4249,12.4249,0,0,0-10.0193,0,10.1451,10.1451,0,0,0-3.5741,2.9A12.486,12.486,0,0,0,78.0462,25.65a20.2119,20.2119,0,0,0-.7031,5.4492,20.2015,20.2015,0,0,0,.7031,5.449,12.4775,12.4775,0,0,0,2.1386,4.3652,10.1451,10.1451,0,0,0,3.5741,2.9A11.1987,11.1987,0,0,0,88.7686,44.8683Z"/>
          <path class="cls-1" d="M113.5524,50.61V11.5877h8.2029v18.75l13.535-18.75h9.492L130.427,30.8647,145.7783,50.61H135.6418l-13.8865-19.16V50.61Z"/>
          <path class="cls-1" d="M149.0008,11.5877h23.4371v6.5038H157.2038v9.4334h14.5309v6.5038H157.2038V44.1066h15.41V50.61H149.0008Z"/>
          <path class="cls-1" d="M201.6747,11.5877h8.9059L197.7489,30.9819,210.815,50.61H201.85l-8.4373-13.3L184.9758,50.61h-8.9646l13.066-19.6284L176.2455,11.5877h8.906l8.2615,13.1834Z"/>
        </g>
        <g>
          <path class="cls-2" d="M27.7512,27.7511a14.0768,14.0768,0,0,0,6.6957,0A14.0954,14.0954,0,0,1,44.7727,17.4253a14.0776,14.0776,0,1,0-27.3473,0A14.0954,14.0954,0,0,1,27.7512,27.7511Z"/>
          <path class="cls-3" d="M34.4469,34.4468a14.08,14.08,0,0,0-6.6957,0A14.0955,14.0955,0,0,1,17.4254,44.7727a14.0776,14.0776,0,1,0,27.3473,0A14.0955,14.0955,0,0,1,34.4469,34.4468Z"/>
          <path class="cls-4" d="M48.1206,17.0214a14.1045,14.1045,0,0,0-3.3479.4039A14.0954,14.0954,0,0,1,34.4469,27.7511a14.0768,14.0768,0,0,0,0,6.6957A14.0955,14.0955,0,0,1,44.7727,44.7727a14.0776,14.0776,0,1,0,3.3479-27.7513Z"/>
          <path class="cls-5" d="M27.7512,34.4468a14.0768,14.0768,0,0,0,0-6.6957A14.0954,14.0954,0,0,1,17.4254,17.4253a14.0775,14.0775,0,1,0,0,27.3474A14.0955,14.0955,0,0,1,27.7512,34.4468Z"/>
          <path class="cls-6" d="M34.4469,27.7511A14.0954,14.0954,0,0,0,44.7727,17.4253,14.0954,14.0954,0,0,0,34.4469,27.7511Z"/>
          <path class="cls-7" d="M34.4469,34.4468A14.0955,14.0955,0,0,0,44.7727,44.7727,14.0955,14.0955,0,0,0,34.4469,34.4468Z"/>
          <path class="cls-8" d="M27.7512,27.7511A14.0954,14.0954,0,0,0,17.4254,17.4253,14.0954,14.0954,0,0,0,27.7512,27.7511Z"/>
          <path class="cls-9" d="M27.7512,34.4468A14.0955,14.0955,0,0,0,17.4254,44.7727,14.0955,14.0955,0,0,0,27.7512,34.4468Z"/>
        </g>
      </g>
    </g>
  </g>
</svg>
