<svg xmlns="http://www.w3.org/2000/svg" viewBox="0 0 227.07 52.98"><defs><style>.cls-1{fill:#222;}.cls-2{fill:none;}</style></defs><title>Asset 4</title><g id="Layer_2" data-name="Layer 2"><g id="Layer_1-2" data-name="Layer 1"><path class="cls-1" d="M64.16,2.13c.34,0,.66,0,1,0,4.78,0,9.56,0,14.34,0a1.43,1.43,0,0,1,1.37.73Q87.06,12,93.32,21.15l.43.56c.25-.32.46-.56.63-.82q6-9,12.07-18a1.87,1.87,0,0,1,1.77-1q21.66,0,43.31,0h1.38V0l10,9.53L152.8,19l.17.29-.1-2.05h-1.12q-17.24,0-34.45,0a1.67,1.67,0,0,0-1.62.84q-10.92,16.68-21.9,33.34l-.5.68C89.05,45.38,84.87,38.8,80.7,32.21l-.25.08V52.77H64.16Z"/><path class="cls-1" d="M122.4,35.28c0,1,0,1.95,0,2.87,0,.2.35.44.59.54a2.31,2.31,0,0,0,.79,0h29.55c0,.35.07.63.07.92,0,4.11,0,8.23,0,12.34,0,.8-.23,1-1,1Q135,53,117.58,53h-8.29c0-.54-.06-.86-.06-1.18,0-5.14,0-10.29,0-15.43a3.22,3.22,0,0,1,.5-1.65c2.94-4.5,5.92-9,8.87-13.46a1.51,1.51,0,0,1,1.45-.78q16.14,0,32.27,0c.87,0,1.12.23,1.11,1.11,0,4.18,0,8.37,0,12.55,0,.92-.32,1.1-1.14,1.09q-14.3,0-28.58,0C123.31,35.21,122.89,35.25,122.4,35.28Z"/><line class="cls-2" y1="1.65" y2="52.77"/><line class="cls-2" x1="227.07" y1="1.65" x2="227.07" y2="51.3"/></g></g></svg>